{
.appVersion = "3114";
copyright = "Copyright 2015 The Public Sans Project Authors (https://github.com/uswds/public-sans)";
customParameters = (
{
name = fsType;
value = (
);
},
{
name = "Use Typo Metrics";
value = 1;
},
{
name = "Variable Font Origin";
value = "91AB5BCA-6A50-42DA-B2F7-8181BF189245";
},
{
name = "Disable Last Change";
value = 1;
},
{
name = "Use Line Breaks";
value = 1;
},
{
name = licenseURL;
value = "SIL Open Font License, Version 1.1: https://scripts.sil.org/cms/scripts/page.php?site_id=nrsi&id=OFL_web; USWDS Modified Version: https://github.com/uswds/public-sans/blob/master/LICENSE.md";
},
{
name = license;
value = "This Font Software is licensed under the SIL Open Font License, Version 1.1. This license is available with a FAQ at: https://scripts.sil.org/OFL. The license for USWDS’s Modified Version, covering USWDS’s modifications to Public Sans, is available at https://github.com/uswds/public-sans/blob/master/LICENSE.md.";
},
{
name = description;
value = "Public Sans is based on Libre Franklin, which is a reinterpretation and expansion of the 1912 Morris Fuller Benton’s classic.";
},
{
name = Axes;
value = (
{
Name = Weight;
Tag = wght;
}
);
}
);
date = "2020-07-15 15:46:30 +0000";
designer = "The Public Sans project authors (U.S. Web Design System). Libre Franklin designed by Pablo Impallari and Rodrigo Fuenzalida.";
designerURL = "https://designsystem.digital.gov and http://www.impallari.com";
familyName = "Public Sans";
featurePrefixes = (
{
automatic = 1;
code = "languagesystem DFLT dflt;

languagesystem latn dflt;
languagesystem latn AZE;
languagesystem latn CRT;
languagesystem latn KAZ;
languagesystem latn TAT;
languagesystem latn TRK;
languagesystem latn ROM;
languagesystem latn MOL;
languagesystem latn CAT;
";
name = Languagesystems;
}
);
features = (
{
automatic = 1;
code = "feature locl;
feature subs;
feature sinf;
feature sups;
feature numr;
feature dnom;
feature frac;
feature ordn;
feature lnum;
feature pnum;
feature tnum;

glyphs = (
{
color = 6;
glyphname = A;
layers = (
{
anchors = (
{
name = bottom;
position = "{665, 0}";
},
{
name = ogonek;
position = "{1327, 10}";
},
{
name = top;
position = "{885, 1446}";
}
);
layerId = "258ED206-D907-4350-8EBA-CBDDA1C16BF7";
paths = (
{
closed = 1;
nodes = (
"343 0 LINE",
"483 280 LINE",
"937 280 LINE",
"989 0 LINE",
"1371 0 LINE",
"1081 1446 LINE",
"687 1446 LINE",
"-43 0 LINE"
);
},
{
closed = 1;
nodes = (
"829 1074 LINE",
"899 612 LINE",
"615 612 LINE"
);
}
);
width = 1474;
},
{
anchors = (
{
name = bottom;
position = "{579, 0}";
},
{
name = ogonek;
position = "{1097, 24}";
},
{
name = top;
position = "{783, 1446}";
}
);
layerId = "91AB5BCA-6A50-42DA-B2F7-8181BF189245";
paths = (
{
closed = 1;
nodes = (
"119 0 LINE",
"339 456 LINE",
"949 456 LINE",
"1037 0 LINE",
"1116 0 LINE",
"834 1446 LINE",
"732 1446 LINE",
"42 0 LINE"
);
},
{
closed = 1;
nodes = (
"774 1362 LINE",
"934 542 LINE",
"377 542 LINE"
);
}
);
width = 1304;
}
);
leftKerningGroup = A;
leftMetricsKey = X;
rightKerningGroup = A;
rightMetricsKey = X;
unicode = 0041;
},
{
color = 6;
glyphname = AE;
layers = (
{
anchors = (
{
name = top;
position = "{1519, 1446}";
}
);
layerId = "258ED206-D907-4350-8EBA-CBDDA1C16BF7";
paths = (
{
closed = 1;
nodes = (
"313 0 LINE",
"491 280 LINE",
"929 280 LINE",
"887 0 LINE",
"2023 0 LINE",
"2071 320 LINE",
"1377 320 LINE",
"1415 570 LINE",
"1980 570 LINE",
"2028 884 LINE",
"1461 884 LINE",
"1499 1128 LINE",
"2175 1128 LINE",
"2225 1446 LINE",
"891 1446 LINE",
"-73 0 LINE"
);
},
{
closed = 1;
nodes = (
"1069 1202 LINE",
"978 612 LINE",
"683 612 LINE"
);
}
);
width = 2189;
},
{
anchors = (
{
name = top;
position = "{1265, 1446}";
}
);
layerId = "91AB5BCA-6A50-42DA-B2F7-8181BF189245";
paths = (
{
closed = 1;
nodes = (
"3 0 LINE",
"313 464 LINE",
"795 464 LINE",
"728 0 LINE",
"1475 0 LINE",
"1485 78 LINE",
"821 78 LINE",
"907 692 LINE",
"1509 692 LINE",
"1519 770 LINE",
"919 770 LINE",
"1003 1368 LINE",
"1641 1368 LINE",
"1651 1446 LINE",
"889 1446 LINE",
"-73 0 LINE"
);
},
{
closed = 1;
nodes = (
"921 1370 LINE",
"805 542 LINE",
"359 542 LINE"
);
}
);
width = 1688;
}
);
leftKerningGroup = AE;
rightKerningGroup = E;
rightMetricsKey = E;
unicode = 00C6;
},
{
color = 6;
glyphname = B;
layers = (
{
layerId = "258ED206-D907-4350-8EBA-CBDDA1C16BF7";
rightMetricsKey = "=H/2";
paths = (
{
closed = 1;
nodes = (
"669 0 LINE SMOOTH",
"1085 0 OFFCURVE",
"1265 124 OFFCURVE",
"1307 394 CURVE",
"1323 502 OFFCURVE",
"1335 668 OFFCURVE",
"1093 744 CURVE",
"1283 832 OFFCURVE",
"1354 930 OFFCURVE",
"1375 1064 CURVE SMOOTH",
"1411 1310 OFFCURVE",
"1257 1446 OFFCURVE",
"856 1446 CURVE SMOOTH",
"281 1446 LINE",
"62 0 LINE"
);
},
{
closed = 1;
nodes = (
"539 582 LINE",
"781 582 LINE",
"877 582 OFFCURVE",
"933 522 OFFCURVE",
"921 442 CURVE SMOOTH",
"909 366 OFFCURVE",
"839 292 OFFCURVE",
"727 292 CURVE",
"495 292 LINE"
);
},
{
closed = 1;
nodes = (
"625 1154 LINE",
"852 1154 LINE SMOOTH",
"945 1154 OFFCURVE",
"1009 1100 OFFCURVE",
"995 1014 CURVE SMOOTH",
"982 938 OFFCURVE",
"917 882 OFFCURVE",
"827 882 CURVE SMOOTH",
"583 882 LINE"
);
}
);
width = 1392;
},
{
layerId = "91AB5BCA-6A50-42DA-B2F7-8181BF189245";
rightMetricsKey = "=H/1.6";
paths = (
{
closed = 1;
nodes = (
"529 0 LINE",
"843 0 OFFCURVE",
"1042 126 OFFCURVE",
"1078 382 CURVE",
"1106 576 OFFCURVE",
"1020 698 OFFCURVE",
"832 733 CURVE",
"1033 793 OFFCURVE",
"1118 906 OFFCURVE",
"1142 1068 CURVE SMOOTH",
"1176 1312 OFFCURVE",
"1020 1446 OFFCURVE",
"722 1446 CURVE SMOOTH",
"351 1446 LINE",
"147 0 LINE"
);
},
{
closed = 1;
nodes = (
"317 690 LINE",
"643 690 LINE SMOOTH",
"867 690 OFFCURVE",
"1039 610 OFFCURVE",
"1007 378 CURVE SMOOTH",
"977 164 OFFCURVE",
"810 82 OFFCURVE",
"526 82 CURVE",
"231 82 LINE"
);
},
{
closed = 1;
nodes = (
"411 1366 LINE",
"707 1366 LINE SMOOTH",
"951 1366 OFFCURVE",
"1099 1276 OFFCURVE",
"1069 1066 CURVE SMOOTH",
"1037 826 OFFCURVE",
"814 772 OFFCURVE",
"648 772 CURVE SMOOTH",
"327 772 LINE"
);
}
);
width = 1235;
}
);
leftKerningGroup = N;
leftMetricsKey = H;
rightKerningGroup = B;
unicode = 0042;
},
{
color = 6;
glyphname = C;
layers = (
{
anchors = (
{
name = bottom;
position = "{693, 0}";
},
{
name = top;
position = "{911, 1446}";
}
);
layerId = "258ED206-D907-4350-8EBA-CBDDA1C16BF7";
paths = (
{
closed = 1;
nodes = (
"1149 -20 OFFCURVE",
"1313 240 OFFCURVE",
"1399 540 CURVE",
"995 540 LINE",
"953 406 OFFCURVE",
"855 292 OFFCURVE",
"724 292 CURVE SMOOTH",
"605 292 OFFCURVE",
"526 372 OFFCURVE",
"526 574 CURVE SMOOTH",
"526 818 OFFCURVE",
"602 1154 OFFCURVE",
"853 1154 CURVE SMOOTH",
"987 1154 OFFCURVE",
"1054 1070 OFFCURVE",
"1056 936 CURVE",
"1459 936 LINE",
"1459 1272 OFFCURVE",
"1250 1466 OFFCURVE",
"915 1466 CURVE SMOOTH",
"380 1466 OFFCURVE",
"106 1025 OFFCURVE",
"106 593 CURVE SMOOTH",
"106 231 OFFCURVE",
"322 -20 OFFCURVE",
"689 -20 CURVE SMOOTH"
);
}
);
width = 1485;
},
{
anchors = (
{
name = bottom;
position = "{590, 0}";
},
{
name = top;
position = "{779, 1446}";
}
);
layerId = "91AB5BCA-6A50-42DA-B2F7-8181BF189245";
paths = (
{
closed = 1;
nodes = (
"853 -20 OFFCURVE",
"1060 191 OFFCURVE",
"1112 411 CURVE",
"1030 411 LINE",
"970 223 OFFCURVE",
"822 62 OFFCURVE",
"599 62 CURVE SMOOTH",
"299 62 OFFCURVE",
"177 276 OFFCURVE",
"235 720 CURVE SMOOTH",
"293 1164 OFFCURVE",
"471 1384 OFFCURVE",
"771 1384 CURVE SMOOTH",
"994 1384 OFFCURVE",
"1100 1222 OFFCURVE",
"1111 1034 CURVE",
"1193 1034 LINE",
"1199 1256 OFFCURVE",
"1046 1466 OFFCURVE",
"782 1466 CURVE SMOOTH",
"435 1466 OFFCURVE",
"217 1208 OFFCURVE",
"154 720 CURVE SMOOTH",
"90 232 OFFCURVE",
"242 -20 OFFCURVE",
"589 -20 CURVE SMOOTH"
);
}
);
width = 1252;
}
);
leftKerningGroup = O;
leftMetricsKey = O;
rightKerningGroup = C;
rightMetricsKey = O;
unicode = 0043;
},
{
color = 3;
glyphname = Ccedilla;
layers = (
{
anchors = (
{
name = _bottom;
position = "{693, 0}";
}
);
components = (
{
name = C;
}
);
layerId = "258ED206-D907-4350-8EBA-CBDDA1C16BF7";
paths = (
{
closed = 1;
nodes = (
"773 -438 OFFCURVE",
"905 -372 OFFCURVE",
"921 -268 CURVE SMOOTH",
"931 -194 OFFCURVE",
"885 -104 OFFCURVE",
"723 -104 CURVE",
"781 10 LINE",
"625 10 LINE",
"525 -162 LINE SMOOTH",
"511 -184 OFFCURVE",
"521 -186 OFFCURVE",
"541 -186 CURVE SMOOTH",
"675 -186 OFFCURVE",
"713 -214 OFFCURVE",
"707 -262 CURVE SMOOTH",
"701 -294 OFFCURVE",
"661 -314 OFFCURVE",
"607 -314 CURVE SMOOTH",
"549 -314 OFFCURVE",
"489 -288 OFFCURVE",
"447 -262 CURVE",
"381 -380 LINE",
"451 -426 OFFCURVE",
"543 -438 OFFCURVE",
"637 -438 CURVE SMOOTH"
);
}
);
width = 1485;
},
{
anchors = (
{
name = _bottom;
position = "{590, 0}";
}
);
components = (
{
name = C;
}
);
layerId = "91AB5BCA-6A50-42DA-B2F7-8181BF189245";
paths = (
{
closed = 1;
nodes = (
"584 -398 OFFCURVE",
"672 -350 OFFCURVE",
"686 -252 CURVE SMOOTH",
"694 -190 OFFCURVE",
"672 -124 OFFCURVE",
"562 -114 CURVE",
"626 10 LINE",
"564 10 LINE",
"476 -154 LINE SMOOTH",
"472 -158 OFFCURVE",
"472 -162 OFFCURVE",
"482 -162 CURVE SMOOTH",
"574 -166 OFFCURVE",
"616 -194 OFFCURVE",
"606 -256 CURVE SMOOTH",
"598 -310 OFFCURVE",
"564 -340 OFFCURVE",
"488 -340 CURVE SMOOTH",
"432 -340 OFFCURVE",
"406 -322 OFFCURVE",
"384 -296 CURVE",
"356 -352 LINE",
"390 -382 OFFCURVE",
"432 -398 OFFCURVE",
"488 -398 CURVE SMOOTH"
);
}
);
width = 1252;
}
);
leftKerningGroup = O;
rightKerningGroup = C;
unicode = 00C7;
},
{
color = 6;
glyphname = D;
layers = (
{
anchors = (
{
name = bottom;
position = "{527, 0}";
},
{
name = center;
position = "{777, 724}";
},
{
name = top;
position = "{988, 1446}";
}
);
layerId = "258ED206-D907-4350-8EBA-CBDDA1C16BF7";
paths = (
{
closed = 1;
nodes = (
"586 0 LINE SMOOTH",
"1312 0 OFFCURVE",
"1441 585 OFFCURVE",
"1441 856 CURVE SMOOTH",
"1441 1427 OFFCURVE",
"966 1446 OFFCURVE",
"465 1446 CURVE SMOOTH",
"372 1446 OFFCURVE",
"293 1446 OFFCURVE",
"273 1446 CURVE",
"62 0 LINE"
);
},
{
closed = 1;
nodes = (
"623 1140 LINE",
"771 1140 LINE SMOOTH",
"940 1140 OFFCURVE",
"1042 1044 OFFCURVE",
"1042 854 CURVE SMOOTH",
"1042 564 OFFCURVE",
"858 306 OFFCURVE",
"626 306 CURVE SMOOTH",
"497 306 LINE"
);
}
);
width = 1488;
},
{
anchors = (
{
name = bottom;
position = "{502, 0}";
},
{
name = center;
position = "{658, 724}";
},
{
name = top;
position = "{849, 1446}";
}
);
layerId = "91AB5BCA-6A50-42DA-B2F7-8181BF189245";
paths = (
{
closed = 1;
nodes = (
"348 0 LINE SMOOTH",
"979 0 OFFCURVE",
"1181 416 OFFCURVE",
"1181 916 CURVE SMOOTH",
"1181 1273 OFFCURVE",
"995 1442 OFFCURVE",
"569 1444 CURVE SMOOTH",
"461 1444 OFFCURVE",
"354 1446 OFFCURVE",
"351 1446 CURVE",
"150 0 LINE"
);
},
{
closed = 1;
nodes = (
"420 1364 LINE",
"544 1364 LINE SMOOTH",
"900 1364 OFFCURVE",
"1103 1259 OFFCURVE",
"1103 904 CURVE SMOOTH",
"1103 423 OFFCURVE",
"912 82 OFFCURVE",
"349 82 CURVE SMOOTH",
"240 82 LINE"
);
}
);
width = 1266;
}
);
leftKerningGroup = N;
leftMetricsKey = H;
rightKerningGroup = D;
rightMetricsKey = "=O";
unicode = 0044;
},
{
color = 3;
glyphname = Eth;
layers = (
{
components = (
{
name = D;
transform = "{1, 0, 0, 1, 146, 0}";
}
);
layerId = "258ED206-D907-4350-8EBA-CBDDA1C16BF7";
paths = (
{
closed = 1;
nodes = (
"938 572 LINE",
"978 846 LINE",
"118 846 LINE",
"78 572 LINE"
);
}
);
width = 1634;
},
{
components = (
{
name = D;
transform = "{1, 0, 0, 1, 31, 0}";
}
);
layerId = "91AB5BCA-6A50-42DA-B2F7-8181BF189245";
paths = (
{
closed = 1;
nodes = (
"703 688 LINE",
"703 770 LINE",
"106 770 LINE",
"106 688 LINE"
);
}
);
width = 1297;
}
);
leftKerningGroup = N;
rightKerningGroup = D;
rightMetricsKey = D;
unicode = 00D0;
},
{
color = 6;
glyphname = E;
layers = (
{
anchors = (
{
name = bottom;
position = "{593, 0}";
},
{
name = ogonek;
position = "{1077, 20}";
},
{
name = top;
position = "{791, 1446}";
}
);
layerId = "258ED206-D907-4350-8EBA-CBDDA1C16BF7";
paths = (
{
closed = 1;
nodes = (
"1125 0 LINE",
"1175 324 LINE",
"499 324 LINE",
"537 570 LINE",
"1099 570 LINE",
"1146 884 LINE",
"587 884 LINE",
"623 1124 LINE",
"1293 1124 LINE",
"1343 1446 LINE",
"283 1446 LINE",
"62 0 LINE"
);
}
);
width = 1302;
},
{
anchors = (
{
name = bottom;
position = "{551, 0}";
},
{
name = ogonek;
position = "{931, 20}";
},
{
name = top;
position = "{715, 1446}";
}
);
layerId = "91AB5BCA-6A50-42DA-B2F7-8181BF189245";
rightMetricsKey = "=140";
paths = (
{
closed = 1;
nodes = (
"937 0 LINE",
"949 82 LINE",
"231 84 LINE",
"317 690 LINE",
"961 690 LINE",
"971 772 LINE",
"327 772 LINE",
"411 1366 LINE",
"1103 1366 LINE",
"1115 1446 LINE",
"351 1446 LINE",
"147 0 LINE"
);
}
);
width = 1150;
}
);
leftKerningGroup = N;
leftMetricsKey = H;
rightKerningGroup = E;
rightMetricsKey = "=H/1.5";
unicode = 0045;
},
{
color = 6;
glyphname = F;
layers = (
{
layerId = "258ED206-D907-4350-8EBA-CBDDA1C16BF7";
paths = (
{
closed = 1;
nodes = (
"451 0 LINE",
"535 558 LINE",
"1089 558 LINE",
"1137 868 LINE",
"581 868 LINE",
"621 1128 LINE",
"1285 1128 LINE",
"1335 1446 LINE",
"283 1446 LINE",
"62 0 LINE"
);
}
);
width = 1272;
},
{
layerId = "91AB5BCA-6A50-42DA-B2F7-8181BF189245";
paths = (
{
closed = 1;
nodes = (
"227 0 LINE",
"325 692 LINE",
"951 692 LINE",
"961 774 LINE",
"337 774 LINE",
"419 1366 LINE",
"1093 1366 LINE",
"1103 1446 LINE",
"351 1446 LINE",
"149 0 LINE"
);
}
);
width = 1084;
}
);
leftKerningGroup = N;
leftMetricsKey = H;
rightKerningGroup = F;
rightMetricsKey = "=H/2";
unicode = 0046;
},
{
color = 6;
glyphname = G;
layers = (
{
anchors = (
{
name = bottom;
position = "{687, 0}";
},
{
name = top;
position = "{915, 1446}";
}
);
layerId = "258ED206-D907-4350-8EBA-CBDDA1C16BF7";
rightMetricsKey = "=O*1.5";
paths = (
{
closed = 1;
nodes = (
"917 -20 OFFCURVE",
"1033 86 OFFCURVE",
"1117 160 CURVE",
"1094 0 LINE",
"1348 0 LINE",
"1464 764 LINE",
"806 768 LINE",
"766 506 LINE",
"1016 506 LINE",
"991 454 LINE",
"961 388 OFFCURVE",
"871 318 OFFCURVE",
"762 318 CURVE SMOOTH",
"638 318 OFFCURVE",
"481 376 OFFCURVE",
"535 730 CURVE SMOOTH",
"583 1042 OFFCURVE",
"727 1144 OFFCURVE",
"871 1144 CURVE SMOOTH",
"1006 1144 OFFCURVE",
"1065 1054 OFFCURVE",
"1073 936 CURVE",
"1477 936 LINE",
"1514 1206 OFFCURVE",
"1315 1466 OFFCURVE",
"930 1466 CURVE SMOOTH",
"516 1466 OFFCURVE",
"182 1168 OFFCURVE",
"113 718 CURVE SMOOTH",
"45 282 OFFCURVE",
"271 -20 OFFCURVE",
"680 -20 CURVE SMOOTH"
);
}
);
width = 1557;
},
{
anchors = (
{
name = bottom;
position = "{570, 0}";
},
{
name = top;
position = "{776, 1446}";
}
);
layerId = "91AB5BCA-6A50-42DA-B2F7-8181BF189245";
paths = (
{
closed = 1;
nodes = (
"791 -20 OFFCURVE",
"945 100 OFFCURVE",
"1039 252 CURVE",
"1003 0 LINE",
"1076 0 LINE",
"1179 736 LINE",
"733 736 LINE",
"723 666 LINE",
"1097 666 LINE",
"1073 498 LINE SMOOTH",
"1047 314 OFFCURVE",
"882 58 OFFCURVE",
"596 58 CURVE SMOOTH",
"313 58 OFFCURVE",
"168 276 OFFCURVE",
"230 720 CURVE SMOOTH",
"293 1164 OFFCURVE",
"500 1384 OFFCURVE",
"782 1384 CURVE SMOOTH",
"976 1384 OFFCURVE",
"1109 1216 OFFCURVE",
"1112 1034 CURVE",
"1193 1034 LINE",
"1205 1262 OFFCURVE",
"1017 1466 OFFCURVE",
"794 1466 CURVE SMOOTH",
"456 1466 OFFCURVE",
"222 1202 OFFCURVE",
"154 720 CURVE SMOOTH",
"86 234 OFFCURVE",
"247 -20 OFFCURVE",
"585 -20 CURVE SMOOTH"
);
}
);
width = 1339;
}
);
leftKerningGroup = O;
leftMetricsKey = O;
rightKerningGroup = G;
rightMetricsKey = "=H-30";
unicode = 0047;
},
{
color = 6;
glyphname = H;
layers = (
{
anchors = (
{
name = bottom;
position = "{694, 0}";
},
{
name = top;
position = "{914, 1446}";
}
);
layerId = "258ED206-D907-4350-8EBA-CBDDA1C16BF7";
paths = (
{
closed = 1;
nodes = (
"451 0 LINE",
"533 580 LINE",
"1032 580 LINE",
"950 0 LINE",
"1339 0 LINE",
"1543 1446 LINE",
"1154 1446 LINE",
"1077 898 LINE",
"578 898 LINE",
"655 1446 LINE",
"266 1446 LINE",
"62 0 LINE"
);
}
);
width = 1547;
},
{
anchors = (
{
name = bottom;
position = "{656, 0}";
},
{
name = top;
position = "{860, 1446}";
}
);
layerId = "91AB5BCA-6A50-42DA-B2F7-8181BF189245";
paths = (
{
closed = 1;
nodes = (
"220 0 LINE",
"320 712 LINE",
"1179 712 LINE",
"1079 0 LINE",
"1151 0 LINE",
"1354 1446 LINE",
"1282 1446 LINE",
"1191 794 LINE",
"331 794 LINE",
"423 1446 LINE",
"351 1446 LINE",
"148 0 LINE"
);
}
);
width = 1444;
}
);
leftKerningGroup = N;
rightKerningGroup = N;
unicode = 0048;
},
{
color = 3;
glyphname = Hbar;
layers = (
{
components = (
{
name = H;
transform = "{1, 0, 0, 1, 72, 0}";
}
);
layerId = "258ED206-D907-4350-8EBA-CBDDA1C16BF7";
paths = (
{
closed = 1;
nodes = (
"1717 1082 LINE",
"1747 1284 LINE",
"149 1284 LINE",
"119 1082 LINE"
);
}
);
width = 1679;
},
{
components = (
{
name = H;
transform = "{1, 0, 0, 1, 40, 0}";
}
);
layerId = "91AB5BCA-6A50-42DA-B2F7-8181BF189245";
paths = (
{
closed = 1;
nodes = (
"1556 1128 LINE",
"1568 1206 LINE",
"118 1206 LINE",
"106 1128 LINE"
);
}
);
width = 1491;
}
);
leftKerningGroup = N;
rightKerningGroup = N;
unicode = 0126;
},
{
color = 6;
glyphname = I;
layers = (
{
anchors = (
{
name = bottom;
position = "{277, 0}";
},
{
name = ogonek;
position = "{403, 9}";
},
{
name = top;
position = "{477, 1446}";
}
);
layerId = "258ED206-D907-4350-8EBA-CBDDA1C16BF7";
paths = (
{
closed = 1;
nodes = (
"451 0 LINE",
"669 1446 LINE",
"281 1446 LINE",
"62 0 LINE"
);
}
);
width = 673;
},
{
anchors = (
{
name = bottom;
position = "{187, 0}";
},
{
name = ogonek;
position = "{213, 20}";
},
{
name = top;
position = "{389, 1446}";
}
);
layerId = "91AB5BCA-6A50-42DA-B2F7-8181BF189245";
paths = (
{
closed = 1;
nodes = (
"221 0 LINE",
"423 1446 LINE",
"351 1446 LINE",
"149 0 LINE"
);
}
);
width = 514;
}
);
leftKerningGroup = N;
leftMetricsKey = H;
rightKerningGroup = N;
rightMetricsKey = H;
unicode = 0049;
},
{
color = 6;
glyphname = J;
layers = (
{
anchors = (
{
name = top;
position = "{659, 1446}";
}
);
layerId = "258ED206-D907-4350-8EBA-CBDDA1C16BF7";
paths = (
{
closed = 1;
nodes = (
"561 -20 OFFCURVE",
"663 138 OFFCURVE",
"711 458 CURVE SMOOTH",
"861 1446 LINE",
"475 1446 LINE",
"339 558 LINE SMOOTH",
"317 408 OFFCURVE",
"273 340 OFFCURVE",
"135 340 CURVE SMOOTH",
"93 340 OFFCURVE",
"45 346 OFFCURVE",
"9 350 CURVE",
"-43 0 LINE",
"15 -12 OFFCURVE",
"133 -20 OFFCURVE",
"215 -20 CURVE SMOOTH"
);
}
);
width = 838;
},
{
anchors = (
{
name = top;
position = "{636, 1446}";
}
);
layerId = "91AB5BCA-6A50-42DA-B2F7-8181BF189245";
paths = (
{
closed = 1;
nodes = (
"414 -20 OFFCURVE",
"482 96 OFFCURVE",
"508 280 CURVE SMOOTH",
"672 1446 LINE",
"601 1446 LINE",
"440 308 LINE SMOOTH",
"416 126 OFFCURVE",
"366 62 OFFCURVE",
"250 62 CURVE SMOOTH",
"156 62 OFFCURVE",
"116 104 OFFCURVE",
"78 124 CURVE",
"48 38 LINE",
"59 26 OFFCURVE",
"138 -20 OFFCURVE",
"242 -20 CURVE SMOOTH"
);
}
);
width = 717;
}
);
leftKerningGroup = J;
leftMetricsKey = X;
rightKerningGroup = U;
rightMetricsKey = U;
unicode = 004A;
},
{
color = 6;
glyphname = K;
layers = (
{
anchors = (
{
name = bottom;
position = "{644, 0}";
},
{
name = top;
position = "{889, 1446}";
}
);
layerId = "258ED206-D907-4350-8EBA-CBDDA1C16BF7";
paths = (
{
closed = 1;
nodes = (
"465 0 LINE",
"522 378 LINE",
"737 610 LINE",
"965 0 LINE",
"1379 0 LINE",
"1055 894 LINE",
"1535 1446 LINE",
"1101 1446 LINE",
"597 862 LINE",
"685 1446 LINE",
"283 1446 LINE",
"62 0 LINE"
);
}
);
width = 1490;
},
{
anchors = (
{
name = bottom;
position = "{555, 0}";
},
{
name = top;
position = "{791, 1446}";
}
);
layerId = "91AB5BCA-6A50-42DA-B2F7-8181BF189245";
rightMetricsKey = "=X/1.25";
paths = (
{
closed = 1;
nodes = (
"223 0 LINE",
"293 496 LINE",
"601 814 LINE",
"965 0 LINE",
"1059 0 LINE",
"671 876 LINE",
"1231 1446 LINE",
"1133 1446 LINE",
"309 612 LINE",
"425 1446 LINE",
"351 1446 LINE",
"147 0 LINE"
);
}
);
width = 1224;
}
);
leftKerningGroup = N;
leftMetricsKey = H;
rightKerningGroup = K;
rightMetricsKey = "=X*1.25";
unicode = 004B;
},
{
color = 6;
glyphname = L;
layers = (
{
anchors = (
{
name = bottom;
position = "{537, 0}";
},
{
name = caron;
position = "{800, 1446}";
},
{
name = top;
position = "{467, 1446}";
}
);
layerId = "258ED206-D907-4350-8EBA-CBDDA1C16BF7";
rightMetricsKey = "=H/2.5";
paths = (
{
closed = 1;
nodes = (
"1024 0 LINE",
"1073 320 LINE",
"499 320 LINE",
"669 1446 LINE",
"283 1446 LINE",
"62 0 LINE"
);
}
);
width = 1155;
},
{
anchors = (
{
name = bottom;
position = "{515, 0}";
},
{
name = caron;
position = "{696, 1446}";
},
{
name = top;
position = "{391, 1446}";
}
);
layerId = "91AB5BCA-6A50-42DA-B2F7-8181BF189245";
paths = (
{
closed = 1;
nodes = (
"905 0 LINE",
"917 86 LINE",
"237 86 LINE",
"429 1446 LINE",
"351 1446 LINE",
"147 0 LINE"
);
}
);
width = 1093;
}
);
leftKerningGroup = N;
leftMetricsKey = H;
rightKerningGroup = L;
rightMetricsKey = X;
unicode = 004C;
},
{
color = 3;
glyphname = Lslash;
layers = (
{
components = (
{
name = L;
transform = "{1, 0, 0, 1, 88, 0}";
}
);
layerId = "258ED206-D907-4350-8EBA-CBDDA1C16BF7";
paths = (
{
closed = 1;
nodes = (
"922 786 LINE",
"922 1088 LINE",
"48 856 LINE",
"48 538 LINE"
);
}
);
width = 1243;
},
{
components = (
{
name = L;
transform = "{1, 0, 0, 1, 18, 0}";
}
);
layerId = "91AB5BCA-6A50-42DA-B2F7-8181BF189245";
paths = (
{
closed = 1;
nodes = (
"661 784 LINE",
"661 856 LINE",
"87 710 LINE",
"87 634 LINE"
);
}
);
width = 1111;
}
);
leftKerningGroup = N;
rightKerningGroup = L;
rightMetricsKey = L;
unicode = 0141;
},
{
color = 6;
glyphname = M;
layers = (
{
layerId = "258ED206-D907-4350-8EBA-CBDDA1C16BF7";
paths = (
{
closed = 1;
nodes = (
"449 0 LINE",
"608 1048 LINE",
"730 0 LINE",
"1009 0 LINE",
"1447 1048 LINE",
"1289 0 LINE",
"1677 0 LINE",
"1894 1446 LINE",
"1323 1446 LINE",
"955 564 LINE",
"856 1446 LINE",
"281 1446 LINE",
"62 0 LINE"
);
}
);
width = 1898;
},
{
layerId = "91AB5BCA-6A50-42DA-B2F7-8181BF189245";
paths = (
{
closed = 1;
nodes = (
"227 0 LINE",
"399 1216 LINE",
"675 0 LINE",
"781 0 LINE",
"1407 1232 LINE",
"1233 0 LINE",
"1313 0 LINE",
"1515 1446 LINE",
"1437 1446 LINE",
"739 88 LINE",
"433 1446 LINE",
"351 1446 LINE",
"149 0 LINE"
);
}
);
width = 1606;
}
);
leftKerningGroup = N;
leftMetricsKey = "=H";
rightKerningGroup = N;
rightMetricsKey = H;
unicode = 004D;
},
{
color = 6;
glyphname = N;
layers = (
{
anchors = (
{
name = bottom;
position = "{730, 0}";
},
{
name = top;
position = "{951, 1446}";
}
);
layerId = "258ED206-D907-4350-8EBA-CBDDA1C16BF7";
paths = (
{
closed = 1;
nodes = (
"451 0 LINE",
"581 862 LINE",
"1051 0 LINE",
"1400 0 LINE",
"1621 1446 LINE",
"1232 1446 LINE",
"1111 640 LINE",
"673 1446 LINE",
"283 1446 LINE",
"62 0 LINE"
);
}
);
width = 1625;
},
{
anchors = (
{
name = bottom;
position = "{569, 0}";
},
{
name = top;
position = "{817, 1446}";
}
);
layerId = "91AB5BCA-6A50-42DA-B2F7-8181BF189245";
paths = (
{
closed = 1;
nodes = (
"219 0 LINE",
"401 1286 LINE",
"1017 0 LINE",
"1079 0 LINE",
"1283 1446 LINE",
"1211 1446 LINE",
"1029 156 LINE",
"409 1446 LINE",
"351 1446 LINE",
"147 0 LINE"
);
}
);
width = 1372;
}
);
leftKerningGroup = N;
leftMetricsKey = H;
rightKerningGroup = N;
rightMetricsKey = H;
unicode = 004E;
},
{
color = 6;
glyphname = Eng;
layers = (
{
anchors = (
{
name = bottom;
position = "{730, 0}";
},
{
name = top;
position = "{951, 1446}";
}
);
layerId = "258ED206-D907-4350-8EBA-CBDDA1C16BF7";
paths = (
{
closed = 1;
nodes = (
"1221 -480 OFFCURVE",
"1346 -356 OFFCURVE",
"1400 0 CURVE SMOOTH",
"1621 1446 LINE",
"1232 1446 LINE",
"1111 640 LINE",
"673 1446 LINE",
"283 1446 LINE",
"62 0 LINE",
"451 0 LINE",
"581 862 LINE",
"1020 57 LINE",
"1016 32 LINE SMOOTH",
"999 -74 OFFCURVE",
"939 -120 OFFCURVE",
"823 -120 CURVE SMOOTH",
"781 -120 OFFCURVE",
"733 -114 OFFCURVE",
"697 -110 CURVE",
"645 -460 LINE",
"703 -472 OFFCURVE",
"821 -480 OFFCURVE",
"901 -480 CURVE SMOOTH"
);
}
);
width = 1625;
},
{
anchors = (
{
name = bottom;
position = "{569, 0}";
},
{
name = top;
position = "{817, 1446}";
}
);
layerId = "91AB5BCA-6A50-42DA-B2F7-8181BF189245";
paths = (
{
closed = 1;
nodes = (
"961 -480 OFFCURVE",
"1027 -364 OFFCURVE",
"1053 -180 CURVE SMOOTH",
"1283 1446 LINE",
"1211 1446 LINE",
"1029 156 LINE",
"409 1446 LINE",
"351 1446 LINE",
"147 0 LINE",
"219 0 LINE",
"401 1286 LINE",
"1011 13 LINE",
"987 -152 LINE SMOOTH",
"961 -334 OFFCURVE",
"911 -398 OFFCURVE",
"795 -398 CURVE SMOOTH",
"711 -398 OFFCURVE",
"653 -363 OFFCURVE",
"621 -343 CURVE",
"593 -422 LINE",
"605 -434 OFFCURVE",
"683 -480 OFFCURVE",
"787 -480 CURVE SMOOTH"
);
}
);
width = 1372;
}
);
leftKerningGroup = N;
leftMetricsKey = N;
rightKerningGroup = N;
rightMetricsKey = N;
unicode = 014A;
},
{
color = 6;
glyphname = O;
layers = (
{
anchors = (
{
name = bottom;
position = "{704, 0}";
},
{
name = horn;
position = "{1354, 1094}";
},
{
name = ogonek;
position = "{885, 20}";
},
{
name = top;
position = "{902, 1446}";
}
);
layerId = "258ED206-D907-4350-8EBA-CBDDA1C16BF7";
paths = (
{
closed = 1;
nodes = (
"1122 -20 OFFCURVE",
"1438 272 OFFCURVE",
"1507 720 CURVE SMOOTH",
"1574 1172 OFFCURVE",
"1343 1466 OFFCURVE",
"925 1466 CURVE SMOOTH",
"507 1466 OFFCURVE",
"183 1172 OFFCURVE",
"114 720 CURVE SMOOTH",
"46 270 OFFCURVE",
"272 -20 OFFCURVE",
"700 -20 CURVE SMOOTH"
);
},
{
closed = 1;
nodes = (
"588 292 OFFCURVE",
"488 402 OFFCURVE",
"534 714 CURVE SMOOTH",
"584 1036 OFFCURVE",
"719 1154 OFFCURVE",
"878 1154 CURVE SMOOTH",
"1036 1154 OFFCURVE",
"1135 1036 OFFCURVE",
"1084 714 CURVE SMOOTH",
"1038 402 OFFCURVE",
"906 292 OFFCURVE",
"746 292 CURVE SMOOTH"
);
}
);
width = 1564;
},
{
anchors = (
{
name = bottom;
position = "{597, 0}";
},
{
name = horn;
position = "{1113, 1212}";
},
{
name = ogonek;
position = "{726, 18}";
},
{
name = top;
position = "{801, 1446}";
}
);
layerId = "91AB5BCA-6A50-42DA-B2F7-8181BF189245";
paths = (
{
closed = 1;
nodes = (
"927 -20 OFFCURVE",
"1165 238 OFFCURVE",
"1233 720 CURVE SMOOTH",
"1301 1206 OFFCURVE",
"1137 1466 OFFCURVE",
"801 1466 CURVE SMOOTH",
"463 1466 OFFCURVE",
"221 1204 OFFCURVE",
"153 716 CURVE SMOOTH",
"85 236 OFFCURVE",
"251 -20 OFFCURVE",
"591 -20 CURVE SMOOTH"
);
},
{
closed = 1;
nodes = (
"307 62 OFFCURVE",
"173 278 OFFCURVE",
"235 720 CURVE SMOOTH",
"297 1164 OFFCURVE",
"493 1384 OFFCURVE",
"789 1384 CURVE SMOOTH",
"1085 1384 OFFCURVE",
"1215 1166 OFFCURVE",
"1153 720 CURVE SMOOTH",
"1091 276 OFFCURVE",
"901 62 OFFCURVE",
"605 62 CURVE SMOOTH"
);
}
);
width = 1329;
}
);
leftKerningGroup = O;
rightKerningGroup = O;
unicode = 004F;
},
{
color = 6;
glyphname = Ohorn;
layers = (
{
anchors = (
{
name = bottom;
position = "{597, 0}";
},
{
name = horn;
position = "{1113, 1212}";
},
{
name = ogonek;
position = "{726, 18}";
},
{
name = top;
position = "{801, 1446}";
},
{
name = topright;
position = "{1276, 1292}";
}
);
layerId = "91AB5BCA-6A50-42DA-B2F7-8181BF189245";
paths = (
{
closed = 1;
nodes = (
"927 -20 OFFCURVE",
"1165 238 OFFCURVE",
"1233 720 CURVE SMOOTH",
"1262 924 OFFCURVE",
"1249 1088 OFFCURVE",
"1200 1210 CURVE",
"1324 1216 OFFCURVE",
"1397 1302 OFFCURVE",
"1420 1470 CURVE",
"1333 1470 LINE",
"1309 1326 OFFCURVE",
"1262 1284 OFFCURVE",
"1163 1285 CURVE",
"1087 1404 OFFCURVE",
"965 1466 OFFCURVE",
"801 1466 CURVE SMOOTH",
"463 1466 OFFCURVE",
"221 1204 OFFCURVE",
"153 716 CURVE SMOOTH",
"85 236 OFFCURVE",
"251 -20 OFFCURVE",
"591 -20 CURVE SMOOTH"
);
},
{
closed = 1;
nodes = (
"307 62 OFFCURVE",
"173 278 OFFCURVE",
"235 720 CURVE SMOOTH",
"297 1164 OFFCURVE",
"493 1384 OFFCURVE",
"789 1384 CURVE SMOOTH",
"1085 1384 OFFCURVE",
"1215 1166 OFFCURVE",
"1153 720 CURVE SMOOTH",
"1091 276 OFFCURVE",
"901 62 OFFCURVE",
"605 62 CURVE SMOOTH"
);
}
);
width = 1419;
},
{
anchors = (
{
name = bottom;
position = "{704, 0}";
},
{
name = horn;
position = "{1354, 1094}";
},
{
name = ogonek;
position = "{885, 20}";
},
{
name = top;
position = "{902, 1446}";
},
{
name = topright;
position = "{1569, 1274}";
}
);
layerId = "258ED206-D907-4350-8EBA-CBDDA1C16BF7";
paths = (
{
closed = 1;
nodes = (
"1122 -20 OFFCURVE",
"1438 272 OFFCURVE",
"1507 720 CURVE SMOOTH",
"1528 858 OFFCURVE",
"1520 982 OFFCURVE",
"1488 1087 CURVE",
"1715 1098 OFFCURVE",
"1794 1221 OFFCURVE",
"1839 1492 CURVE",
"1605 1492 LINE",
"1554 1274 OFFCURVE",
"1507 1269 OFFCURVE",
"1391 1271 CURVE",
"1289 1396 OFFCURVE",
"1129 1466 OFFCURVE",
"925 1466 CURVE SMOOTH",
"507 1466 OFFCURVE",
"183 1172 OFFCURVE",
"114 720 CURVE SMOOTH",
"46 270 OFFCURVE",
"272 -20 OFFCURVE",
"700 -20 CURVE SMOOTH"
);
},
{
closed = 1;
nodes = (
"588 292 OFFCURVE",
"488 402 OFFCURVE",
"534 714 CURVE SMOOTH",
"584 1036 OFFCURVE",
"719 1154 OFFCURVE",
"878 1154 CURVE SMOOTH",
"1036 1154 OFFCURVE",
"1135 1036 OFFCURVE",
"1084 714 CURVE SMOOTH",
"1038 402 OFFCURVE",
"906 292 OFFCURVE",
"746 292 CURVE SMOOTH"
);
}
);
width = 1732;
}
);
leftKerningGroup = O;
leftMetricsKey = O;
rightKerningGroup = Ohorn;
unicode = 01A0;
},
{
color = 3;
glyphname = Oogonek;
layers = (
{
anchors = (
{
name = _ogonek;
position = "{885, 20}";
}
);
components = (
{
name = O;
}
);
layerId = "258ED206-D907-4350-8EBA-CBDDA1C16BF7";
paths = (
{
closed = 1;
nodes = (
"763 -340 OFFCURVE",
"859 -312 OFFCURVE",
"903 -286 CURVE",
"927 -122 LINE",
"875 -150 OFFCURVE",
"833 -172 OFFCURVE",
"775 -172 CURVE SMOOTH",
"739 -172 OFFCURVE",
"725 -154 OFFCURVE",
"729 -116 CURVE SMOOTH",
"737 -72 OFFCURVE",
"775 -36 OFFCURVE",
"929 12 CURVE",
"663 12 LINE",
"505 -42 OFFCURVE",
"465 -104 OFFCURVE",
"455 -170 CURVE SMOOTH",
"437 -286 OFFCURVE",
"523 -340 OFFCURVE",
"665 -340 CURVE SMOOTH"
);
}
);
width = 1564;
},
{
anchors = (
{
name = _ogonek;
position = "{726, 18}";
}
);
components = (
{
name = O;
}
);
layerId = "91AB5BCA-6A50-42DA-B2F7-8181BF189245";
paths = (
{
closed = 1;
nodes = (
"654 -334 OFFCURVE",
"714 -316 OFFCURVE",
"744 -300 CURVE",
"754 -238 LINE",
"736 -248 OFFCURVE",
"680 -268 OFFCURVE",
"618 -268 CURVE SMOOTH",
"544 -268 OFFCURVE",
"520 -240 OFFCURVE",
"526 -186 CURVE SMOOTH",
"538 -110 OFFCURVE",
"606 -62 OFFCURVE",
"734 -2 CURVE",
"674 16 LINE",
"518 -32 OFFCURVE",
"460 -96 OFFCURVE",
"448 -182 CURVE SMOOTH",
"436 -270 OFFCURVE",
"476 -334 OFFCURVE",
"591 -334 CURVE SMOOTH"
);
}
);
width = 1329;
}
);
leftKerningGroup = O;
rightKerningGroup = O;
unicode = 01EA;
},
{
color = 6;
glyphname = Oslash;
layers = (
{
anchors = (
{
name = top;
position = "{928, 1446}";
}
);
layerId = "258ED206-D907-4350-8EBA-CBDDA1C16BF7";
paths = (
{
closed = 1;
nodes = (
"284 122 LINE",
"386 32 OFFCURVE",
"528 -20 OFFCURVE",
"708 -20 CURVE SMOOTH",
"1130 -20 OFFCURVE",
"1446 272 OFFCURVE",
"1514 720 CURVE SMOOTH",
"1538 884 OFFCURVE",
"1524 1026 OFFCURVE",
"1474 1140 CURVE",
"1672 1312 LINE",
"1546 1472 LINE",
"1358 1314 LINE",
"1258 1412 OFFCURVE",
"1114 1466 OFFCURVE",
"932 1466 CURVE SMOOTH",
"512 1466 OFFCURVE",
"190 1172 OFFCURVE",
"122 720 CURVE SMOOTH",
"96 552 OFFCURVE",
"112 408 OFFCURVE",
"162 292 CURVE",
"-24 134 LINE",
"106 -28 LINE"
);
},
{
closed = 1;
nodes = (
"668 284 OFFCURVE",
"614 314 OFFCURVE",
"586 380 CURVE",
"1062 790 LINE",
"1044 670 OFFCURVE",
"1024 576 OFFCURVE",
"998 502 CURVE SMOOTH",
"944 348 OFFCURVE",
"866 284 OFFCURVE",
"754 284 CURVE SMOOTH"
);
},
{
closed = 1;
nodes = (
"586 740 OFFCURVE",
"603 824 OFFCURVE",
"626 894 CURVE SMOOTH",
"682 1084 OFFCURVE",
"764 1166 OFFCURVE",
"888 1166 CURVE SMOOTH",
"972 1166 OFFCURVE",
"1028 1132 OFFCURVE",
"1052 1052 CURVE",
"572 640 LINE"
);
}
);
width = 1600;
},
{
anchors = (
{
name = top;
position = "{805, 1446}";
}
);
layerId = "91AB5BCA-6A50-42DA-B2F7-8181BF189245";
paths = (
{
closed = 1;
nodes = (
"233 158 LINE",
"307 40 OFFCURVE",
"431 -20 OFFCURVE",
"597 -20 CURVE SMOOTH",
"933 -20 OFFCURVE",
"1175 238 OFFCURVE",
"1241 720 CURVE SMOOTH",
"1269 920 OFFCURVE",
"1257 1082 OFFCURVE",
"1211 1204 CURVE",
"1401 1408 LINE",
"1343 1470 LINE",
"1171 1286 LINE",
"1093 1404 OFFCURVE",
"971 1466 OFFCURVE",
"807 1466 CURVE SMOOTH",
"471 1466 OFFCURVE",
"229 1204 OFFCURVE",
"161 716 CURVE SMOOTH",
"133 518 OFFCURVE",
"143 358 OFFCURVE",
"191 240 CURVE",
"3 38 LINE",
"59 -26 LINE"
);
},
{
closed = 1;
nodes = (
"463 64 OFFCURVE",
"359 118 OFFCURVE",
"297 228 CURVE",
"1141 1132 LINE",
"1171 1026 OFFCURVE",
"1173 890 OFFCURVE",
"1149 720 CURVE SMOOTH",
"1087 276 OFFCURVE",
"909 64 OFFCURVE",
"613 64 CURVE SMOOTH"
);
},
{
closed = 1;
nodes = (
"231 418 OFFCURVE",
"229 552 OFFCURVE",
"251 720 CURVE SMOOTH",
"315 1164 OFFCURVE",
"499 1382 OFFCURVE",
"795 1382 CURVE SMOOTH",
"943 1382 OFFCURVE",
"1045 1328 OFFCURVE",
"1105 1218 CURVE",
"261 314 LINE"
);
}
);
width = 1346;
}
);
leftKerningGroup = Oslash;
rightKerningGroup = Oslash;
unicode = 00D8;
},
{
color = 6;
glyphname = OE;
layers = (
{
anchors = (
{
name = top;
position = "{1322, 1446}";
}
);
layerId = "258ED206-D907-4350-8EBA-CBDDA1C16BF7";
paths = (
{
closed = 1;
nodes = (
"1232 1446 LINE",
"1225 1402 LINE",
"1141 1444 OFFCURVE",
"1040 1466 OFFCURVE",
"925 1466 CURVE SMOOTH",
"507 1466 OFFCURVE",
"183 1172 OFFCURVE",
"114 720 CURVE SMOOTH",
"46 270 OFFCURVE",
"272 -20 OFFCURVE",
"700 -20 CURVE SMOOTH",
"815 -20 OFFCURVE",
"921 2 OFFCURVE",
"1017 42 CURVE",
"1011 0 LINE",
"2074 0 LINE",
"2124 324 LINE",
"1448 324 LINE",
"1486 570 LINE",
"2048 570 LINE",
"2095 884 LINE",
"1536 884 LINE",
"1572 1124 LINE",
"2242 1124 LINE",
"2292 1446 LINE"
);
},
{
closed = 1;
nodes = (
"588 292 OFFCURVE",
"488 402 OFFCURVE",
"534 714 CURVE SMOOTH",
"584 1036 OFFCURVE",
"719 1154 OFFCURVE",
"878 1154 CURVE SMOOTH",
"1036 1154 OFFCURVE",
"1135 1036 OFFCURVE",
"1084 714 CURVE SMOOTH",
"1038 402 OFFCURVE",
"906 292 OFFCURVE",
"746 292 CURVE SMOOTH"
);
}
);
width = 2251;
},
{
anchors = (
{
name = top;
position = "{1241, 1446}";
}
);
layerId = "91AB5BCA-6A50-42DA-B2F7-8181BF189245";
paths = (
{
closed = 1;
nodes = (
"1275 1446 LINE",
"1229 1117 LINE",
"1178 1346 OFFCURVE",
"1029 1466 OFFCURVE",
"801 1466 CURVE SMOOTH",
"463 1466 OFFCURVE",
"221 1204 OFFCURVE",
"153 716 CURVE SMOOTH",
"85 236 OFFCURVE",
"251 -20 OFFCURVE",
"591 -20 CURVE SMOOTH",
"819 -20 OFFCURVE",
"1002 99 OFFCURVE",
"1117 325 CURVE",
"1071 0 LINE",
"1861 0 LINE",
"1873 82 LINE",
"1155 84 LINE",
"1241 690 LINE",
"1885 690 LINE",
"1895 772 LINE",
"1251 772 LINE",
"1335 1366 LINE",
"2027 1366 LINE",
"2039 1446 LINE"
);
},
{
closed = 1;
nodes = (
"307 62 OFFCURVE",
"173 278 OFFCURVE",
"235 720 CURVE SMOOTH",
"297 1164 OFFCURVE",
"493 1384 OFFCURVE",
"789 1384 CURVE SMOOTH",
"1085 1384 OFFCURVE",
"1215 1166 OFFCURVE",
"1153 720 CURVE SMOOTH",
"1091 276 OFFCURVE",
"901 62 OFFCURVE",
"605 62 CURVE SMOOTH"
);
}
);
width = 2074;
}
);
leftKerningGroup = O;
leftMetricsKey = O;
rightKerningGroup = E;
rightMetricsKey = E;
unicode = 0152;
},
{
color = 6;
glyphname = P;
layers = (
{
layerId = "258ED206-D907-4350-8EBA-CBDDA1C16BF7";
rightMetricsKey = "=X*2";
paths = (
{
closed = 1;
nodes = (
"451 0 LINE",
"527 498 LINE",
"757 498 LINE SMOOTH",
"1073 498 OFFCURVE",
"1297 670 OFFCURVE",
"1341 956 CURVE SMOOTH",
"1389 1270 OFFCURVE",
"1169 1446 OFFCURVE",
"851 1446 CURVE SMOOTH",
"283 1446 LINE",
"62 0 LINE"
);
},
{
closed = 1;
nodes = (
"623 1158 LINE",
"845 1158 LINE SMOOTH",
"931 1158 OFFCURVE",
"1003 1076 OFFCURVE",
"989 976 CURVE SMOOTH",
"975 882 OFFCURVE",
"887 788 OFFCURVE",
"789 788 CURVE SMOOTH",
"566 788 LINE"
);
}
);
width = 1339;
},
{
layerId = "91AB5BCA-6A50-42DA-B2F7-8181BF189245";
rightMetricsKey = "=X/2";
paths = (
{
closed = 1;
nodes = (
"227 0 LINE",
"305 554 LINE",
"646 554 LINE SMOOTH",
"919 554 OFFCURVE",
"1137 716 OFFCURVE",
"1179 1006 CURVE SMOOTH",
"1219 1296 OFFCURVE",
"1041 1446 OFFCURVE",
"761 1446 CURVE SMOOTH",
"351 1446 LINE",
"149 0 LINE"
);
},
{
closed = 1;
nodes = (
"419 1362 LINE",
"747 1362 LINE SMOOTH",
"991 1362 OFFCURVE",
"1131 1252 OFFCURVE",
"1099 1012 CURVE SMOOTH",
"1065 772 OFFCURVE",
"889 640 OFFCURVE",
"659 640 CURVE SMOOTH",
"317 640 LINE"
);
}
);
width = 1168;
}
);
leftKerningGroup = N;
leftMetricsKey = H;
rightKerningGroup = P;
rightMetricsKey = "=O";
unicode = 0050;
},
{
color = 6;
glyphname = Thorn;
layers = (
{
layerId = "258ED206-D907-4350-8EBA-CBDDA1C16BF7";
paths = (
{
closed = 1;
nodes = (
"450 0 LINE",
"489 276 LINE",
"753 276 LINE SMOOTH",
"1083 276 OFFCURVE",
"1345 444 OFFCURVE",
"1385 727 CURVE SMOOTH",
"1427 1032 OFFCURVE",
"1211 1186 OFFCURVE",
"881 1186 CURVE SMOOTH",
"617 1186 LINE",
"654 1446 LINE",
"266 1446 LINE",
"62 0 LINE"
);
},
{
closed = 1;
nodes = (
"573 875 LINE",
"837 874 LINE SMOOTH",
"902 874 OFFCURVE",
"991 817 OFFCURVE",
"979 727 CURVE SMOOTH",
"966 637 OFFCURVE",
"862 588 OFFCURVE",
"797 588 CURVE SMOOTH",
"533 588 LINE"
);
}
);
width = 1415;
},
{
layerId = "91AB5BCA-6A50-42DA-B2F7-8181BF189245";
paths = (
{
closed = 1;
nodes = (
"228 0 LINE",
"278 354 LINE",
"622 354 LINE SMOOTH",
"894 354 OFFCURVE",
"1108 466 OFFCURVE",
"1149 760 CURVE SMOOTH",
"1186 1018 OFFCURVE",
"1003 1130 OFFCURVE",
"720 1130 CURVE SMOOTH",
"387 1130 LINE",
"431 1446 LINE",
"351 1446 LINE",
"148 0 LINE"
);
},
{
closed = 1;
nodes = (
"375 1048 LINE",
"707 1048 LINE SMOOTH",
"951 1048 OFFCURVE",
"1104 976 OFFCURVE",
"1073 760 CURVE SMOOTH",
"1040 522 OFFCURVE",
"865 436 OFFCURVE",
"634 436 CURVE SMOOTH",
"289 436 LINE"
);
}
);
width = 1173;
}
);
leftKerningGroup = N;
leftMetricsKey = P;
rightKerningGroup = P;
rightMetricsKey = P;
unicode = 00DE;
},
{
color = 6;
glyphname = Q;
layers = (
{
layerId = "258ED206-D907-4350-8EBA-CBDDA1C16BF7";
rightMetricsKey = "=O*1.25";
paths = (
{
closed = 1;
nodes = (
"1406 54 LINE",
"1309 54 OFFCURVE",
"1227 104 OFFCURVE",
"1221 160 CURVE",
"1370 300 OFFCURVE",
"1473 486 OFFCURVE",
"1509 720 CURVE SMOOTH",
"1576 1172 OFFCURVE",
"1345 1466 OFFCURVE",
"925 1466 CURVE SMOOTH",
"507 1466 OFFCURVE",
"183 1172 OFFCURVE",
"114 720 CURVE SMOOTH",
"46 270 OFFCURVE",
"272 -20 OFFCURVE",
"700 -20 CURVE SMOOTH",
"750 -20 OFFCURVE",
"790 -18 OFFCURVE",
"860 -10 CURVE",
"998 -226 OFFCURVE",
"1130 -250 OFFCURVE",
"1360 -250 CURVE"
);
},
{
closed = 1;
nodes = (
"576 292 OFFCURVE",
"490 402 OFFCURVE",
"536 716 CURVE SMOOTH",
"586 1038 OFFCURVE",
"710 1154 OFFCURVE",
"878 1154 CURVE SMOOTH",
"1044 1154 OFFCURVE",
"1135 1038 OFFCURVE",
"1086 716 CURVE SMOOTH",
"1038 402 OFFCURVE",
"918 292 OFFCURVE",
"746 292 CURVE SMOOTH"
);
}
);
width = 1587;
},
{
layerId = "91AB5BCA-6A50-42DA-B2F7-8181BF189245";
rightMetricsKey = "=O*1.25";
paths = (
{
closed = 1;
nodes = (
"1094 -158 LINE",
"978 -152 OFFCURVE",
"882 -100 OFFCURVE",
"840 36 CURVE",
"1072 158 OFFCURVE",
"1188 388 OFFCURVE",
"1234 720 CURVE SMOOTH",
"1302 1210 OFFCURVE",
"1136 1466 OFFCURVE",
"800 1466 CURVE SMOOTH",
"462 1466 OFFCURVE",
"222 1210 OFFCURVE",
"154 720 CURVE SMOOTH",
"84 226 OFFCURVE",
"262 -20 OFFCURVE",
"590 -20 CURVE SMOOTH",
"642 -20 OFFCURVE",
"694 -12 OFFCURVE",
"756 2 CURVE",
"822 -196 OFFCURVE",
"994 -238 OFFCURVE",
"1082 -238 CURVE"
);
},
{
closed = 1;
nodes = (
"308 62 OFFCURVE",
"172 274 OFFCURVE",
"234 716 CURVE SMOOTH",
"296 1154 OFFCURVE",
"488 1384 OFFCURVE",
"788 1384 CURVE SMOOTH",
"1088 1384 OFFCURVE",
"1216 1154 OFFCURVE",
"1154 720 CURVE SMOOTH",
"1092 274 OFFCURVE",
"896 62 OFFCURVE",
"603 62 CURVE SMOOTH"
);
}
);
width = 1361;
}
);
leftKerningGroup = O;
leftMetricsKey = O;
rightKerningGroup = O;
rightMetricsKey = "=O*1.25";
unicode = 0051;
},
{
color = 6;
glyphname = R;
layers = (
{
anchors = (
{
name = bottom;
position = "{643, 0}";
},
{
name = top;
position = "{843, 1446}";
}
);
layerId = "258ED206-D907-4350-8EBA-CBDDA1C16BF7";
rightMetricsKey = "=H/1.5";
paths = (
{
closed = 1;
nodes = (
"449 0 LINE",
"524 498 LINE",
"728 498 LINE",
"861 0 LINE",
"1257 0 LINE",
"1089 560 LINE",
"1234 642 OFFCURVE",
"1347 758 OFFCURVE",
"1381 980 CURVE SMOOTH",
"1421 1242 OFFCURVE",
"1307 1446 OFFCURVE",
"933 1446 CURVE SMOOTH",
"281 1446 LINE",
"62 0 LINE"
);
},
{
closed = 1;
nodes = (
"625 1158 LINE",
"847 1158 LINE SMOOTH",
"933 1158 OFFCURVE",
"1007 1076 OFFCURVE",
"991 976 CURVE SMOOTH",
"977 882 OFFCURVE",
"889 788 OFFCURVE",
"791 788 CURVE SMOOTH",
"569 788 LINE"
);
}
);
width = 1420;
},
{
anchors = (
{
name = bottom;
position = "{545, 0}";
},
{
name = top;
position = "{735, 1446}";
}
);
layerId = "91AB5BCA-6A50-42DA-B2F7-8181BF189245";
paths = (
{
closed = 1;
nodes = (
"219 0 LINE",
"317 688 LINE",
"763 688 LINE",
"935 0 LINE",
"1017 0 LINE",
"841 706 LINE",
"975 742 OFFCURVE",
"1145 846 OFFCURVE",
"1179 1088 CURVE SMOOTH",
"1211 1326 OFFCURVE",
"1077 1446 OFFCURVE",
"819 1446 CURVE SMOOTH",
"351 1446 LINE",
"147 0 LINE"
);
},
{
closed = 1;
nodes = (
"411 1366 LINE",
"807 1366 LINE SMOOTH",
"1025 1366 OFFCURVE",
"1127 1280 OFFCURVE",
"1099 1074 CURVE SMOOTH",
"1069 856 OFFCURVE",
"919 770 OFFCURVE",
"663 770 CURVE SMOOTH",
"327 770 LINE"
);
}
);
width = 1244;
}
);
leftKerningGroup = N;
leftMetricsKey = H;
rightKerningGroup = R;
rightMetricsKey = "=X+30";
unicode = 0052;
},
{
color = 6;
glyphname = S;
layers = (
{
anchors = (
{
name = bottom;
position = "{650, 0}";
},
{
name = top;
position = "{870, 1446}";
}
);
layerId = "258ED206-D907-4350-8EBA-CBDDA1C16BF7";
leftMetricsKey = "=O";
rightMetricsKey = "=O/1.1";
paths = (
{
closed = 1;
nodes = (
"1015 -20 OFFCURVE",
"1312 164 OFFCURVE",
"1349 410 CURVE SMOOTH",
"1370 554 OFFCURVE",
"1385 814 OFFCURVE",
"978 886 CURVE SMOOTH",
"761 924 LINE SMOOTH",
"639 946 OFFCURVE",
"612 984 OFFCURVE",
"622 1050 CURVE SMOOTH",
"630 1102 OFFCURVE",
"685 1164 OFFCURVE",
"836 1164 CURVE SMOOTH",
"971 1164 OFFCURVE",
"1044 1120 OFFCURVE",
"1038 1008 CURVE",
"1431 1008 LINE",
"1440 1246 OFFCURVE",
"1225 1464 OFFCURVE",
"872 1464 CURVE SMOOTH",
"542 1464 OFFCURVE",
"242 1294 OFFCURVE",
"200 1002 CURVE SMOOTH",
"168 756 OFFCURVE",
"294 612 OFFCURVE",
"515 576 CURVE SMOOTH",
"732 538 LINE SMOOTH",
"851 518 OFFCURVE",
"967 498 OFFCURVE",
"954 410 CURVE SMOOTH",
"938 308 OFFCURVE",
"818 278 OFFCURVE",
"696 278 CURVE SMOOTH",
"562 278 OFFCURVE",
"482 338 OFFCURVE",
"476 440 CURVE",
"74 440 LINE",
"51 118 OFFCURVE",
"352 -20 OFFCURVE",
"654 -20 CURVE SMOOTH"
);
}
);
width = 1441;
},
{
anchors = (
{
name = bottom;
position = "{526, 0}";
},
{
name = top;
position = "{741, 1446}";
}
);
layerId = "91AB5BCA-6A50-42DA-B2F7-8181BF189245";
rightMetricsKey = "=O*1.2";
paths = (
{
closed = 1;
nodes = (
"865 -20 OFFCURVE",
"1042 150 OFFCURVE",
"1068 354 CURVE SMOOTH",
"1090 518 OFFCURVE",
"1036 672 OFFCURVE",
"837 731 CURVE SMOOTH",
"567 811 LINE SMOOTH",
"369 870 OFFCURVE",
"310 942 OFFCURVE",
"326 1066 CURVE SMOOTH",
"355 1286 OFFCURVE",
"569 1382 OFFCURVE",
"726 1382 CURVE SMOOTH",
"903 1382 OFFCURVE",
"1064 1304 OFFCURVE",
"1054 1064 CURVE",
"1136 1064 LINE",
"1162 1258 OFFCURVE",
"1037 1464 OFFCURVE",
"740 1464 CURVE SMOOTH",
"475 1464 OFFCURVE",
"278 1292 OFFCURVE",
"249 1064 CURVE SMOOTH",
"226 892 OFFCURVE",
"322 787 OFFCURVE",
"509 734 CURVE SMOOTH",
"791 654 LINE SMOOTH",
"952 608 OFFCURVE",
"1010 504 OFFCURVE",
"990 350 CURVE SMOOTH",
"968 180 OFFCURVE",
"793 58 OFFCURVE",
"564 58 CURVE SMOOTH",
"372 58 OFFCURVE",
"211 158 OFFCURVE",
"196 354 CURVE",
"115 354 LINE",
"123 112 OFFCURVE",
"313 -20 OFFCURVE",
"554 -20 CURVE SMOOTH"
);
}
);
width = 1241;
}
);
leftKerningGroup = S;
leftMetricsKey = "=O*1.1";
rightKerningGroup = S;
rightMetricsKey = "=O";
unicode = 0053;
},
{
color = 3;
glyphname = Scedilla;
layers = (
{
anchors = (
{
name = _bottom;
position = "{650, 0}";
}
);
components = (
{
name = S;
}
);
layerId = "258ED206-D907-4350-8EBA-CBDDA1C16BF7";
paths = (
{
closed = 1;
nodes = (
"730 -438 OFFCURVE",
"862 -372 OFFCURVE",
"878 -268 CURVE SMOOTH",
"888 -194 OFFCURVE",
"842 -104 OFFCURVE",
"680 -104 CURVE",
"738 10 LINE",
"582 10 LINE",
"482 -162 LINE SMOOTH",
"468 -184 OFFCURVE",
"478 -186 OFFCURVE",
"498 -186 CURVE SMOOTH",
"632 -186 OFFCURVE",
"670 -214 OFFCURVE",
"664 -262 CURVE SMOOTH",
"658 -294 OFFCURVE",
"618 -314 OFFCURVE",
"564 -314 CURVE SMOOTH",
"506 -314 OFFCURVE",
"446 -288 OFFCURVE",
"404 -262 CURVE",
"338 -380 LINE",
"408 -426 OFFCURVE",
"500 -438 OFFCURVE",
"594 -438 CURVE SMOOTH"
);
}
);
width = 1441;
},
{
anchors = (
{
name = _bottom;
position = "{526, 0}";
}
);
components = (
{
name = S;
}
);
layerId = "91AB5BCA-6A50-42DA-B2F7-8181BF189245";
paths = (
{
closed = 1;
nodes = (
"520 -398 OFFCURVE",
"608 -350 OFFCURVE",
"622 -252 CURVE SMOOTH",
"630 -190 OFFCURVE",
"608 -124 OFFCURVE",
"498 -114 CURVE",
"562 10 LINE",
"500 10 LINE",
"412 -154 LINE SMOOTH",
"408 -158 OFFCURVE",
"408 -162 OFFCURVE",
"418 -162 CURVE SMOOTH",
"510 -166 OFFCURVE",
"552 -194 OFFCURVE",
"542 -256 CURVE SMOOTH",
"534 -310 OFFCURVE",
"500 -340 OFFCURVE",
"424 -340 CURVE SMOOTH",
"368 -340 OFFCURVE",
"342 -322 OFFCURVE",
"320 -296 CURVE",
"292 -352 LINE",
"326 -382 OFFCURVE",
"368 -398 OFFCURVE",
"424 -398 CURVE SMOOTH"
);
}
);
width = 1241;
}
);
leftKerningGroup = S;
rightKerningGroup = S;
unicode = 015E;
},
{
color = 6;
glyphname = Schwa;
layers = (
{
layerId = "258ED206-D907-4350-8EBA-CBDDA1C16BF7";
paths = (
{
closed = 1;
nodes = (
"1103 -20 OFFCURVE",
"1439 218 OFFCURVE",
"1513 742 CURVE SMOOTH",
"1578 1208 OFFCURVE",
"1349 1466 OFFCURVE",
"911 1466 CURVE SMOOTH",
"486 1466 OFFCURVE",
"177 1172 OFFCURVE",
"143 932 CURVE",
"577 932 LINE",
"589 1015 OFFCURVE",
"702 1108 OFFCURVE",
"852 1108 CURVE SMOOTH",
"1002 1108 OFFCURVE",
"1083 1008 OFFCURVE",
"1058 828 CURVE",
"129 828 LINE",
"43 221 OFFCURVE",
"303 -20 OFFCURVE",
"703 -20 CURVE SMOOTH"
);
},
{
closed = 1;
nodes = (
"611 314 OFFCURVE",
"545 408 OFFCURVE",
"566 556 CURVE",
"1015 554 LINE",
"995 408 OFFCURVE",
"902 314 OFFCURVE",
"750 314 CURVE SMOOTH"
);
}
);
width = 1566;
},
{
layerId = "91AB5BCA-6A50-42DA-B2F7-8181BF189245";
paths = (
{
closed = 1;
nodes = (
"935 -20 OFFCURVE",
"1173 240 OFFCURVE",
"1240 720 CURVE SMOOTH",
"1305 1185 OFFCURVE",
"1144 1466 OFFCURVE",
"806 1466 CURVE SMOOTH",
"468 1466 OFFCURVE",
"219 1185 OFFCURVE",
"189 972 CURVE",
"278 972 LINE",
"303 1147 OFFCURVE",
"493 1382 OFFCURVE",
"794 1382 CURVE SMOOTH",
"1095 1382 OFFCURVE",
"1219 1146 OFFCURVE",
"1162 742 CURVE",
"160 742 LINE",
"89 238 OFFCURVE",
"259 -20 OFFCURVE",
"597 -20 CURVE SMOOTH"
);
},
{
closed = 1;
nodes = (
"308 64 OFFCURVE",
"188 320 OFFCURVE",
"235 660 CURVE",
"1150 660 LINE",
"1097 322 OFFCURVE",
"910 64 OFFCURVE",
"609 64 CURVE SMOOTH"
);
}
);
width = 1336;
}
);
leftKerningGroup = O;
leftMetricsKey = O;
rightKerningGroup = O;
rightMetricsKey = O;
unicode = 018F;
},
{
color = 6;
glyphname = T;
layers = (
{
anchors = (
{
name = bottom;
position = "{564, 0}";
},
{
name = top;
position = "{784, 1446}";
}
);
layerId = "258ED206-D907-4350-8EBA-CBDDA1C16BF7";
leftMetricsKey = "=X";
rightMetricsKey = "=X";
paths = (
{
closed = 1;
nodes = (
"738 0 LINE",
"906 1104 LINE",
"1318 1104 LINE",
"1370 1446 LINE",
"164 1446 LINE",
"112 1104 LINE",
"518 1104 LINE",
"352 0 LINE"
);
}
);
width = 1269;
},
{
anchors = (
{
name = bottom;
position = "{482, 4}";
},
{
name = top;
position = "{684, 1446}";
}
);
layerId = "91AB5BCA-6A50-42DA-B2F7-8181BF189245";
leftMetricsKey = "=X/2";
rightMetricsKey = "=X/2";
paths = (
{
closed = 1;
nodes = (
"514 0 LINE",
"706 1366 LINE",
"1127 1366 LINE",
"1136 1446 LINE",
"188 1446 LINE",
"178 1366 LINE",
"634 1366 LINE",
"442 0 LINE"
);
}
);
width = 1066;
}
);
leftKerningGroup = T;
leftMetricsKey = X;
rightKerningGroup = T;
rightMetricsKey = X;
unicode = 0054;
},
{
color = 3;
glyphname = Tbar;
layers = (
{
components = (
{
name = T;
}
);
layerId = "258ED206-D907-4350-8EBA-CBDDA1C16BF7";
paths = (
{
closed = 1;
nodes = (
"1052 548 LINE",
"1092 822 LINE",
"238 822 LINE",
"198 548 LINE"
);
}
);
width = 1269;
},
{
components = (
{
name = T;
}
);
layerId = "91AB5BCA-6A50-42DA-B2F7-8181BF189245";
paths = (
{
closed = 1;
nodes = (
"918 702 LINE",
"928 784 LINE",
"214 784 LINE",
"204 702 LINE"
);
}
);
width = 1066;
}
);
leftKerningGroup = T;
leftMetricsKey = T;
rightKerningGroup = T;
rightMetricsKey = T;
unicode = 0166;
},
{
color = 3;
glyphname = Tcedilla;
layers = (
{
anchors = (
{
name = _bottom;
position = "{564, 0}";
}
);
components = (
{
name = T;
}
);
layerId = "258ED206-D907-4350-8EBA-CBDDA1C16BF7";
paths = (
{
closed = 1;
nodes = (
"644 -438 OFFCURVE",
"776 -372 OFFCURVE",
"792 -268 CURVE SMOOTH",
"802 -194 OFFCURVE",
"756 -104 OFFCURVE",
"594 -104 CURVE",
"652 10 LINE",
"496 10 LINE",
"396 -162 LINE SMOOTH",
"382 -184 OFFCURVE",
"392 -186 OFFCURVE",
"412 -186 CURVE SMOOTH",
"546 -186 OFFCURVE",
"584 -214 OFFCURVE",
"578 -262 CURVE SMOOTH",
"572 -294 OFFCURVE",
"532 -314 OFFCURVE",
"478 -314 CURVE SMOOTH",
"420 -314 OFFCURVE",
"360 -288 OFFCURVE",
"318 -262 CURVE",
"252 -380 LINE",
"322 -426 OFFCURVE",
"414 -438 OFFCURVE",
"508 -438 CURVE SMOOTH"
);
}
);
width = 1269;
},
{
anchors = (
{
name = _bottom;
position = "{482, 4}";
}
);
components = (
{
name = T;
}
);
layerId = "91AB5BCA-6A50-42DA-B2F7-8181BF189245";
paths = (
{
closed = 1;
nodes = (
"476 -394 OFFCURVE",
"564 -346 OFFCURVE",
"578 -248 CURVE SMOOTH",
"586 -186 OFFCURVE",
"564 -120 OFFCURVE",
"454 -110 CURVE",
"518 14 LINE",
"456 14 LINE",
"368 -150 LINE SMOOTH",
"364 -154 OFFCURVE",
"364 -158 OFFCURVE",
"374 -158 CURVE SMOOTH",
"466 -162 OFFCURVE",
"508 -190 OFFCURVE",
"498 -252 CURVE SMOOTH",
"490 -306 OFFCURVE",
"456 -336 OFFCURVE",
"380 -336 CURVE SMOOTH",
"324 -336 OFFCURVE",
"298 -318 OFFCURVE",
"276 -292 CURVE",
"248 -348 LINE",
"282 -378 OFFCURVE",
"324 -394 OFFCURVE",
"380 -394 CURVE SMOOTH"
);
}
);
width = 1066;
}
);
leftKerningGroup = T;
rightKerningGroup = T;
unicode = 0162;
},
{
color = 6;
glyphname = U;
layers = (
{
anchors = (
{
name = bottom;
position = "{675, 0}";
},
{
name = horn;
position = "{1394, 1094}";
},
{
name = ogonek;
position = "{797, 0}";
},
{
name = top;
position = "{894, 1446}";
}
);
layerId = "258ED206-D907-4350-8EBA-CBDDA1C16BF7";
paths = (
{
closed = 1;
nodes = (
"1135 -20 OFFCURVE",
"1331 230 OFFCURVE",
"1387 598 CURVE SMOOTH",
"1515 1446 LINE",
"1123 1446 LINE",
"993 582 LINE SMOOTH",
"963 382 OFFCURVE",
"841 306 OFFCURVE",
"723 306 CURVE SMOOTH",
"601 306 OFFCURVE",
"504 382 OFFCURVE",
"535 582 CURVE SMOOTH",
"667 1446 LINE",
"274 1446 LINE",
"146 598 LINE SMOOTH",
"90 230 OFFCURVE",
"209 -20 OFFCURVE",
"673 -20 CURVE SMOOTH"
);
}
);
width = 1492;
},
{
anchors = (
{
name = bottom;
position = "{585, 4}";
},
{
name = horn;
position = "{1171, 1212}";
},
{
name = ogonek;
position = "{719, 18}";
},
{
name = top;
position = "{793, 1446}";
}
);
layerId = "91AB5BCA-6A50-42DA-B2F7-8181BF189245";
paths = (
{
closed = 1;
nodes = (
"881 -20 OFFCURVE",
"1047 134 OFFCURVE",
"1091 448 CURVE SMOOTH",
"1230 1446 LINE",
"1159 1446 LINE",
"1019 444 LINE SMOOTH",
"983 188 OFFCURVE",
"841 56 OFFCURVE",
"595 56 CURVE SMOOTH",
"351 56 OFFCURVE",
"253 192 OFFCURVE",
"289 444 CURVE SMOOTH",
"429 1446 LINE",
"351 1446 LINE",
"215 478 LINE SMOOTH",
"167 138 OFFCURVE",
"283 -20 OFFCURVE",
"585 -20 CURVE SMOOTH"
);
}
);
width = 1277;
}
);
leftKerningGroup = U;
leftMetricsKey = H;
rightKerningGroup = U;
rightMetricsKey = "=H/1.25";
unicode = 0055;
},
{
color = 6;
glyphname = Uhorn;
layers = (
{
anchors = (
{
name = bottom;
position = "{585, 4}";
},
{
name = horn;
position = "{1171, 1212}";
},
{
name = ogonek;
position = "{719, 18}";
},
{
name = top;
position = "{793, 1446}";
},
{
name = topright;
position = "{1298, 1291}";
}
);
layerId = "91AB5BCA-6A50-42DA-B2F7-8181BF189245";
paths = (
{
closed = 1;
nodes = (
"881 -20 OFFCURVE",
"1047 134 OFFCURVE",
"1091 448 CURVE SMOOTH",
"1197 1209 LINE",
"1336 1204 OFFCURVE",
"1418 1290 OFFCURVE",
"1442 1469 CURVE",
"1355 1469 LINE",
"1333 1336 OFFCURVE",
"1292 1290 OFFCURVE",
"1208 1285 CURVE",
"1230 1446 LINE",
"1159 1446 LINE",
"1019 444 LINE SMOOTH",
"983 188 OFFCURVE",
"841 56 OFFCURVE",
"595 56 CURVE SMOOTH",
"351 56 OFFCURVE",
"253 192 OFFCURVE",
"289 444 CURVE SMOOTH",
"429 1446 LINE",
"351 1446 LINE",
"215 478 LINE SMOOTH",
"167 138 OFFCURVE",
"283 -20 OFFCURVE",
"585 -20 CURVE SMOOTH"
);
}
);
width = 1424;
},
{
anchors = (
{
name = bottom;
position = "{675, 0}";
},
{
name = horn;
position = "{1394, 1094}";
},
{
name = ogonek;
position = "{837, 24}";
},
{
name = top;
position = "{894, 1446}";
},
{
name = topright;
position = "{1632, 1274}";
}
);
layerId = "258ED206-D907-4350-8EBA-CBDDA1C16BF7";
paths = (
{
closed = 1;
nodes = (
"1135 -20 OFFCURVE",
"1331 230 OFFCURVE",
"1387 598 CURVE SMOOTH",
"1461 1088 LINE",
"1758 1070 OFFCURVE",
"1852 1188 OFFCURVE",
"1902 1492 CURVE",
"1668 1492 LINE",
"1622 1297 OFFCURVE",
"1580 1273 OFFCURVE",
"1489 1271 CURVE",
"1515 1446 LINE",
"1123 1446 LINE",
"993 582 LINE SMOOTH",
"963 382 OFFCURVE",
"841 306 OFFCURVE",
"723 306 CURVE SMOOTH",
"601 306 OFFCURVE",
"505 382 OFFCURVE",
"535 582 CURVE SMOOTH",
"667 1446 LINE",
"274 1446 LINE",
"146 598 LINE SMOOTH",
"91 230 OFFCURVE",
"209 -20 OFFCURVE",
"673 -20 CURVE SMOOTH"
);
}
);
width = 1813;
}
);
leftKerningGroup = U;
leftMetricsKey = U;
rightKerningGroup = Uhorn;
rightMetricsKey = "=U-60";
unicode = 01AF;
},
{
color = 3;
glyphname = Uogonek;
layers = (
{
anchors = (
{
name = _ogonek;
position = "{797, 0}";
}
);
components = (
{
name = U;
}
);
layerId = "258ED206-D907-4350-8EBA-CBDDA1C16BF7";
paths = (
{
closed = 1;
nodes = (
"675 -360 OFFCURVE",
"771 -332 OFFCURVE",
"815 -306 CURVE",
"839 -142 LINE",
"787 -170 OFFCURVE",
"745 -192 OFFCURVE",
"687 -192 CURVE SMOOTH",
"651 -192 OFFCURVE",
"637 -174 OFFCURVE",
"641 -136 CURVE SMOOTH",
"649 -92 OFFCURVE",
"687 -56 OFFCURVE",
"841 -8 CURVE",
"575 -8 LINE",
"417 -62 OFFCURVE",
"377 -124 OFFCURVE",
"367 -190 CURVE SMOOTH",
"349 -306 OFFCURVE",
"435 -360 OFFCURVE",
"577 -360 CURVE SMOOTH"
);
}
);
width = 1492;
},
{
anchors = (
{
name = _ogonek;
position = "{719, 18}";
}
);
components = (
{
name = U;
}
);
layerId = "91AB5BCA-6A50-42DA-B2F7-8181BF189245";
paths = (
{
closed = 1;
nodes = (
"647 -334 OFFCURVE",
"707 -316 OFFCURVE",
"737 -300 CURVE",
"747 -238 LINE",
"729 -248 OFFCURVE",
"673 -268 OFFCURVE",
"611 -268 CURVE SMOOTH",
"537 -268 OFFCURVE",
"513 -240 OFFCURVE",
"519 -186 CURVE SMOOTH",
"531 -110 OFFCURVE",
"599 -62 OFFCURVE",
"727 -2 CURVE",
"667 16 LINE",
"511 -32 OFFCURVE",
"453 -96 OFFCURVE",
"441 -182 CURVE SMOOTH",
"429 -270 OFFCURVE",
"469 -334 OFFCURVE",
"584 -334 CURVE SMOOTH"
);
}
);
width = 1277;
}
);
leftKerningGroup = U;
rightKerningGroup = U;
unicode = 0172;
},
{
color = 6;
glyphname = V;
layers = (
{
layerId = "258ED206-D907-4350-8EBA-CBDDA1C16BF7";
paths = (
{
closed = 1;
nodes = (
"851 0 LINE",
"1557 1446 LINE",
"1190 1446 LINE",
"709 456 LINE",
"525 1446 LINE",
"161 1446 LINE",
"427 0 LINE"
);
}
);
width = 1456;
},
{
layerId = "91AB5BCA-6A50-42DA-B2F7-8181BF189245";
paths = (
{
closed = 1;
nodes = (
"562 0 LINE",
"1248 1446 LINE",
"1171 1446 LINE",
"520 82 LINE",
"266 1446 LINE",
"188 1446 LINE",
"456 0 LINE"
);
}
);
width = 1175;
}
);
leftKerningGroup = V;
leftMetricsKey = T;
rightKerningGroup = V;
rightMetricsKey = T;
unicode = 0056;
},
{
color = 6;
glyphname = W;
layers = (
{
anchors = (
{
name = top;
position = "{1106, 1446}";
}
);
layerId = "258ED206-D907-4350-8EBA-CBDDA1C16BF7";
paths = (
{
closed = 1;
nodes = (
"659 0 LINE",
"1007 786 LINE",
"1115 0 LINE",
"1403 0 LINE",
"2053 1446 LINE",
"1679 1446 LINE",
"1347 670 LINE",
"1241 1446 LINE",
"971 1446 LINE",
"639 670 LINE",
"535 1446 LINE",
"161 1446 LINE",
"375 0 LINE"
);
}
);
width = 1952;
},
{
anchors = (
{
name = top;
position = "{1002, 1446}";
}
);
layerId = "91AB5BCA-6A50-42DA-B2F7-8181BF189245";
leftMetricsKey = "=X/2";
rightMetricsKey = "=X/2";
paths = (
{
closed = 1;
nodes = (
"455 0 LINE",
"978 1296 LINE",
"1130 0 LINE",
"1229 0 LINE",
"1815 1446 LINE",
"1737 1446 LINE",
"1195 98 LINE",
"1035 1446 LINE",
"964 1446 LINE",
"422 98 LINE",
"271 1446 LINE",
"189 1446 LINE",
"359 0 LINE"
);
}
);
width = 1742;
}
);
leftKerningGroup = V;
leftMetricsKey = X;
rightKerningGroup = V;
rightMetricsKey = X;
unicode = 0057;
},
{
color = 6;
glyphname = X;
layers = (
{
layerId = "258ED206-D907-4350-8EBA-CBDDA1C16BF7";
paths = (
{
closed = 1;
nodes = (
"369 0 LINE",
"695 454 LINE",
"891 0 LINE",
"1373 0 LINE",
"987 786 LINE",
"1515 1446 LINE",
"1111 1446 LINE",
"831 1054 LINE",
"667 1446 LINE",
"189 1446 LINE",
"537 730 LINE",
"-43 0 LINE"
);
}
);
width = 1476;
},
{
layerId = "91AB5BCA-6A50-42DA-B2F7-8181BF189245";
paths = (
{
closed = 1;
nodes = (
"134 0 LINE",
"644 664 LINE",
"966 0 LINE",
"1059 0 LINE",
"700 742 LINE",
"1238 1446 LINE",
"1146 1446 LINE",
"664 816 LINE",
"362 1446 LINE",
"267 1446 LINE",
"606 742 LINE",
"42 0 LINE"
);
}
);
width = 1247;
}
);
leftKerningGroup = X;
rightKerningGroup = X;
unicode = 0058;
},
{
color = 6;
glyphname = Y;
layers = (
{
anchors = (
{
name = bottom;
position = "{627, 0}";
},
{
name = top;
position = "{829, 1446}";
}
);
layerId = "258ED206-D907-4350-8EBA-CBDDA1C16BF7";
leftMetricsKey = "=X/2";
rightMetricsKey = "=X/2";
paths = (
{
closed = 1;
nodes = (
"819 0 LINE",
"911 602 LINE",
"1552 1446 LINE",
"1129 1446 LINE",
"770 932 LINE",
"563 1446 LINE",
"146 1446 LINE",
"523 602 LINE",
"434 0 LINE"
);
}
);
width = 1436;
},
{
anchors = (
{
name = bottom;
position = "{438, 0}";
},
{
name = top;
position = "{638, 1450}";
}
);
layerId = "91AB5BCA-6A50-42DA-B2F7-8181BF189245";
paths = (
{
closed = 1;
nodes = (
"473 0 LINE",
"561 622 LINE",
"1114 1446 LINE",
"1034 1446 LINE",
"536 702 LINE",
"240 1446 LINE",
"160 1446 LINE",
"488 624 LINE",
"402 0 LINE"
);
}
);
width = 1012;
}
);
leftKerningGroup = Y;
leftMetricsKey = "=X/4";
rightKerningGroup = Y;
rightMetricsKey = "=X/4";
unicode = 0059;
},
{
color = 6;
glyphname = Z;
layers = (
{
anchors = (
{
name = bottom;
position = "{639, 0}";
},
{
name = top;
position = "{905, 1446}";
}
);
layerId = "258ED206-D907-4350-8EBA-CBDDA1C16BF7";
paths = (
{
closed = 1;
nodes = (
"1239 0 LINE",
"1288 324 LINE",
"609 324 LINE",
"1445 1276 LINE",
"1471 1446 LINE",
"301 1446 LINE",
"250 1126 LINE",
"865 1126 LINE",
"44 178 LINE",
"17 0 LINE"
);
}
);
width = 1408;
},
{
anchors = (
{
name = bottom;
position = "{534, 0}";
},
{
name = top;
position = "{724, 1446}";
}
);
layerId = "91AB5BCA-6A50-42DA-B2F7-8181BF189245";
paths = (
{
closed = 1;
nodes = (
"950 0 LINE",
"962 78 LINE",
"176 78 LINE",
"1146 1386 LINE",
"1154 1446 LINE",
"294 1446 LINE",
"284 1368 LINE",
"1048 1368 LINE",
"84 62 LINE",
"74 0 LINE"
);
}
);
width = 1134;
}
);
leftKerningGroup = Z;
leftMetricsKey = "=H/1.5";
rightKerningGroup = Z;
rightMetricsKey = "=H/2";
unicode = 005A;
},
{
color = 6;
glyphname = a;
layers = (
{
anchors = (
{
name = bottom;
position = "{520, 0}";
},
{
name = ogonek;
position = "{934, 20}";
},
{
name = top;
position = "{680, 1034}";
}
);
layerId = "258ED206-D907-4350-8EBA-CBDDA1C16BF7";
paths = (
{
closed = 1;
nodes = (
"482 -20 OFFCURVE",
"573 24 OFFCURVE",
"657 164 CURVE",
"666 0 LINE",
"986 0 LINE",
"1098 732 LINE SMOOTH",
"1126 922 OFFCURVE",
"1037 1054 OFFCURVE",
"682 1054 CURVE SMOOTH",
"416 1054 OFFCURVE",
"188 956 OFFCURVE",
"138 712 CURVE",
"451 712 LINE",
"493 782 OFFCURVE",
"571 800 OFFCURVE",
"626 802 CURVE SMOOTH",
"701 804 OFFCURVE",
"734 774 OFFCURVE",
"724 708 CURVE SMOOTH",
"718 664 LINE",
"638 664 LINE SMOOTH",
"264 664 OFFCURVE",
"71 534 OFFCURVE",
"37 310 CURVE SMOOTH",
"6 96 OFFCURVE",
"148 -20 OFFCURVE",
"344 -20 CURVE SMOOTH"
);
},
{
closed = 1;
nodes = (
"449 226 OFFCURVE",
"396 272 OFFCURVE",
"407 350 CURVE SMOOTH",
"422 452 OFFCURVE",
"566 480 OFFCURVE",
"628 480 CURVE SMOOTH",
"690 480 LINE",
"670 350 LINE",
"657 284 OFFCURVE",
"592 226 OFFCURVE",
"516 226 CURVE SMOOTH"
);
}
);
width = 1158;
},
{
anchors = (
{
name = bottom;
position = "{442, 0}";
},
{
name = ogonek;
position = "{776, 28}";
},
{
name = top;
position = "{585, 1034}";
}
);
layerId = "91AB5BCA-6A50-42DA-B2F7-8181BF189245";
paths = (
{
closed = 1;
nodes = (
"491 -20 OFFCURVE",
"633 28 OFFCURVE",
"741 200 CURVE",
"717 0 LINE",
"783 0 LINE",
"883 716 LINE SMOOTH",
"913 926 OFFCURVE",
"789 1054 OFFCURVE",
"587 1054 CURVE SMOOTH",
"365 1054 OFFCURVE",
"224 904 OFFCURVE",
"194 758 CURVE",
"272 758 LINE",
"312 900 OFFCURVE",
"436 978 OFFCURVE",
"573 978 CURVE SMOOTH",
"736 978 OFFCURVE",
"835 880 OFFCURVE",
"812 714 CURVE SMOOTH",
"797 614 LINE",
"577 606 LINE SMOOTH",
"259 594 OFFCURVE",
"117 496 OFFCURVE",
"85 264 CURVE SMOOTH",
"62 88 OFFCURVE",
"163 -20 OFFCURVE",
"352 -20 CURVE SMOOTH"
);
},
{
closed = 1;
nodes = (
"228 54 OFFCURVE",
"144 134 OFFCURVE",
"161 270 CURVE SMOOTH",
"188 450 OFFCURVE",
"297 526 OFFCURVE",
"602 532 CURVE SMOOTH",
"785 536 LINE",
"757 334 LINE SMOOTH",
"737 194 OFFCURVE",
"531 54 OFFCURVE",
"373 54 CURVE SMOOTH"
);
}
);
width = 1016;
}
);
leftKerningGroup = a;
leftMetricsKey = "=|o*1.1";
rightKerningGroup = n;
rightMetricsKey = n;
unicode = 0061;
},
{
color = 6;
glyphname = ae;
layers = (
{
anchors = (
{
name = bottom;
position = "{1174, 0}";
},
{
name = ogonek;
position = "{1430, 50}";
},
{
name = top;
position = "{978, 1034}";
}
);
layerId = "258ED206-D907-4350-8EBA-CBDDA1C16BF7";
paths = (
{
closed = 1;
nodes = (
"580 -20 OFFCURVE",
"702 48 OFFCURVE",
"776 170 CURVE",
"852 50 OFFCURVE",
"992 -20 OFFCURVE",
"1178 -20 CURVE SMOOTH",
"1407 -20 OFFCURVE",
"1662 122 OFFCURVE",
"1728 352 CURVE",
"1386 352 LINE",
"1342 272 OFFCURVE",
"1281 252 OFFCURVE",
"1210 252 CURVE SMOOTH",
"1126 252 OFFCURVE",
"1065 304 OFFCURVE",
"1088 428 CURVE",
"1735 428 LINE",
"1750 518 LINE SMOOTH",
"1796 824 OFFCURVE",
"1662 1054 OFFCURVE",
"1325 1054 CURVE SMOOTH",
"1211 1054 OFFCURVE",
"1109 1024 OFFCURVE",
"1022 972 CURVE",
"957 1024 OFFCURVE",
"846 1054 OFFCURVE",
"674 1054 CURVE SMOOTH",
"408 1054 OFFCURVE",
"179 956 OFFCURVE",
"133 712 CURVE",
"448 712 LINE",
"490 782 OFFCURVE",
"568 800 OFFCURVE",
"621 802 CURVE SMOOTH",
"699 804 OFFCURVE",
"732 774 OFFCURVE",
"723 708 CURVE SMOOTH",
"717 664 LINE",
"637 664 LINE SMOOTH",
"261 664 OFFCURVE",
"68 534 OFFCURVE",
"37 310 CURVE SMOOTH",
"7 96 OFFCURVE",
"153 -20 OFFCURVE",
"348 -20 CURVE SMOOTH"
);
},
{
closed = 1;
nodes = (
"452 226 OFFCURVE",
"397 272 OFFCURVE",
"408 350 CURVE SMOOTH",
"422 452 OFFCURVE",
"567 480 OFFCURVE",
"628 480 CURVE SMOOTH",
"691 480 LINE",
"673 350 LINE SMOOTH",
"661 284 OFFCURVE",
"594 226 OFFCURVE",
"519 226 CURVE SMOOTH"
);
},
{
closed = 1;
nodes = (
"1130 724 OFFCURVE",
"1206 792 OFFCURVE",
"1285 792 CURVE SMOOTH",
"1384 792 OFFCURVE",
"1424 724 OFFCURVE",
"1412 646 CURVE",
"1117 646 LINE"
);
}
);
width = 1817;
},
{
anchors = (
{
name = bottom;
position = "{1144, 0}";
},
{
name = ogonek;
position = "{1247, 36}";
},
{
name = top;
position = "{937, 1034}";
}
);
layerId = "91AB5BCA-6A50-42DA-B2F7-8181BF189245";
paths = (
{
closed = 1;
nodes = (
"533 -20 OFFCURVE",
"741 95 OFFCURVE",
"794 271 CURVE",
"830 83 OFFCURVE",
"959 -20 OFFCURVE",
"1144 -20 CURVE SMOOTH",
"1316 -20 OFFCURVE",
"1490 75 OFFCURVE",
"1556 276 CURVE",
"1478 276 LINE",
"1436 140 OFFCURVE",
"1307 56 OFFCURVE",
"1155 56 CURVE SMOOTH",
"912 56 OFFCURVE",
"837 264 OFFCURVE",
"870 498 CURVE",
"1599 498 LINE",
"1606 554 LINE SMOOTH",
"1651 872 OFFCURVE",
"1531 1054 OFFCURVE",
"1284 1054 CURVE SMOOTH",
"1113 1054 OFFCURVE",
"977 968 OFFCURVE",
"890 814 CURVE",
"874 965 OFFCURVE",
"762 1054 OFFCURVE",
"593 1054 CURVE SMOOTH",
"370 1054 OFFCURVE",
"232 904 OFFCURVE",
"203 758 CURVE",
"281 758 LINE",
"321 900 OFFCURVE",
"439 978 OFFCURVE",
"579 978 CURVE SMOOTH",
"741 978 OFFCURVE",
"839 880 OFFCURVE",
"816 714 CURVE SMOOTH",
"802 614 LINE",
"579 606 LINE SMOOTH",
"260 595 OFFCURVE",
"118 496 OFFCURVE",
"85 264 CURVE SMOOTH",
"60 88 OFFCURVE",
"164 -20 OFFCURVE",
"352 -20 CURVE SMOOTH"
);
},
{
closed = 1;
nodes = (
"228 54 OFFCURVE",
"143 134 OFFCURVE",
"162 270 CURVE SMOOTH",
"187 450 OFFCURVE",
"298 525 OFFCURVE",
"604 532 CURVE SMOOTH",
"791 536 LINE",
"769 383 LINE SMOOTH",
"749 243 OFFCURVE",
"588 54 OFFCURVE",
"375 54 CURVE SMOOTH"
);
},
{
closed = 1;
nodes = (
"908 768 OFFCURVE",
"1036 978 OFFCURVE",
"1272 978 CURVE SMOOTH",
"1488 978 OFFCURVE",
"1565 804 OFFCURVE",
"1532 574 CURVE",
"882 574 LINE"
);
}
);
width = 1723;
}
);
leftKerningGroup = a;
leftMetricsKey = a;
rightKerningGroup = o;
rightMetricsKey = e;
unicode = 00E6;
},
{
color = 6;
glyphname = b;
layers = (
{
layerId = "258ED206-D907-4350-8EBA-CBDDA1C16BF7";
paths = (
{
closed = 1;
nodes = (
"944 -20 OFFCURVE",
"1132 194 OFFCURVE",
"1179 524 CURVE SMOOTH",
"1224 850 OFFCURVE",
"1105 1054 OFFCURVE",
"851 1054 CURVE SMOOTH",
"748 1054 OFFCURVE",
"625 1022 OFFCURVE",
"546 916 CURVE",
"626 1486 LINE",
"236 1486 LINE",
"27 0 LINE",
"302 0 LINE",
"378 212 LINE",
"405 68 OFFCURVE",
"490 -20 OFFCURVE",
"658 -20 CURVE SMOOTH"
);
},
{
closed = 1;
nodes = (
"513 252 OFFCURVE",
"462 320 OFFCURVE",
"491 524 CURVE SMOOTH",
"516 708 OFFCURVE",
"588 780 OFFCURVE",
"679 780 CURVE SMOOTH",
"767 780 OFFCURVE",
"830 716 OFFCURVE",
"803 524 CURVE SMOOTH",
"774 320 OFFCURVE",
"692 252 OFFCURVE",
"604 252 CURVE"
);
}
);
width = 1238;
},
{
layerId = "91AB5BCA-6A50-42DA-B2F7-8181BF189245";
paths = (
{
closed = 1;
nodes = (
"806 -20 OFFCURVE",
"963 196 OFFCURVE",
"1005 520 CURVE SMOOTH",
"1052 883 OFFCURVE",
"914 1054 OFFCURVE",
"674 1054 CURVE SMOOTH",
"445 1054 OFFCURVE",
"330 893 OFFCURVE",
"307 846 CURVE",
"390 1486 LINE",
"316 1486 LINE",
"123 0 LINE",
"189 0 LINE",
"222 212 LINE",
"230 164 OFFCURVE",
"274 -20 OFFCURVE",
"534 -20 CURVE SMOOTH"
);
},
{
closed = 1;
nodes = (
"291 54 OFFCURVE",
"223 200 OFFCURVE",
"266 533 CURVE SMOOTH",
"305 805 OFFCURVE",
"411 978 OFFCURVE",
"656 978 CURVE SMOOTH",
"880 978 OFFCURVE",
"962 800 OFFCURVE",
"927 533 CURVE SMOOTH",
"885 207 OFFCURVE",
"735 54 OFFCURVE",
"542 54 CURVE SMOOTH"
);
}
);
width = 1115;
}
);
leftKerningGroup = n;
leftMetricsKey = n;
rightKerningGroup = o;
rightMetricsKey = o;
unicode = 0062;
},
{
color = 6;
glyphname = c;
layers = (
{
anchors = (
{
name = bottom;
position = "{496, 0}";
},
{
name = top;
position = "{657, 1034}";
}
);
layerId = "258ED206-D907-4350-8EBA-CBDDA1C16BF7";
paths = (
{
closed = 1;
nodes = (
"777 -20 OFFCURVE",
"973 180 OFFCURVE",
"1005 400 CURVE",
"700 400 LINE",
"689 358 OFFCURVE",
"645 248 OFFCURVE",
"547 248 CURVE SMOOTH",
"449 248 OFFCURVE",
"389 346 OFFCURVE",
"414 516 CURVE SMOOTH",
"441 682 OFFCURVE",
"519 766 OFFCURVE",
"618 766 CURVE SMOOTH",
"717 766 OFFCURVE",
"731 670 OFFCURVE",
"729 612 CURVE",
"1043 612 LINE",
"1073 844 OFFCURVE",
"950 1054 OFFCURVE",
"658 1054 CURVE SMOOTH",
"361 1054 OFFCURVE",
"107 832 OFFCURVE",
"59 512 CURVE SMOOTH",
"11 196 OFFCURVE",
"202 -20 OFFCURVE",
"496 -20 CURVE SMOOTH"
);
}
);
width = 1096;
},
{
anchors = (
{
name = bottom;
position = "{464, 0}";
},
{
name = top;
position = "{599, 1034}";
}
);
layerId = "91AB5BCA-6A50-42DA-B2F7-8181BF189245";
rightMetricsKey = "=e";
paths = (
{
closed = 1;
nodes = (
"626 -20 OFFCURVE",
"796 75 OFFCURVE",
"862 276 CURVE",
"783 276 LINE",
"742 140 OFFCURVE",
"616 54 OFFCURVE",
"464 54 CURVE SMOOTH",
"233 54 OFFCURVE",
"148 239 OFFCURVE",
"187 514 CURVE SMOOTH",
"231 830 OFFCURVE",
"393 978 OFFCURVE",
"594 978 CURVE SMOOTH",
"746 978 OFFCURVE",
"847 892 OFFCURVE",
"850 756 CURVE",
"929 756 LINE",
"919 957 OFFCURVE",
"777 1054 OFFCURVE",
"604 1054 CURVE SMOOTH",
"320 1054 OFFCURVE",
"155 837 OFFCURVE",
"110 514 CURVE SMOOTH",
"59 150 OFFCURVE",
"203 -20 OFFCURVE",
"453 -20 CURVE SMOOTH"
);
}
);
width = 1017;
}
);
leftKerningGroup = o;
leftMetricsKey = o;
rightKerningGroup = o;
rightMetricsKey = e;
unicode = 0063;
},
{
color = 3;
glyphname = ccedilla;
layers = (
{
anchors = (
{
name = _bottom;
position = "{496, 0}";
}
);
components = (
{
name = c;
}
);
layerId = "258ED206-D907-4350-8EBA-CBDDA1C16BF7";
paths = (
{
closed = 1;
nodes = (
"576 -438 OFFCURVE",
"708 -372 OFFCURVE",
"724 -268 CURVE SMOOTH",
"734 -194 OFFCURVE",
"688 -104 OFFCURVE",
"526 -104 CURVE",
"584 10 LINE",
"428 10 LINE",
"328 -162 LINE SMOOTH",
"314 -184 OFFCURVE",
"324 -186 OFFCURVE",
"344 -186 CURVE SMOOTH",
"478 -186 OFFCURVE",
"516 -214 OFFCURVE",
"510 -262 CURVE SMOOTH",
"504 -294 OFFCURVE",
"464 -314 OFFCURVE",
"410 -314 CURVE SMOOTH",
"352 -314 OFFCURVE",
"292 -288 OFFCURVE",
"250 -262 CURVE",
"184 -380 LINE",
"254 -426 OFFCURVE",
"346 -438 OFFCURVE",
"440 -438 CURVE SMOOTH"
);
}
);
width = 1096;
},
{
anchors = (
{
name = _bottom;
position = "{464, 0}";
}
);
components = (
{
name = c;
}
);
layerId = "91AB5BCA-6A50-42DA-B2F7-8181BF189245";
paths = (
{
closed = 1;
nodes = (
"458 -398 OFFCURVE",
"546 -350 OFFCURVE",
"560 -252 CURVE SMOOTH",
"568 -190 OFFCURVE",
"546 -124 OFFCURVE",
"436 -114 CURVE",
"500 10 LINE",
"438 10 LINE",
"350 -154 LINE SMOOTH",
"346 -158 OFFCURVE",
"346 -162 OFFCURVE",
"356 -162 CURVE SMOOTH",
"448 -166 OFFCURVE",
"490 -194 OFFCURVE",
"480 -256 CURVE SMOOTH",
"472 -310 OFFCURVE",
"438 -340 OFFCURVE",
"362 -340 CURVE SMOOTH",
"306 -340 OFFCURVE",
"280 -322 OFFCURVE",
"258 -296 CURVE",
"230 -352 LINE",
"264 -382 OFFCURVE",
"306 -398 OFFCURVE",
"362 -398 CURVE SMOOTH"
);
}
);
width = 1017;
}
);
leftKerningGroup = o;
leftMetricsKey = c;
rightKerningGroup = o;
unicode = 00E7;
},
{
color = 6;
glyphname = d;
layers = (
{
anchors = (
{
name = bottom;
position = "{553, 0}";
},
{
name = caron;
position = "{1274, 1486}";
},
{
name = center;
position = "{631, 516}";
}
);
layerId = "258ED206-D907-4350-8EBA-CBDDA1C16BF7";
paths = (
{
closed = 1;
nodes = (
"596 -20 OFFCURVE",
"707 68 OFFCURVE",
"774 212 CURVE",
"790 0 LINE",
"1065 0 LINE",
"1274 1486 LINE",
"884 1486 LINE",
"804 916 LINE",
"755 1022 OFFCURVE",
"640 1054 OFFCURVE",
"537 1054 CURVE SMOOTH",
"283 1054 OFFCURVE",
"106 850 OFFCURVE",
"61 524 CURVE SMOOTH",
"14 194 OFFCURVE",
"142 -20 OFFCURVE",
"428 -20 CURVE SMOOTH"
);
},
{
closed = 1;
nodes = (
"470 252 OFFCURVE",
"408 320 OFFCURVE",
"437 524 CURVE SMOOTH",
"464 716 OFFCURVE",
"545 780 OFFCURVE",
"633 780 CURVE SMOOTH",
"724 780 OFFCURVE",
"774 708 OFFCURVE",
"749 524 CURVE SMOOTH",
"720 320 OFFCURVE",
"649 252 OFFCURVE",
"558 252 CURVE"
);
}
);
width = 1238;
},
{
anchors = (
{
name = bottom;
position = "{449, 0}";
},
{
name = caron;
position = "{1027, 1486}";
},
{
name = center;
position = "{544, 516}";
}
);
layerId = "91AB5BCA-6A50-42DA-B2F7-8181BF189245";
paths = (
{
closed = 1;
nodes = (
"701 -20 OFFCURVE",
"793 164 OFFCURVE",
"813 212 CURVE",
"791 0 LINE",
"857 0 LINE",
"1051 1486 LINE",
"977 1486 LINE",
"893 846 LINE",
"883 893 OFFCURVE",
"809 1054 OFFCURVE",
"581 1054 CURVE SMOOTH",
"309 1054 OFFCURVE",
"152 840 OFFCURVE",
"110 520 CURVE SMOOTH",
"63 153 OFFCURVE",
"200 -20 OFFCURVE",
"441 -20 CURVE SMOOTH"
);
},
{
closed = 1;
nodes = (
"233 54 OFFCURVE",
"154 246 OFFCURVE",
"192 533 CURVE SMOOTH",
"231 836 OFFCURVE",
"381 978 OFFCURVE",
"578 978 CURVE SMOOTH",
"824 978 OFFCURVE",
"884 805 OFFCURVE",
"853 533 CURVE SMOOTH",
"809 200 OFFCURVE",
"703 54 OFFCURVE",
"452 54 CURVE SMOOTH"
);
}
);
width = 1110;
}
);
leftKerningGroup = o;
leftMetricsKey = o;
rightKerningGroup = u;
rightMetricsKey = "=|n";
unicode = 0064;
},
{
color = 6;
glyphname = eth;
layers = (
{
layerId = "258ED206-D907-4350-8EBA-CBDDA1C16BF7";
paths = (
{
closed = 1;
nodes = (
"944 -20 OFFCURVE",
"1127 341 OFFCURVE",
"1127 685 CURVE SMOOTH",
"1127 991 OFFCURVE",
"975 1307 OFFCURVE",
"734 1481 CURVE",
"441 1481 LINE",
"628 1262 OFFCURVE",
"721 1070 OFFCURVE",
"721 905 CURVE",
"920 724 LINE",
"920 912 OFFCURVE",
"815 1014 OFFCURVE",
"621 1014 CURVE SMOOTH",
"201 1014 OFFCURVE",
"55 663 OFFCURVE",
"55 445 CURVE SMOOTH",
"55 163 OFFCURVE",
"238 -20 OFFCURVE",
"523 -20 CURVE SMOOTH"
);
},
{
closed = 1;
nodes = (
"478 262 OFFCURVE",
"436 324 OFFCURVE",
"436 433 CURVE SMOOTH",
"436 549 OFFCURVE",
"478 747 OFFCURVE",
"623 747 CURVE SMOOTH",
"701 747 OFFCURVE",
"741 689 OFFCURVE",
"741 583 CURVE SMOOTH",
"741 468 OFFCURVE",
"697 262 OFFCURVE",
"555 262 CURVE SMOOTH"
);
},
{
closed = 1;
nodes = (
"1164 1291 LINE",
"1138 1446 LINE",
"355 1227 LINE",
"380 1072 LINE"
);
}
);
width = 1173;
},
{
layerId = "91AB5BCA-6A50-42DA-B2F7-8181BF189245";
paths = (
{
closed = 1;
nodes = (
"839 -20 OFFCURVE",
"947 366 OFFCURVE",
"947 677 CURVE SMOOTH",
"947 1083 OFFCURVE",
"784 1317 OFFCURVE",
"599 1480 CURVE",
"502 1480 LINE",
"614 1376 OFFCURVE",
"812 1172 OFFCURVE",
"856 877 CURVE",
"929 738 LINE",
"886 933 OFFCURVE",
"792 1054 OFFCURVE",
"592 1054 CURVE SMOOTH",
"229 1054 OFFCURVE",
"103 681 OFFCURVE",
"103 404 CURVE SMOOTH",
"103 153 OFFCURVE",
"227 -20 OFFCURVE",
"463 -20 CURVE SMOOTH"
);
},
{
closed = 1;
nodes = (
"269 54 OFFCURVE",
"181 208 OFFCURVE",
"181 416 CURVE SMOOTH",
"181 648 OFFCURVE",
"280 978 OFFCURVE",
"581 978 CURVE SMOOTH",
"766 978 OFFCURVE",
"869 860 OFFCURVE",
"869 635 CURVE SMOOTH",
"869 402 OFFCURVE",
"779 54 OFFCURVE",
"473 54 CURVE SMOOTH"
);
},
{
closed = 1;
nodes = (
"1001 1348 LINE",
"992 1414 LINE",
"409 1240 LINE",
"421 1175 LINE"
);
}
);
width = 1047;
},
{
associatedMasterId = "258ED206-D907-4350-8EBA-CBDDA1C16BF7";
background = {
paths = (
{
closed = 1;
nodes = (
"1296 880 OFFCURVE",
"1147 1164 OFFCURVE",
"899 1338 CURVE",
"990 1390 LINE SMOOTH",
"1002 1398 OFFCURVE",
"1004 1408 OFFCURVE",
"998 1418 CURVE SMOOTH",
"956 1494 LINE SMOOTH",
"949 1504 OFFCURVE",
"935 1508 OFFCURVE",
"920 1498 CURVE SMOOTH",
"771 1414 LINE",
"697 1452 OFFCURVE",
"615 1480 OFFCURVE",
"529 1500 CURVE SMOOTH",
"504 1506 OFFCURVE",
"500 1504 OFFCURVE",
"487 1492 CURVE SMOOTH",
"319 1354 LINE SMOOTH",
"305 1342 OFFCURVE",
"311 1330 OFFCURVE",
"323 1326 CURVE SMOOTH",
"383 1306 OFFCURVE",
"437 1282 OFFCURVE",
"487 1256 CURVE",
"345 1178 LINE SMOOTH",
"330 1172 OFFCURVE",
"324 1156 OFFCURVE",
"341 1134 CURVE SMOOTH",
"370 1086 LINE SMOOTH",
"385 1064 OFFCURVE",
"397 1060 OFFCURVE",
"418 1072 CURVE SMOOTH",
"611 1180 LINE",
"666 1138 OFFCURVE",
"704 1102 OFFCURVE",
"742 1050 CURVE SMOOTH",
"746 1044 OFFCURVE",
"746 1040 OFFCURVE",
"739 1040 CURVE SMOOTH",
"423 1040 OFFCURVE",
"181 818 OFFCURVE",
"181 504 CURVE SMOOTH",
"181 206 OFFCURVE",
"408 -20 OFFCURVE",
"737 -20 CURVE SMOOTH",
"1071 -20 OFFCURVE",
"1296 204 OFFCURVE",
"1296 564 CURVE SMOOTH"
);
},
{
closed = 1;
nodes = (
"633 236 OFFCURVE",
"584 324 OFFCURVE",
"584 512 CURVE SMOOTH",
"584 702 OFFCURVE",
"633 792 OFFCURVE",
"739 792 CURVE SMOOTH",
"847 792 OFFCURVE",
"893 702 OFFCURVE",
"893 512 CURVE SMOOTH",
"893 326 OFFCURVE",
"847 236 OFFCURVE",
"739 236 CURVE SMOOTH"
);
}
);
};
layerId = "C88FE29D-E6AD-4B19-9268-260A8BA619A2";
name = "Jul 14 20, 16:27";
paths = (
{
closed = 1;
nodes = (
"861 -20 OFFCURVE",
"1103 197 OFFCURVE",
"1151 538 CURVE SMOOTH",
"1214 991 OFFCURVE",
"1114 1344 OFFCURVE",
"867 1477 CURVE",
"419 1488 LINE",
"493 1421 OFFCURVE",
"823 1288 OFFCURVE",
"938 854 CURVE",
"870 955 OFFCURVE",
"749 1016 OFFCURVE",
"615 1016 CURVE SMOOTH",
"376 1016 OFFCURVE",
"109 861 OFFCURVE",
"60 514 CURVE SMOOTH",
"17 211 OFFCURVE",
"216 -20 OFFCURVE",
"541 -20 CURVE SMOOTH"
);
},
{
closed = 1;
nodes = (
"417 262 OFFCURVE",
"422 403 OFFCURVE",
"436 503 CURVE SMOOTH",
"453 625 OFFCURVE",
"504 776 OFFCURVE",
"638 776 CURVE SMOOTH",
"754 776 OFFCURVE",
"750 646 OFFCURVE",
"736 546 CURVE SMOOTH",
"719 425 OFFCURVE",
"667 262 OFFCURVE",
"535 262 CURVE SMOOTH"
);
},
{
closed = 1;
nodes = (
"1157 1254 LINE",
"1189 1487 LINE",
"380 1255 LINE",
"349 1021 LINE"
);
}
);
width = 1208;
},
{
associatedMasterId = "91AB5BCA-6A50-42DA-B2F7-8181BF189245";
background = {
paths = (
{
closed = 1;
nodes = (
"1216 844 OFFCURVE",
"1106 1126 OFFCURVE",
"794 1338 CURVE",
"974 1438 LINE SMOOTH",
"980 1442 OFFCURVE",
"980 1448 OFFCURVE",
"976 1454 CURVE SMOOTH",
"952 1498 LINE SMOOTH",
"950 1502 OFFCURVE",
"940 1504 OFFCURVE",
"934 1500 CURVE SMOOTH",
"726 1384 LINE",
"656 1426 OFFCURVE",
"582 1462 OFFCURVE",
"494 1498 CURVE SMOOTH",
"476 1506 OFFCURVE",
"470 1502 OFFCURVE",
"458 1494 CURVE SMOOTH",
"422 1470 LINE SMOOTH",
"412 1462 OFFCURVE",
"414 1452 OFFCURVE",
"424 1448 CURVE SMOOTH",
"508 1414 OFFCURVE",
"582 1378 OFFCURVE",
"650 1340 CURVE",
"340 1166 LINE SMOOTH",
"334 1162 OFFCURVE",
"330 1156 OFFCURVE",
"338 1144 CURVE SMOOTH",
"356 1116 LINE SMOOTH",
"364 1104 OFFCURVE",
"370 1100 OFFCURVE",
"382 1106 CURVE SMOOTH",
"718 1296 LINE",
"890 1180 OFFCURVE",
"996 1046 OFFCURVE",
"1058 902 CURVE",
"972 988 OFFCURVE",
"854 1040 OFFCURVE",
"712 1040 CURVE SMOOTH",
"440 1040 OFFCURVE",
"244 816 OFFCURVE",
"244 504 CURVE SMOOTH",
"244 196 OFFCURVE",
"438 -20 OFFCURVE",
"726 -20 CURVE SMOOTH",
"1034 -20 OFFCURVE",
"1216 202 OFFCURVE",
"1216 510 CURVE SMOOTH"
);
},
{
closed = 1;
nodes = (
"502 56 OFFCURVE",
"328 256 OFFCURVE",
"328 508 CURVE SMOOTH",
"328 760 OFFCURVE",
"502 964 OFFCURVE",
"732 964 CURVE SMOOTH",
"960 964 OFFCURVE",
"1132 762 OFFCURVE",
"1132 508 CURVE SMOOTH",
"1132 254 OFFCURVE",
"964 56 OFFCURVE",
"734 56 CURVE SMOOTH"
);
}
);
};
layerId = "07882DDA-6864-4550-8866-A019F144B182";
name = "Jul 14 20, 16:31";
paths = (
{
closed = 1;
nodes = (
"730 -20 OFFCURVE",
"916 210 OFFCURVE",
"964 510 CURVE SMOOTH",
"1039 983 OFFCURVE",
"1024 1266 OFFCURVE",
"717 1479 CURVE",
"632 1442 LINE",
"799 1344 OFFCURVE",
"957 1182 OFFCURVE",
"928 844 CURVE",
"901 953 OFFCURVE",
"823 1054 OFFCURVE",
"614 1054 CURVE SMOOTH",
"352 1054 OFFCURVE",
"154 832 OFFCURVE",
"110 518 CURVE SMOOTH",
"67 216 OFFCURVE",
"203 -20 OFFCURVE",
"471 -20 CURVE SMOOTH"
);
},
{
closed = 1;
nodes = (
"252 54 OFFCURVE",
"150 266 OFFCURVE",
"184 510 CURVE SMOOTH",
"223 790 OFFCURVE",
"388 978 OFFCURVE",
"610 978 CURVE SMOOTH",
"840 978 OFFCURVE",
"931 820 OFFCURVE",
"889 518 CURVE SMOOTH",
"853 268 OFFCURVE",
"696 54 OFFCURVE",
"473 54 CURVE SMOOTH"
);
},
{
closed = 1;
nodes = (
"1060 1352 LINE",
"1072 1440 LINE",
"542 1218 LINE",
"530 1129 LINE"
);
}
);
width = 1076;
}
);
leftKerningGroup = o;
leftMetricsKey = o;
rightKerningGroup = o;
rightMetricsKey = o;
unicode = 00F0;
},
{
color = 3;
glyphname = dcroat;
layers = (
{
components = (
{
name = d;
}
);
layerId = "258ED206-D907-4350-8EBA-CBDDA1C16BF7";
paths = (
{
closed = 1;
nodes = (
"1324 1132 LINE",
"1352 1340 LINE",
"628 1340 LINE",
"600 1132 LINE"
);
}
);
width = 1298;
},
{
components = (
{
name = d;
}
);
layerId = "91AB5BCA-6A50-42DA-B2F7-8181BF189245";
paths = (
{
closed = 1;
nodes = (
"1130 1222 LINE",
"1130 1290 LINE",
"568 1290 LINE",
"568 1222 LINE"
);
}
);
width = 1091;
}
);
leftKerningGroup = o;
leftMetricsKey = d;
unicode = 0111;
},
{
color = 6;
glyphname = e;
layers = (
{
anchors = (
{
name = bottom;
position = "{518, 0}";
},
{
name = ogonek;
position = "{774, 50}";
},
{
name = top;
position = "{667, 1034}";
}
);
layerId = "258ED206-D907-4350-8EBA-CBDDA1C16BF7";
paths = (
{
closed = 1;
nodes = (
"751 -20 OFFCURVE",
"1006 122 OFFCURVE",
"1072 352 CURVE",
"730 352 LINE",
"686 272 OFFCURVE",
"625 252 OFFCURVE",
"554 252 CURVE SMOOTH",
"470 252 OFFCURVE",
"409 304 OFFCURVE",
"432 428 CURVE",
"1079 428 LINE",
"1094 518 LINE",
"1140 824 OFFCURVE",
"1006 1054 OFFCURVE",
"669 1054 CURVE SMOOTH",
"340 1054 OFFCURVE",
"108 800 OFFCURVE",
"64 504 CURVE SMOOTH",
"16 190 OFFCURVE",
"201 -20 OFFCURVE",
"522 -20 CURVE SMOOTH"
);
},
{
closed = 1;
nodes = (
"474 724 OFFCURVE",
"550 792 OFFCURVE",
"629 792 CURVE SMOOTH",
"728 792 OFFCURVE",
"768 724 OFFCURVE",
"756 646 CURVE",
"461 646 LINE"
);
}
);
width = 1161;
},
{
anchors = (
{
name = bottom;
position = "{471, 0}";
},
{
name = ogonek;
position = "{643, 36}";
},
{
name = top;
position = "{609, 1034}";
}
);
layerId = "91AB5BCA-6A50-42DA-B2F7-8181BF189245";
paths = (
{
closed = 1;
nodes = (
"643 -20 OFFCURVE",
"817 75 OFFCURVE",
"883 276 CURVE",
"805 276 LINE",
"763 140 OFFCURVE",
"634 56 OFFCURVE",
"482 56 CURVE SMOOTH",
"239 56 OFFCURVE",
"164 264 OFFCURVE",
"197 498 CURVE",
"926 498 LINE",
"933 554 LINE",
"978 872 OFFCURVE",
"858 1054 OFFCURVE",
"611 1054 CURVE SMOOTH",
"347 1054 OFFCURVE",
"168 850 OFFCURVE",
"120 508 CURVE SMOOTH",
"72 170 OFFCURVE",
"219 -20 OFFCURVE",
"471 -20 CURVE SMOOTH"
);
},
{
closed = 1;
nodes = (
"235 768 OFFCURVE",
"363 978 OFFCURVE",
"599 978 CURVE SMOOTH",
"815 978 OFFCURVE",
"892 804 OFFCURVE",
"859 574 CURVE",
"209 574 LINE"
);
}
);
width = 1050;
}
);
leftKerningGroup = o;
leftMetricsKey = "=o*1.1";
rightKerningGroup = o;
rightMetricsKey = "=o*1.1";
unicode = 0065;
},
{
color = 6;
glyphname = eogonek;
layers = (
{
anchors = (
{
name = bottom;
position = "{518, 0}";
},
{
name = ogonek;
position = "{774, 50}";
},
{
name = top;
position = "{667, 1034}";
}
);
layerId = "258ED206-D907-4350-8EBA-CBDDA1C16BF7";
paths = (
{
closed = 1;
nodes = (
"340 1054 OFFCURVE",
"108 800 OFFCURVE",
"64 504 CURVE SMOOTH",
"20 217 OFFCURVE",
"171 17 OFFCURVE",
"442 -15 CURVE",
"384 -54 OFFCURVE",
"351 -96 OFFCURVE",
"344 -140 CURVE SMOOTH",
"326 -256 OFFCURVE",
"412 -310 OFFCURVE",
"554 -310 CURVE SMOOTH",
"652 -310 OFFCURVE",
"748 -282 OFFCURVE",
"792 -256 CURVE",
"816 -92 LINE",
"764 -120 OFFCURVE",
"722 -142 OFFCURVE",
"664 -142 CURVE SMOOTH",
"628 -142 OFFCURVE",
"614 -124 OFFCURVE",
"618 -86 CURVE",
"626 -43 OFFCURVE",
"689 -7 OFFCURVE",
"784 39 CURVE SMOOTH",
"929 110 OFFCURVE",
"1028 199 OFFCURVE",
"1072 352 CURVE",
"730 352 LINE",
"686 272 OFFCURVE",
"625 252 OFFCURVE",
"554 252 CURVE SMOOTH",
"470 252 OFFCURVE",
"409 304 OFFCURVE",
"432 428 CURVE",
"1079 428 LINE",
"1094 518 LINE SMOOTH",
"1145 823 OFFCURVE",
"1006 1054 OFFCURVE",
"669 1054 CURVE SMOOTH"
);
},
{
closed = 1;
nodes = (
"474 724 OFFCURVE",
"550 792 OFFCURVE",
"629 792 CURVE SMOOTH",
"728 792 OFFCURVE",
"768 724 OFFCURVE",
"756 646 CURVE",
"461 646 LINE"
);
}
);
width = 1161;
},
{
anchors = (
{
name = bottom;
position = "{471, 0}";
},
{
name = ogonek;
position = "{643, 36}";
},
{
name = top;
position = "{609, 1034}";
}
);
layerId = "91AB5BCA-6A50-42DA-B2F7-8181BF189245";
paths = (
{
closed = 1;
nodes = (
"347 1054 OFFCURVE",
"168 850 OFFCURVE",
"120 508 CURVE SMOOTH",
"72 173 OFFCURVE",
"217 -17 OFFCURVE",
"465 -20 CURVE",
"425 -49 OFFCURVE",
"373 -107 OFFCURVE",
"365 -164 CURVE SMOOTH",
"353 -252 OFFCURVE",
"393 -316 OFFCURVE",
"508 -316 CURVE SMOOTH",
"571 -316 OFFCURVE",
"631 -298 OFFCURVE",
"661 -282 CURVE",
"671 -220 LINE",
"653 -230 OFFCURVE",
"597 -250 OFFCURVE",
"535 -250 CURVE SMOOTH",
"461 -250 OFFCURVE",
"437 -222 OFFCURVE",
"443 -168 CURVE SMOOTH",
"455 -92 OFFCURVE",
"522 -40 OFFCURVE",
"650 16 CURVE SMOOTH",
"753 61 OFFCURVE",
"840 146 OFFCURVE",
"883 276 CURVE",
"805 276 LINE",
"763 140 OFFCURVE",
"634 56 OFFCURVE",
"482 56 CURVE SMOOTH",
"239 56 OFFCURVE",
"164 264 OFFCURVE",
"197 498 CURVE",
"926 498 LINE",
"933 554 LINE SMOOTH",
"973 873 OFFCURVE",
"858 1054 OFFCURVE",
"611 1054 CURVE SMOOTH"
);
},
{
closed = 1;
nodes = (
"235 768 OFFCURVE",
"363 978 OFFCURVE",
"599 978 CURVE SMOOTH",
"815 978 OFFCURVE",
"892 804 OFFCURVE",
"859 574 CURVE",
"209 574 LINE"
);
}
);
width = 1050;
}
);
leftKerningGroup = o;
rightKerningGroup = o;
unicode = 0119;
},
{
color = 6;
glyphname = schwa;
layers = (
{
anchors = (
{
name = bottom;
position = "{494, 0}";
},
{
name = ogonek;
position = "{387, 984}";
},
{
name = top;
position = "{643, 1034}";
}
);
layerId = "258ED206-D907-4350-8EBA-CBDDA1C16BF7";
paths = (
{
closed = 1;
nodes = (
"821 -20 OFFCURVE",
"1053 234 OFFCURVE",
"1097 530 CURVE SMOOTH",
"1145 844 OFFCURVE",
"960 1054 OFFCURVE",
"639 1054 CURVE SMOOTH",
"410 1054 OFFCURVE",
"155 912 OFFCURVE",
"89 682 CURVE",
"431 682 LINE",
"475 762 OFFCURVE",
"536 782 OFFCURVE",
"607 782 CURVE SMOOTH",
"691 782 OFFCURVE",
"752 730 OFFCURVE",
"729 606 CURVE",
"82 606 LINE",
"67 516 LINE",
"21 210 OFFCURVE",
"155 -20 OFFCURVE",
"492 -20 CURVE SMOOTH"
);
},
{
closed = 1;
nodes = (
"433 242 OFFCURVE",
"393 310 OFFCURVE",
"405 388 CURVE",
"700 388 LINE",
"687 310 OFFCURVE",
"611 242 OFFCURVE",
"532 242 CURVE SMOOTH"
);
}
);
width = 1161;
},
{
anchors = (
{
name = bottom;
position = "{441, 0}";
},
{
name = ogonek;
position = "{476, 998}";
},
{
name = top;
position = "{579, 1034}";
}
);
layerId = "91AB5BCA-6A50-42DA-B2F7-8181BF189245";
paths = (
{
closed = 1;
nodes = (
"703 -20 OFFCURVE",
"882 184 OFFCURVE",
"930 526 CURVE SMOOTH",
"978 864 OFFCURVE",
"831 1054 OFFCURVE",
"579 1054 CURVE SMOOTH",
"407 1054 OFFCURVE",
"233 959 OFFCURVE",
"167 758 CURVE",
"245 758 LINE",
"287 894 OFFCURVE",
"416 978 OFFCURVE",
"568 978 CURVE SMOOTH",
"811 978 OFFCURVE",
"886 770 OFFCURVE",
"853 536 CURVE",
"124 536 LINE",
"117 480 LINE",
"72 162 OFFCURVE",
"192 -20 OFFCURVE",
"439 -20 CURVE SMOOTH"
);
},
{
closed = 1;
nodes = (
"235 56 OFFCURVE",
"158 230 OFFCURVE",
"191 460 CURVE",
"841 460 LINE",
"815 266 OFFCURVE",
"687 56 OFFCURVE",
"451 56 CURVE SMOOTH"
);
}
);
width = 1050;
}
);
leftKerningGroup = o;
leftMetricsKey = "=|e";
rightKerningGroup = o;
rightMetricsKey = "=|e";
unicode = 0259;
},
{
color = 6;
glyphname = f;
layers = (
{
layerId = "258ED206-D907-4350-8EBA-CBDDA1C16BF7";
leftMetricsKey = "=t";
rightMetricsKey = "=x";
paths = (
{
closed = 1;
nodes = (
"500 0 LINE",
"618 770 LINE",
"805 770 LINE",
"845 1034 LINE",
"650 1034 LINE",
"658 1094 LINE SMOOTH",
"671 1170 OFFCURVE",
"696 1194 OFFCURVE",
"761 1194 CURVE SMOOTH",
"879 1194 LINE",
"916 1446 LINE",
"641 1446 LINE SMOOTH",
"452 1446 OFFCURVE",
"318 1342 OFFCURVE",
"292 1172 CURVE SMOOTH",
"271 1034 LINE",
"106 1034 LINE",
"66 770 LINE",
"231 770 LINE",
"114 0 LINE"
);
}
);
width = 795;
},
{
layerId = "91AB5BCA-6A50-42DA-B2F7-8181BF189245";
paths = (
{
closed = 1;
nodes = (
"321 0 LINE",
"456 966 LINE",
"717 966 LINE",
"727 1034 LINE",
"465 1034 LINE",
"491 1222 LINE SMOOTH",
"505 1322 OFFCURVE",
"538 1378 OFFCURVE",
"628 1378 CURVE SMOOTH",
"785 1378 LINE",
"794 1446 LINE",
"655 1446 LINE SMOOTH",
"511 1446 OFFCURVE",
"441 1366 OFFCURVE",
"418 1206 CURVE SMOOTH",
"393 1034 LINE",
"168 1034 LINE",
"157 966 LINE",
"385 966 LINE",
"250 0 LINE"
);
}
);
width = 743;
}
);
leftKerningGroup = f;
leftMetricsKey = "=t*.75";
rightKerningGroup = f;
rightMetricsKey = "=t*.75";
unicode = 0066;
},
{
color = 6;
glyphname = g;
layers = (
{
anchors = (
{
name = top;
position = "{772, 1034}";
}
);
layerId = "258ED206-D907-4350-8EBA-CBDDA1C16BF7";
paths = (
{
closed = 1;
nodes = (
"899 -342 OFFCURVE",
"1107 -205 OFFCURVE",
"1134 -16 CURVE SMOOTH",
"1158 155 OFFCURVE",
"1043 295 OFFCURVE",
"750 314 CURVE SMOOTH",
"672 321 OFFCURVE",
"591 323 OFFCURVE",
"546 327 CURVE SMOOTH",
"474 333 OFFCURVE",
"413 343 OFFCURVE",
"406 375 CURVE SMOOTH",
"403 389 OFFCURVE",
"421 381 OFFCURVE",
"451 379 CURVE",
"476 377 OFFCURVE",
"547 374 OFFCURVE",
"588 374 CURVE SMOOTH",
"907 374 OFFCURVE",
"1096 543 OFFCURVE",
"1120 708 CURVE SMOOTH",
"1123 731 OFFCURVE",
"1122 769 OFFCURVE",
"1118 799 CURVE",
"1302 834 LINE",
"1334 1114 LINE",
"1214 1066 OFFCURVE",
"1058 1010 OFFCURVE",
"967 975 CURVE",
"904 1011 OFFCURVE",
"829 1050 OFFCURVE",
"672 1050 CURVE SMOOTH",
"368 1050 OFFCURVE",
"147 930 OFFCURVE",
"121 750 CURVE SMOOTH",
"104 629 OFFCURVE",
"165 490 OFFCURVE",
"297 426 CURVE",
"123 400 OFFCURVE",
"47 331 OFFCURVE",
"37 260 CURVE SMOOTH",
"19 135 OFFCURVE",
"136 85 OFFCURVE",
"156 73 CURVE",
"131 64 OFFCURVE",
"-54 41 OFFCURVE",
"-72 -82 CURVE SMOOTH",
"-92 -225 OFFCURVE",
"99 -342 OFFCURVE",
"516 -342 CURVE SMOOTH"
);
},
{
closed = 1;
nodes = (
"380 -138 OFFCURVE",
"299 -126 OFFCURVE",
"307 -71 CURVE SMOOTH",
"313 -26 OFFCURVE",
"355 23 OFFCURVE",
"463 17 CURVE SMOOTH",
"650 5 LINE SMOOTH",
"729 -1 OFFCURVE",
"765 -19 OFFCURVE",
"761 -52 CURVE SMOOTH",
"754 -101 OFFCURVE",
"714 -138 OFFCURVE",
"569 -138 CURVE SMOOTH"
);
},
{
closed = 1;
nodes = (
"528 578 OFFCURVE",
"494 625 OFFCURVE",
"503 692 CURVE SMOOTH",
"516 781 OFFCURVE",
"586 860 OFFCURVE",
"669 860 CURVE SMOOTH",
"734 860 OFFCURVE",
"767 803 OFFCURVE",
"757 736 CURVE SMOOTH",
"745 647 OFFCURVE",
"676 578 OFFCURVE",
"593 578 CURVE SMOOTH"
);
}
);
width = 1267;
},
{
anchors = (
{
name = top;
position = "{583, 1034}";
}
);
layerId = "91AB5BCA-6A50-42DA-B2F7-8181BF189245";
rightMetricsKey = "=x*1.3";
paths = (
{
closed = 1;
nodes = (
"717 -342 OFFCURVE",
"870 -220 OFFCURVE",
"894 -38 CURVE SMOOTH",
"916 130 OFFCURVE",
"816 216 OFFCURVE",
"651 226 CURVE SMOOTH",
"561 232 OFFCURVE",
"491 236 OFFCURVE",
"436 240 CURVE SMOOTH",
"284 252 OFFCURVE",
"241 268 OFFCURVE",
"247 312 CURVE SMOOTH",
"253 356 OFFCURVE",
"316 404 OFFCURVE",
"508 408 CURVE SMOOTH",
"515 408 OFFCURVE",
"521 408 OFFCURVE",
"528 408 CURVE SMOOTH",
"776 408 OFFCURVE",
"909 533 OFFCURVE",
"934 720 CURVE SMOOTH",
"941 780 OFFCURVE",
"933 842 OFFCURVE",
"913 892 CURVE",
"1089 932 LINE",
"1104 1048 LINE",
"1079 1038 OFFCURVE",
"910 964 OFFCURVE",
"884 952 CURVE",
"819 1018 OFFCURVE",
"743 1050 OFFCURVE",
"625 1050 CURVE SMOOTH",
"366 1050 OFFCURVE",
"228 918 OFFCURVE",
"202 720 CURVE SMOOTH",
"186 597 OFFCURVE",
"239 502 OFFCURVE",
"331 444 CURVE",
"234 414 OFFCURVE",
"178 366 OFFCURVE",
"171 310 CURVE SMOOTH",
"163 248 OFFCURVE",
"204 226 OFFCURVE",
"236 202 CURVE",
"205 176 OFFCURVE",
"48 104 OFFCURVE",
"28 -52 CURVE SMOOTH",
"2 -249 OFFCURVE",
"163 -342 OFFCURVE",
"423 -342 CURVE SMOOTH"
);
},
{
closed = 1;
nodes = (
"195 -268 OFFCURVE",
"87 -178 OFFCURVE",
"104 -44 CURVE SMOOTH",
"121 84 OFFCURVE",
"266 172 OFFCURVE",
"323 168 CURVE SMOOTH",
"638 146 LINE SMOOTH",
"776 137 OFFCURVE",
"831 64 OFFCURVE",
"818 -38 CURVE SMOOTH",
"798 -194 OFFCURVE",
"653 -268 OFFCURVE",
"449 -268 CURVE SMOOTH"
);
},
{
closed = 1;
nodes = (
"349 482 OFFCURVE",
"254 566 OFFCURVE",
"275 724 CURVE SMOOTH",
"297 895 OFFCURVE",
"426 976 OFFCURVE",
"604 976 CURVE SMOOTH",
"778 976 OFFCURVE",
"884 896 OFFCURVE",
"862 724 CURVE SMOOTH",
"840 559 OFFCURVE",
"714 482 OFFCURVE",
"540 482 CURVE SMOOTH"
);
}
);
width = 1148;
}
);
leftKerningGroup = g;
leftMetricsKey = "=x*1.2";
rightKerningGroup = g;
rightMetricsKey = "=x";
unicode = 0067;
},
{
color = 6;
glyphname = h;
layers = (
{
anchors = (
{
name = bottom;
position = "{539, 0}";
},
{
name = top;
position = "{436, 1446}";
}
);
layerId = "258ED206-D907-4350-8EBA-CBDDA1C16BF7";
paths = (
{
closed = 1;
nodes = (
"415 0 LINE",
"514 642 LINE",
"522 700 OFFCURVE",
"591 740 OFFCURVE",
"649 740 CURVE SMOOTH",
"707 740 OFFCURVE",
"766 704 OFFCURVE",
"755 646 CURVE SMOOTH",
"657 0 LINE",
"1045 0 LINE",
"1151 692 LINE SMOOTH",
"1182 898 OFFCURVE",
"1035 1034 OFFCURVE",
"843 1034 CURVE SMOOTH",
"682 1034 OFFCURVE",
"609 966 OFFCURVE",
"554 906 CURVE",
"642 1486 LINE",
"253 1486 LINE",
"27 0 LINE"
);
}
);
width = 1216;
},
{
anchors = (
{
name = bottom;
position = "{501, 0}";
},
{
name = top;
position = "{364, 1446}";
}
);
layerId = "91AB5BCA-6A50-42DA-B2F7-8181BF189245";
paths = (
{
closed = 1;
nodes = (
"195 0 LINE",
"289 720 LINE",
"311 896 OFFCURVE",
"468 978 OFFCURVE",
"638 978 CURVE SMOOTH",
"801 978 OFFCURVE",
"890 888 OFFCURVE",
"870 736 CURVE SMOOTH",
"774 0 LINE",
"847 0 LINE",
"946 766 LINE SMOOTH",
"969 936 OFFCURVE",
"840 1054 OFFCURVE",
"650 1054 CURVE SMOOTH",
"494 1054 OFFCURVE",
"367 978 OFFCURVE",
"304 880 CURVE",
"383 1486 LINE",
"316 1486 LINE",
"123 0 LINE"
);
}
);
width = 1080;
}
);
leftKerningGroup = n;
leftMetricsKey = n;
rightKerningGroup = n;
rightMetricsKey = n;
unicode = 0068;
},
{
color = 3;
glyphname = hbar;
layers = (
{
components = (
{
name = h;
transform = "{1, 0, 0, 1, 100, 0}";
}
);
layerId = "258ED206-D907-4350-8EBA-CBDDA1C16BF7";
paths = (
{
closed = 1;
nodes = (
"850 1132 LINE",
"878 1340 LINE",
"156 1340 LINE",
"128 1132 LINE"
);
}
);
width = 1316;
},
{
components = (
{
name = h;
transform = "{1, 0, 0, 1, 100, 0}";
}
);
layerId = "91AB5BCA-6A50-42DA-B2F7-8181BF189245";
paths = (
{
closed = 1;
nodes = (
"705 1222 LINE",
"713 1290 LINE",
"149 1290 LINE",
"141 1222 LINE"
);
}
);
width = 1180;
}
);
leftKerningGroup = n;
rightKerningGroup = n;
rightMetricsKey = h;
unicode = 0127;
},
{
color = 6;
glyphname = i;
layers = (
{
anchors = (
{
name = bottom;
position = "{212, 0}";
},
{
name = ogonek;
position = "{363, 18}";
}
);
layerId = "258ED206-D907-4350-8EBA-CBDDA1C16BF7";
paths = (
{
closed = 1;
nodes = (
"397 0 LINE",
"543 1034 LINE",
"173 1034 LINE",
"27 0 LINE"
);
},
{
closed = 1;
nodes = (
"555 1118 LINE",
"601 1446 LINE",
"231 1446 LINE",
"185 1118 LINE"
);
}
);
width = 571;
},
{
anchors = (
{
name = bottom;
position = "{153, 0}";
},
{
name = ogonek;
position = "{169, 26}";
}
);
layerId = "91AB5BCA-6A50-42DA-B2F7-8181BF189245";
paths = (
{
closed = 1;
nodes = (
"189 0 LINE",
"334 1034 LINE",
"261 1034 LINE",
"115 0 LINE"
);
},
{
closed = 1;
nodes = (
"383 1326 LINE",
"399 1446 LINE",
"311 1446 LINE",
"295 1326 LINE"
);
}
);
width = 449;
}
);
leftKerningGroup = n;
leftMetricsKey = n;
rightKerningGroup = u;
rightMetricsKey = "=|n";
unicode = 0069;
},
{
color = 6;
glyphname = idotless;
layers = (
{
anchors = (
{
name = ogonek;
position = "{363, 18}";
},
{
name = top;
position = "{385, 1034}";
}
);
layerId = "258ED206-D907-4350-8EBA-CBDDA1C16BF7";
paths = (
{
closed = 1;
nodes = (
"415 0 LINE",
"573 1034 LINE",
"185 1034 LINE",
"27 0 LINE"
);
}
);
width = 600;
},
{
anchors = (
{
name = ogonek;
position = "{169, 26}";
},
{
name = top;
position = "{288, 1034}";
}
);
layerId = "91AB5BCA-6A50-42DA-B2F7-8181BF189245";
paths = (
{
closed = 1;
nodes = (
"180 0 LINE",
"326 1034 LINE",
"253 1034 LINE",
"108 0 LINE"
);
}
);
width = 433;
}
);
leftKerningGroup = n;
leftMetricsKey = i;
rightKerningGroup = u;
rightMetricsKey = i;
unicode = 0131;
},
{
color = 6;
glyphname = j;
layers = (
{
layerId = "258ED206-D907-4350-8EBA-CBDDA1C16BF7";
paths = (
{
closed = 1;
nodes = (
"267 -332 OFFCURVE",
"419 -200 OFFCURVE",
"457 56 CURVE SMOOTH",
"606 1034 LINE",
"219 1034 LINE",
"70 56 LINE",
"64 14 OFFCURVE",
"41 -12 OFFCURVE",
"-35 -28 CURVE",
"-98 -38 LINE",
"-135 -298 LINE",
"-135 -298 OFFCURVE",
"-109 -332 OFFCURVE",
"-7 -332 CURVE"
);
},
{
closed = 1;
nodes = (
"625 1158 LINE",
"675 1486 LINE",
"287 1486 LINE",
"236 1158 LINE"
);
}
);
width = 639;
},
{
layerId = "91AB5BCA-6A50-42DA-B2F7-8181BF189245";
paths = (
{
closed = 1;
nodes = (
"101 -332 OFFCURVE",
"148 -260 OFFCURVE",
"171 -100 CURVE SMOOTH",
"331 1034 LINE",
"259 1034 LINE",
"101 -90 LINE SMOOTH",
"84 -214 OFFCURVE",
"41 -258 OFFCURVE",
"-54 -260 CURVE SMOOTH",
"-169 -262 LINE",
"-177 -314 LINE SMOOTH",
"-177 -314 OFFCURVE",
"-171 -332 OFFCURVE",
"-63 -332 CURVE SMOOTH"
);
},
{
closed = 1;
nodes = (
"382 1325 LINE",
"398 1445 LINE",
"310 1445 LINE",
"294 1325 LINE"
);
}
);
width = 448;
}
);
leftKerningGroup = j;
rightKerningGroup = u;
rightMetricsKey = "=|n";
unicode = 006A;
},
{
color = 6;
glyphname = jdotless;
layers = (
{
anchors = (
{
name = top;
position = "{411, 1034}";
}
);
layerId = "258ED206-D907-4350-8EBA-CBDDA1C16BF7";
paths = (
{
closed = 1;
nodes = (
"267 -332 OFFCURVE",
"419 -200 OFFCURVE",
"459 56 CURVE SMOOTH",
"606 1034 LINE",
"219 1034 LINE",
"70 56 LINE",
"64 14 OFFCURVE",
"39 -12 OFFCURVE",
"-37 -28 CURVE",
"-98 -38 LINE",
"-135 -298 LINE",
"-135 -298 OFFCURVE",
"-111 -332 OFFCURVE",
"-9 -332 CURVE"
);
}
);
width = 633;
},
{
anchors = (
{
name = top;
position = "{297, 1034}";
}
);
layerId = "91AB5BCA-6A50-42DA-B2F7-8181BF189245";
paths = (
{
closed = 1;
nodes = (
"101 -332 OFFCURVE",
"152 -260 OFFCURVE",
"173 -100 CURVE SMOOTH",
"333 1034 LINE",
"261 1034 LINE",
"103 -90 LINE SMOOTH",
"85 -214 OFFCURVE",
"41 -258 OFFCURVE",
"-53 -260 CURVE SMOOTH",
"-169 -262 LINE",
"-177 -314 LINE SMOOTH",
"-179 -330 OFFCURVE",
"-169 -332 OFFCURVE",
"-60 -332 CURVE SMOOTH"
);
}
);
width = 440;
}
);
leftKerningGroup = j;
leftMetricsKey = j;
rightKerningGroup = u;
rightMetricsKey = j;
unicode = 0237;
},
{
color = 6;
glyphname = k;
layers = (
{
anchors = (
{
name = bottom;
position = "{529, 0}";
}
);
layerId = "258ED206-D907-4350-8EBA-CBDDA1C16BF7";
paths = (
{
closed = 1;
nodes = (
"413 0 LINE",
"459 292 LINE",
"547 380 LINE",
"726 0 LINE",
"1102 0 LINE",
"815 606 LINE",
"1257 1034 LINE",
"854 1034 LINE",
"518 686 LINE",
"640 1486 LINE",
"251 1486 LINE",
"27 0 LINE"
);
}
);
width = 1194;
},
{
anchors = (
{
name = bottom;
position = "{433, 0}";
}
);
layerId = "91AB5BCA-6A50-42DA-B2F7-8181BF189245";
paths = (
{
closed = 1;
nodes = (
"180 0 LINE",
"223 316 LINE",
"514 592 LINE",
"767 0 LINE",
"859 0 LINE",
"578 658 LINE",
"972 1034 LINE",
"870 1034 LINE",
"240 428 LINE",
"388 1486 LINE",
"317 1486 LINE",
"107 0 LINE"
);
}
);
width = 1022;
}
);
leftKerningGroup = n;
leftMetricsKey = n;
rightKerningGroup = k;
rightMetricsKey = "=x";
unicode = 006B;
},
{
color = 6;
glyphname = kgreenlandic;
layers = (
{
layerId = "258ED206-D907-4350-8EBA-CBDDA1C16BF7";
paths = (
{
closed = 1;
nodes = (
"415 0 LINE",
"459 292 LINE",
"615 422 LINE",
"728 0 LINE",
"1163 0 LINE",
"913 700 LINE",
"1293 1034 LINE",
"913 1034 LINE",
"514 644 LINE",
"571 1034 LINE",
"186 1034 LINE",
"27 0 LINE"
);
}
);
width = 1246;
},
{
layerId = "91AB5BCA-6A50-42DA-B2F7-8181BF189245";
paths = (
{
closed = 1;
nodes = (
"180 0 LINE",
"223 316 LINE",
"514 592 LINE",
"767 0 LINE",
"859 0 LINE",
"578 658 LINE",
"970 1034 LINE",
"870 1034 LINE",
"240 428 LINE",
"326 1034 LINE",
"254 1034 LINE",
"107 0 LINE"
);
}
);
width = 1022;
}
);
leftKerningGroup = n;
leftMetricsKey = k;
rightKerningGroup = k;
rightMetricsKey = k;
unicode = 0138;
},
{
color = 6;
glyphname = l;
layers = (
{
anchors = (
{
name = bottom;
position = "{190, 0}";
},
{
name = caron;
position = "{629, 1486}";
},
{
name = top;
position = "{449, 1530}";
}
);
layerId = "258ED206-D907-4350-8EBA-CBDDA1C16BF7";
paths = (
{
closed = 1;
nodes = (
"461 -22 OFFCURVE",
"514 -8 OFFCURVE",
"562 10 CURVE",
"598 246 LINE",
"558 250 LINE",
"455 264 OFFCURVE",
"451 314 OFFCURVE",
"459 364 CURVE SMOOTH",
"629 1486 LINE",
"249 1486 LINE",
"71 312 LINE",
"49 160 OFFCURVE",
"33 -22 OFFCURVE",
"413 -22 CURVE SMOOTH"
);
}
);
width = 701;
},
{
anchors = (
{
name = bottom;
position = "{182, 2}";
},
{
name = caron;
position = "{390, 1486}";
},
{
name = top;
position = "{351, 1524}";
}
);
layerId = "91AB5BCA-6A50-42DA-B2F7-8181BF189245";
paths = (
{
closed = 1;
nodes = (
"295 -8 OFFCURVE",
"321 -6 OFFCURVE",
"346 0 CURVE",
"353 58 LINE",
"295 58 LINE",
"243 58 OFFCURVE",
"195 108 OFFCURVE",
"213 242 CURVE",
"390 1486 LINE",
"317 1486 LINE",
"141 242 LINE",
"121 100 OFFCURVE",
"157 -8 OFFCURVE",
"283 -8 CURVE SMOOTH"
);
}
);
width = 536;
}
);
leftKerningGroup = n;
leftMetricsKey = n;
rightKerningGroup = l;
rightMetricsKey = "=u*.65";
unicode = 006C;
},
{
color = 3;
glyphname = lslash;
layers = (
{
components = (
{
name = l;
transform = "{1, 0, 0, 1, 175, 0}";
}
);
layerId = "258ED206-D907-4350-8EBA-CBDDA1C16BF7";
leftMetricsKey = "=l-30";
rightMetricsKey = "=l";
paths = (
{
closed = 1;
nodes = (
"925 842 LINE",
"925 1148 LINE",
"94 688 LINE",
"94 364 LINE"
);
}
);
width = 944;
},
{
components = (
{
name = l;
transform = "{1, 0, 0, 1, 66, 0}";
}
);
layerId = "91AB5BCA-6A50-42DA-B2F7-8181BF189245";
leftMetricsKey = "=l-110";
paths = (
{
closed = 1;
nodes = (
"520 776 LINE",
"520 862 LINE",
"58 430 LINE",
"58 340 LINE"
);
}
);
width = 622;
}
);
leftKerningGroup = n;
leftMetricsKey = "=l-130";
rightKerningGroup = l;
rightMetricsKey = "=l+20";
unicode = 0142;
},
{
color = 6;
glyphname = m;
layers = (
{
layerId = "258ED206-D907-4350-8EBA-CBDDA1C16BF7";
paths = (
{
closed = 1;
nodes = (
"413 0 LINE",
"518 682 LINE",
"527 742 OFFCURVE",
"596 778 OFFCURVE",
"653 778 CURVE SMOOTH",
"711 778 OFFCURVE",
"770 742 OFFCURVE",
"759 682 CURVE SMOOTH",
"655 0 LINE",
"1041 0 LINE",
"1135 620 LINE SMOOTH",
"1151 716 OFFCURVE",
"1173 778 OFFCURVE",
"1285 778 CURVE SMOOTH",
"1343 778 OFFCURVE",
"1399 742 OFFCURVE",
"1390 682 CURVE SMOOTH",
"1285 0 LINE",
"1673 0 LINE",
"1783 728 LINE SMOOTH",
"1815 934 OFFCURVE",
"1657 1054 OFFCURVE",
"1497 1054 CURVE SMOOTH",
"1388 1054 OFFCURVE",
"1249 998 OFFCURVE",
"1163 910 CURVE",
"1113 1018 OFFCURVE",
"1001 1054 OFFCURVE",
"901 1054 CURVE SMOOTH",
"741 1054 OFFCURVE",
"625 992 OFFCURVE",
"545 910 CURVE",
"565 1034 LINE",
"184 1034 LINE",
"27 0 LINE"
);
}
);
width = 1843;
},
{
layerId = "91AB5BCA-6A50-42DA-B2F7-8181BF189245";
paths = (
{
closed = 1;
nodes = (
"179 0 LINE",
"281 720 LINE SMOOTH",
"307 906 OFFCURVE",
"465 978 OFFCURVE",
"585 978 CURVE SMOOTH",
"690 978 OFFCURVE",
"808 904 OFFCURVE",
"787 752 CURVE SMOOTH",
"683 0 LINE",
"753 0 LINE",
"854 720 LINE SMOOTH",
"883 924 OFFCURVE",
"1049 978 OFFCURVE",
"1159 978 CURVE SMOOTH",
"1283 978 OFFCURVE",
"1387 920 OFFCURVE",
"1352 670 CURVE SMOOTH",
"1259 0 LINE",
"1329 0 LINE",
"1423 670 LINE SMOOTH",
"1471 1002 OFFCURVE",
"1297 1054 OFFCURVE",
"1169 1054 CURVE SMOOTH",
"1041 1054 OFFCURVE",
"927 990 OFFCURVE",
"852 882 CURVE",
"827 994 OFFCURVE",
"707 1054 OFFCURVE",
"597 1054 CURVE SMOOTH",
"449 1054 OFFCURVE",
"356 972 OFFCURVE",
"297 880 CURVE",
"318 1034 LINE",
"253 1034 LINE",
"108 0 LINE"
);
}
);
width = 1562;
}
);
leftKerningGroup = n;
leftMetricsKey = n;
rightKerningGroup = n;
rightMetricsKey = n;
unicode = 006D;
},
{
color = 6;
glyphname = n;
layers = (
{
anchors = (
{
name = bottom;
position = "{537, 0}";
},
{
name = top;
position = "{693, 1034}";
}
);
layerId = "258ED206-D907-4350-8EBA-CBDDA1C16BF7";
paths = (
{
closed = 1;
nodes = (
"415 0 LINE",
"514 646 LINE",
"522 704 OFFCURVE",
"596 740 OFFCURVE",
"653 740 CURVE SMOOTH",
"709 740 OFFCURVE",
"768 704 OFFCURVE",
"757 646 CURVE SMOOTH",
"659 0 LINE",
"1047 0 LINE",
"1153 698 LINE SMOOTH",
"1184 892 OFFCURVE",
"1025 1038 OFFCURVE",
"846 1038 CURVE SMOOTH",
"684 1038 OFFCURVE",
"623 976 OFFCURVE",
"549 910 CURVE",
"567 1034 LINE",
"186 1034 LINE",
"27 0 LINE"
);
}
);
width = 1218;
},
{
anchors = (
{
name = bottom;
position = "{471, 0}";
},
{
name = top;
position = "{633, 1034}";
}
);
layerId = "91AB5BCA-6A50-42DA-B2F7-8181BF189245";
paths = (
{
closed = 1;
nodes = (
"179 0 LINE",
"281 720 LINE SMOOTH",
"305 896 OFFCURVE",
"463 978 OFFCURVE",
"633 978 CURVE SMOOTH",
"793 978 OFFCURVE",
"879 870 OFFCURVE",
"850 670 CURVE SMOOTH",
"755 0 LINE",
"827 0 LINE",
"921 670 LINE SMOOTH",
"959 934 OFFCURVE",
"833 1054 OFFCURVE",
"642 1054 CURVE SMOOTH",
"488 1054 OFFCURVE",
"360 978 OFFCURVE",
"299 880 CURVE",
"318 1034 LINE",
"253 1034 LINE",
"108 0 LINE"
);
}
);
width = 1060;
}
);
leftKerningGroup = n;
rightKerningGroup = n;
unicode = 006E;
},
{
color = 6;
glyphname = eng;
layers = (
{
layerId = "258ED206-D907-4350-8EBA-CBDDA1C16BF7";
paths = (
{
closed = 1;
nodes = (
"775 -332 OFFCURVE",
"947 -184 OFFCURVE",
"981 56 CURVE SMOOTH",
"1077 738 LINE SMOOTH",
"1104 930 OFFCURVE",
"1007 1054 OFFCURVE",
"839 1054 CURVE SMOOTH",
"722 1054 OFFCURVE",
"602 976 OFFCURVE",
"507 872 CURVE",
"529 1034 LINE",
"180 1034 LINE",
"27 0 LINE",
"390 0 LINE",
"485 680 LINE",
"527 746 OFFCURVE",
"573 778 OFFCURVE",
"629 778 CURVE SMOOTH",
"688 778 OFFCURVE",
"719 742 OFFCURVE",
"711 684 CURVE SMOOTH",
"621 50 LINE",
"615 0 OFFCURVE",
"587 -20 OFFCURVE",
"531 -30 CURVE",
"487 -36 LINE",
"449 -306 LINE",
"449 -306 OFFCURVE",
"457 -332 OFFCURVE",
"562 -332 CURVE SMOOTH"
);
}
);
width = 1146;
},
{
layerId = "91AB5BCA-6A50-42DA-B2F7-8181BF189245";
paths = (
{
closed = 1;
nodes = (
"720 -332 OFFCURVE",
"794 -240 OFFCURVE",
"815 -80 CURVE SMOOTH",
"935 766 LINE SMOOTH",
"960 936 OFFCURVE",
"870 1054 OFFCURVE",
"685 1054 CURVE SMOOTH",
"567 1054 OFFCURVE",
"479 1018 OFFCURVE",
"298 878 CURVE",
"319 1034 LINE",
"254 1034 LINE",
"107 0 LINE",
"180 0 LINE",
"292 796 LINE",
"424 908 OFFCURVE",
"552 980 OFFCURVE",
"666 980 CURVE SMOOTH",
"836 980 OFFCURVE",
"880 876 OFFCURVE",
"857 724 CURVE SMOOTH",
"744 -90 LINE SMOOTH",
"725 -214 OFFCURVE",
"680 -262 OFFCURVE",
"584 -264 CURVE SMOOTH",
"483 -266 LINE",
"475 -314 LINE SMOOTH",
"473 -330 OFFCURVE",
"485 -332 OFFCURVE",
"578 -332 CURVE SMOOTH"
);
}
);
width = 1080;
}
);
leftKerningGroup = n;
leftMetricsKey = n;
rightKerningGroup = n;
rightMetricsKey = j;
unicode = 014B;
},
{
color = 6;
glyphname = o;
layers = (
{
anchors = (
{
name = bottom;
position = "{498, 0}";
},
{
name = horn;
position = "{971, 668}";
},
{
name = ogonek;
position = "{658, 20}";
},
{
name = top;
position = "{660, 1034}";
}
);
layerId = "258ED206-D907-4350-8EBA-CBDDA1C16BF7";
paths = (
{
closed = 1;
nodes = (
"819 -20 OFFCURVE",
"1055 202 OFFCURVE",
"1103 510 CURVE SMOOTH",
"1151 824 OFFCURVE",
"987 1054 OFFCURVE",
"664 1054 CURVE SMOOTH",
"359 1054 OFFCURVE",
"109 836 OFFCURVE",
"59 510 CURVE SMOOTH",
"13 200 OFFCURVE",
"181 -20 OFFCURVE",
"498 -20 CURVE SMOOTH"
);
},
{
closed = 1;
nodes = (
"419 262 OFFCURVE",
"421 414 OFFCURVE",
"437 524 CURVE SMOOTH",
"452 636 OFFCURVE",
"496 776 OFFCURVE",
"622 776 CURVE SMOOTH",
"744 776 OFFCURVE",
"746 636 OFFCURVE",
"729 524 CURVE SMOOTH",
"713 414 OFFCURVE",
"667 262 OFFCURVE",
"545 262 CURVE SMOOTH"
);
}
);
width = 1164;
},
{
anchors = (
{
name = bottom;
position = "{426, 0}";
},
{
name = horn;
position = "{842, 714}";
},
{
name = ogonek;
position = "{531, 20}";
},
{
name = top;
position = "{561, 1034}";
}
);
layerId = "91AB5BCA-6A50-42DA-B2F7-8181BF189245";
paths = (
{
closed = 1;
nodes = (
"734 -20 OFFCURVE",
"892 194 OFFCURVE",
"934 514 CURVE SMOOTH",
"981 881 OFFCURVE",
"840 1054 OFFCURVE",
"595 1054 CURVE SMOOTH",
"312 1054 OFFCURVE",
"152 838 OFFCURVE",
"110 514 CURVE SMOOTH",
"62 151 OFFCURVE",
"206 -20 OFFCURVE",
"455 -20 CURVE SMOOTH"
);
},
{
closed = 1;
nodes = (
"234 54 OFFCURVE",
"150 238 OFFCURVE",
"186 514 CURVE SMOOTH",
"227 830 OFFCURVE",
"381 978 OFFCURVE",
"585 978 CURVE SMOOTH",
"812 978 OFFCURVE",
"895 792 OFFCURVE",
"859 514 CURVE SMOOTH",
"818 201 OFFCURVE",
"665 54 OFFCURVE",
"465 54 CURVE SMOOTH"
);
}
);
width = 1044;
}
);
leftKerningGroup = o;
rightKerningGroup = o;
unicode = 006F;
},
{
color = 6;
glyphname = ohorn;
layers = (
{
anchors = (
{
name = bottom;
position = "{426, 0}";
},
{
name = horn;
position = "{842, 714}";
},
{
name = ogonek;
position = "{531, 20}";
},
{
name = top;
position = "{561, 1034}";
},
{
name = topright;
position = "{1029, 794}";
}
);
layerId = "91AB5BCA-6A50-42DA-B2F7-8181BF189245";
paths = (
{
closed = 1;
nodes = (
"734 -20 OFFCURVE",
"892 194 OFFCURVE",
"934 514 CURVE SMOOTH",
"952 656 OFFCURVE",
"942 769 OFFCURVE",
"909 854 CURVE",
"1029 862 OFFCURVE",
"1100 949 OFFCURVE",
"1123 1114 CURVE",
"1036 1114 LINE",
"1013 971 OFFCURVE",
"966 929 OFFCURVE",
"869 929 CURVE",
"809 1013 OFFCURVE",
"714 1054 OFFCURVE",
"595 1054 CURVE SMOOTH",
"312 1054 OFFCURVE",
"152 838 OFFCURVE",
"110 514 CURVE SMOOTH",
"62 151 OFFCURVE",
"206 -20 OFFCURVE",
"455 -20 CURVE SMOOTH"
);
},
{
closed = 1;
nodes = (
"234 54 OFFCURVE",
"150 238 OFFCURVE",
"186 514 CURVE SMOOTH",
"227 830 OFFCURVE",
"381 978 OFFCURVE",
"585 978 CURVE SMOOTH",
"812 978 OFFCURVE",
"895 792 OFFCURVE",
"859 514 CURVE SMOOTH",
"818 201 OFFCURVE",
"665 54 OFFCURVE",
"465 54 CURVE SMOOTH"
);
}
);
width = 1079;
},
{
anchors = (
{
name = bottom;
position = "{498, 0}";
},
{
name = horn;
position = "{971, 668}";
},
{
name = ogonek;
position = "{658, 20}";
},
{
name = top;
position = "{660, 1034}";
},
{
name = topright;
position = "{1189, 848}";
}
);
layerId = "258ED206-D907-4350-8EBA-CBDDA1C16BF7";
paths = (
{
closed = 1;
nodes = (
"819 -20 OFFCURVE",
"1055 202 OFFCURVE",
"1103 510 CURVE SMOOTH",
"1114 583 OFFCURVE",
"1114 652 OFFCURVE",
"1103 714 CURVE",
"1280 744 OFFCURVE",
"1349 869 OFFCURVE",
"1389 1112 CURVE",
"1155 1112 LINE",
"1118 956 OFFCURVE",
"1084 909 OFFCURVE",
"1025 896 CURVE",
"950 995 OFFCURVE",
"828 1054 OFFCURVE",
"664 1054 CURVE SMOOTH",
"359 1054 OFFCURVE",
"109 836 OFFCURVE",
"59 510 CURVE SMOOTH",
"13 200 OFFCURVE",
"181 -20 OFFCURVE",
"498 -20 CURVE SMOOTH"
);
},
{
closed = 1;
nodes = (
"419 262 OFFCURVE",
"421 414 OFFCURVE",
"437 524 CURVE SMOOTH",
"452 636 OFFCURVE",
"496 776 OFFCURVE",
"622 776 CURVE SMOOTH",
"744 776 OFFCURVE",
"746 636 OFFCURVE",
"729 524 CURVE SMOOTH",
"713 414 OFFCURVE",
"667 262 OFFCURVE",
"545 262 CURVE SMOOTH"
);
}
);
width = 1352;
}
);
leftKerningGroup = o;
leftMetricsKey = o;
rightKerningGroup = ohorn;
unicode = 01A1;
},
{
color = 3;
glyphname = oogonek;
layers = (
{
anchors = (
{
name = _ogonek;
position = "{658, 20}";
}
);
components = (
{
name = o;
}
);
layerId = "258ED206-D907-4350-8EBA-CBDDA1C16BF7";
paths = (
{
closed = 1;
nodes = (
"536 -340 OFFCURVE",
"632 -312 OFFCURVE",
"676 -286 CURVE",
"700 -122 LINE",
"648 -150 OFFCURVE",
"606 -172 OFFCURVE",
"548 -172 CURVE SMOOTH",
"512 -172 OFFCURVE",
"498 -154 OFFCURVE",
"502 -116 CURVE SMOOTH",
"510 -72 OFFCURVE",
"548 -36 OFFCURVE",
"702 12 CURVE",
"436 12 LINE",
"278 -42 OFFCURVE",
"238 -104 OFFCURVE",
"228 -170 CURVE SMOOTH",
"210 -286 OFFCURVE",
"296 -340 OFFCURVE",
"438 -340 CURVE SMOOTH"
);
}
);
width = 1164;
},
{
anchors = (
{
name = _ogonek;
position = "{531, 20}";
}
);
components = (
{
name = o;
}
);
layerId = "91AB5BCA-6A50-42DA-B2F7-8181BF189245";
paths = (
{
closed = 1;
nodes = (
"459 -332 OFFCURVE",
"519 -314 OFFCURVE",
"549 -298 CURVE",
"559 -236 LINE",
"541 -246 OFFCURVE",
"485 -266 OFFCURVE",
"423 -266 CURVE SMOOTH",
"349 -266 OFFCURVE",
"325 -238 OFFCURVE",
"331 -184 CURVE SMOOTH",
"343 -108 OFFCURVE",
"411 -60 OFFCURVE",
"539 0 CURVE",
"479 18 LINE",
"323 -30 OFFCURVE",
"265 -94 OFFCURVE",
"253 -180 CURVE SMOOTH",
"241 -268 OFFCURVE",
"281 -332 OFFCURVE",
"396 -332 CURVE SMOOTH"
);
}
);
width = 1044;
}
);
leftKerningGroup = o;
rightKerningGroup = o;
unicode = 01EB;
},
{
color = 3;
glyphname = oslash;
layers = (
{
anchors = (
{
name = top;
position = "{568, 1034}";
}
);
components = (
{
name = o;
transform = "{1, 0, 0, 1, 18, 0}";
}
);
layerId = "258ED206-D907-4350-8EBA-CBDDA1C16BF7";
paths = (
{
closed = 1;
nodes = (
"1132 926 LINE",
"1018 1050 LINE",
"2 106 LINE",
"118 -18 LINE"
);
}
);
width = 1192;
},
{
anchors = (
{
name = top;
position = "{496, 1034}";
}
);
components = (
{
name = o;
transform = "{1, 0, 0, 1, -76, 0}";
}
);
layerId = "91AB5BCA-6A50-42DA-B2F7-8181BF189245";
paths = (
{
closed = 1;
nodes = (
"1024 982 LINE",
"970 1038 LINE",
"-36 48 LINE",
"18 -8 LINE"
);
}
);
width = 989;
}
);
leftKerningGroup = o;
rightKerningGroup = o;
unicode = 00F8;
},
{
color = 6;
glyphname = oe;
layers = (
{
anchors = (
{
name = top;
position = "{991, 1034}";
}
);
layerId = "258ED206-D907-4350-8EBA-CBDDA1C16BF7";
paths = (
{
closed = 1;
nodes = (
"1205 1054 OFFCURVE",
"1085 1010 OFFCURVE",
"989 938 CURVE",
"913 1011 OFFCURVE",
"803 1054 OFFCURVE",
"664 1054 CURVE SMOOTH",
"359 1054 OFFCURVE",
"109 836 OFFCURVE",
"59 510 CURVE SMOOTH",
"13 200 OFFCURVE",
"181 -20 OFFCURVE",
"498 -20 CURVE SMOOTH",
"637 -20 OFFCURVE",
"759 21 OFFCURVE",
"858 93 CURVE",
"938 21 OFFCURVE",
"1054 -20 OFFCURVE",
"1195 -20 CURVE SMOOTH",
"1424 -20 OFFCURVE",
"1679 122 OFFCURVE",
"1745 352 CURVE",
"1403 352 LINE",
"1359 272 OFFCURVE",
"1298 252 OFFCURVE",
"1227 252 CURVE SMOOTH",
"1143 252 OFFCURVE",
"1082 304 OFFCURVE",
"1105 428 CURVE",
"1752 428 LINE",
"1767 518 LINE SMOOTH",
"1818 823 OFFCURVE",
"1679 1054 OFFCURVE",
"1342 1054 CURVE SMOOTH"
);
},
{
closed = 1;
nodes = (
"419 262 OFFCURVE",
"421 414 OFFCURVE",
"437 524 CURVE SMOOTH",
"452 636 OFFCURVE",
"496 776 OFFCURVE",
"622 776 CURVE SMOOTH",
"744 776 OFFCURVE",
"746 636 OFFCURVE",
"729 524 CURVE SMOOTH",
"713 414 OFFCURVE",
"667 262 OFFCURVE",
"545 262 CURVE SMOOTH"
);
},
{
closed = 1;
nodes = (
"1147 724 OFFCURVE",
"1223 792 OFFCURVE",
"1302 792 CURVE SMOOTH",
"1401 792 OFFCURVE",
"1441 724 OFFCURVE",
"1429 646 CURVE",
"1134 646 LINE"
);
}
);
width = 1834;
},
{
anchors = (
{
name = top;
position = "{953, 1034}";
}
);
layerId = "91AB5BCA-6A50-42DA-B2F7-8181BF189245";
paths = (
{
closed = 1;
nodes = (
"1165 1054 OFFCURVE",
"1019 948 OFFCURVE",
"934 761 CURVE",
"901 959 OFFCURVE",
"776 1054 OFFCURVE",
"595 1054 CURVE SMOOTH",
"312 1054 OFFCURVE",
"152 838 OFFCURVE",
"110 514 CURVE SMOOTH",
"62 151 OFFCURVE",
"206 -20 OFFCURVE",
"455 -20 CURVE SMOOTH",
"652 -20 OFFCURVE",
"789 87 OFFCURVE",
"867 263 CURVE",
"905 79 OFFCURVE",
"1033 -20 OFFCURVE",
"1215 -20 CURVE SMOOTH",
"1387 -20 OFFCURVE",
"1561 75 OFFCURVE",
"1627 276 CURVE",
"1549 276 LINE",
"1507 140 OFFCURVE",
"1378 56 OFFCURVE",
"1226 56 CURVE SMOOTH",
"983 56 OFFCURVE",
"908 264 OFFCURVE",
"941 498 CURVE",
"1670 498 LINE",
"1677 554 LINE SMOOTH",
"1717 873 OFFCURVE",
"1602 1054 OFFCURVE",
"1355 1054 CURVE SMOOTH"
);
},
{
closed = 1;
nodes = (
"234 54 OFFCURVE",
"150 238 OFFCURVE",
"186 514 CURVE SMOOTH",
"227 830 OFFCURVE",
"381 978 OFFCURVE",
"585 978 CURVE SMOOTH",
"812 978 OFFCURVE",
"895 792 OFFCURVE",
"859 514 CURVE SMOOTH",
"818 201 OFFCURVE",
"665 54 OFFCURVE",
"465 54 CURVE SMOOTH"
);
},
{
closed = 1;
nodes = (
"979 768 OFFCURVE",
"1107 978 OFFCURVE",
"1343 978 CURVE SMOOTH",
"1559 978 OFFCURVE",
"1636 804 OFFCURVE",
"1603 574 CURVE",
"953 574 LINE"
);
}
);
width = 1794;
}
);
leftKerningGroup = o;
leftMetricsKey = o;
rightKerningGroup = o;
rightMetricsKey = e;
unicode = 0153;
},
{
color = 6;
glyphname = p;
layers = (
{
layerId = "258ED206-D907-4350-8EBA-CBDDA1C16BF7";
paths = (
{
closed = 1;
nodes = (
"371 -322 LINE",
"434 126 LINE",
"487 20 OFFCURVE",
"593 -20 OFFCURVE",
"678 -20 CURVE SMOOTH",
"898 -20 OFFCURVE",
"1120 126 OFFCURVE",
"1176 520 CURVE SMOOTH",
"1227 886 OFFCURVE",
"1087 1054 OFFCURVE",
"871 1054 CURVE SMOOTH",
"774 1054 OFFCURVE",
"640 1020 OFFCURVE",
"547 914 CURVE",
"564 1034 LINE",
"173 1034 LINE",
"-18 -322 LINE"
);
},
{
closed = 1;
nodes = (
"501 258 OFFCURVE",
"472 393 OFFCURVE",
"490 520 CURVE SMOOTH",
"509 660 OFFCURVE",
"574 780 OFFCURVE",
"688 780 CURVE SMOOTH",
"774 780 OFFCURVE",
"839 688 OFFCURVE",
"816 520 CURVE SMOOTH",
"790 334 OFFCURVE",
"701 258 OFFCURVE",
"615 258 CURVE"
);
}
);
width = 1236;
},
{
layerId = "91AB5BCA-6A50-42DA-B2F7-8181BF189245";
paths = (
{
closed = 1;
nodes = (
"151 -322 LINE",
"221 219 LINE",
"240 140 OFFCURVE",
"301 -20 OFFCURVE",
"521 -20 CURVE SMOOTH",
"798 -20 OFFCURVE",
"958 202 OFFCURVE",
"1001 536 CURVE SMOOTH",
"1047 888 OFFCURVE",
"906 1054 OFFCURVE",
"661 1054 CURVE SMOOTH",
"441 1054 OFFCURVE",
"337 896 OFFCURVE",
"300 822 CURVE",
"323 1034 LINE",
"253 1034 LINE",
"77 -322 LINE"
);
},
{
closed = 1;
nodes = (
"314 54 OFFCURVE",
"223 254 OFFCURVE",
"259 528 CURVE SMOOTH",
"294 802 OFFCURVE",
"435 978 OFFCURVE",
"651 978 CURVE SMOOTH",
"875 978 OFFCURVE",
"958 798 OFFCURVE",
"922 528 CURVE SMOOTH",
"881 206 OFFCURVE",
"729 54 OFFCURVE",
"531 54 CURVE SMOOTH"
);
}
);
width = 1108;
}
);
leftKerningGroup = n;
leftMetricsKey = n;
rightKerningGroup = o;
rightMetricsKey = o;
unicode = 0070;
},
{
color = 6;
glyphname = thorn;
layers = (
{
layerId = "258ED206-D907-4350-8EBA-CBDDA1C16BF7";
paths = (
{
closed = 1;
nodes = (
"370 -322 LINE",
"431 70 LINE SMOOTH",
"437 110 OFFCURVE",
"442 108 OFFCURVE",
"471 80 CURVE SMOOTH",
"540 2 OFFCURVE",
"616 -20 OFFCURVE",
"704 -20 CURVE SMOOTH",
"920 -20 OFFCURVE",
"1120 126 OFFCURVE",
"1179 520 CURVE SMOOTH",
"1234 886 OFFCURVE",
"1097 1054 OFFCURVE",
"880 1054 CURVE SMOOTH",
"746 1054 OFFCURVE",
"654 1002 OFFCURVE",
"561 914 CURVE",
"641 1446 LINE",
"250 1446 LINE",
"-18 -322 LINE"
);
},
{
closed = 1;
nodes = (
"524 216 OFFCURVE",
"488 248 OFFCURVE",
"464 294 CURVE",
"526 708 LINE SMOOTH",
"536 770 OFFCURVE",
"603 818 OFFCURVE",
"679 818 CURVE SMOOTH",
"780 818 OFFCURVE",
"824 758 OFFCURVE",
"790 532 CURVE SMOOTH",
"752 282 OFFCURVE",
"685 216 OFFCURVE",
"586 216 CURVE SMOOTH"
);
}
);
width = 1239;
},
{
layerId = "91AB5BCA-6A50-42DA-B2F7-8181BF189245";
paths = (
{
closed = 1;
nodes = (
"136 -322 LINE",
"189 64 LINE SMOOTH",
"193 90 OFFCURVE",
"200 96 OFFCURVE",
"216 78 CURVE SMOOTH",
"262 32 OFFCURVE",
"344 -20 OFFCURVE",
"468 -20 CURVE SMOOTH",
"729 -20 OFFCURVE",
"930 204 OFFCURVE",
"975 536 CURVE SMOOTH",
"1023 882 OFFCURVE",
"868 1054 OFFCURVE",
"638 1054 CURVE SMOOTH",
"437 1054 OFFCURVE",
"336 918 OFFCURVE",
"302 880 CURVE",
"380 1446 LINE",
"311 1446 LINE",
"63 -322 LINE"
);
},
{
closed = 1;
nodes = (
"366 54 OFFCURVE",
"284 112 OFFCURVE",
"210 202 CURVE",
"279 710 LINE SMOOTH",
"298 826 OFFCURVE",
"439 978 OFFCURVE",
"618 978 CURVE SMOOTH",
"798 978 OFFCURVE",
"941 838 OFFCURVE",
"899 528 CURVE SMOOTH",
"857 232 OFFCURVE",
"682 54 OFFCURVE",
"475 54 CURVE SMOOTH"
);
}
);
width = 1082;
}
);
leftKerningGroup = n;
leftMetricsKey = n;
rightKerningGroup = o;
rightMetricsKey = o;
unicode = 00FE;
},
{
color = 6;
glyphname = q;
layers = (
{
layerId = "258ED206-D907-4350-8EBA-CBDDA1C16BF7";
paths = (
{
closed = 1;
nodes = (
"1016 -322 LINE",
"1207 1034 LINE",
"816 1034 LINE",
"799 914 LINE",
"736 1020 OFFCURVE",
"612 1054 OFFCURVE",
"515 1054 CURVE SMOOTH",
"299 1054 OFFCURVE",
"111 886 OFFCURVE",
"60 520 CURVE SMOOTH",
"4 126 OFFCURVE",
"186 -20 OFFCURVE",
"406 -20 CURVE SMOOTH",
"491 -20 OFFCURVE",
"607 20 OFFCURVE",
"690 126 CURVE",
"627 -322 LINE"
);
},
{
closed = 1;
nodes = (
"461 258 OFFCURVE",
"394 334 OFFCURVE",
"420 520 CURVE SMOOTH",
"443 688 OFFCURVE",
"534 780 OFFCURVE",
"620 780 CURVE SMOOTH",
"734 780 OFFCURVE",
"765 660 OFFCURVE",
"746 520 CURVE",
"728 393 OFFCURVE",
"661 258 OFFCURVE",
"547 258 CURVE"
);
}
);
width = 1234;
},
{
layerId = "91AB5BCA-6A50-42DA-B2F7-8181BF189245";
paths = (
{
closed = 1;
nodes = (
"814 -322 LINE",
"990 1034 LINE",
"920 1034 LINE",
"889 822 LINE",
"871 896 OFFCURVE",
"808 1054 OFFCURVE",
"587 1054 CURVE SMOOTH",
"311 1054 OFFCURVE",
"153 847 OFFCURVE",
"113 536 CURVE SMOOTH",
"63 158 OFFCURVE",
"203 -20 OFFCURVE",
"448 -20 CURVE SMOOTH",
"668 -20 OFFCURVE",
"771 140 OFFCURVE",
"810 219 CURVE",
"740 -322 LINE"
);
},
{
closed = 1;
nodes = (
"233 54 OFFCURVE",
"152 244 OFFCURVE",
"189 528 CURVE SMOOTH",
"229 834 OFFCURVE",
"379 978 OFFCURVE",
"578 978 CURVE SMOOTH",
"794 978 OFFCURVE",
"889 802 OFFCURVE",
"853 528 CURVE SMOOTH",
"818 254 OFFCURVE",
"674 54 OFFCURVE",
"457 54 CURVE SMOOTH"
);
}
);
width = 1112;
}
);
leftKerningGroup = o;
leftMetricsKey = o;
rightKerningGroup = u;
rightMetricsKey = "=|n";
unicode = 0071;
},
{
color = 6;
glyphname = r;
layers = (
{
anchors = (
{
name = bottom;
position = "{217, 0}";
},
{
name = top;
position = "{556, 1034}";
}
);
layerId = "258ED206-D907-4350-8EBA-CBDDA1C16BF7";
paths = (
{
closed = 1;
nodes = (
"417 0 LINE",
"487 496 LINE SMOOTH",
"502 604 OFFCURVE",
"564 718 OFFCURVE",
"850 688 CURVE",
"856 687 OFFCURVE",
"858 687 OFFCURVE",
"862 686 CURVE",
"914 1054 LINE",
"914 1054 OFFCURVE",
"908 1054 OFFCURVE",
"899 1054 CURVE",
"707 1054 OFFCURVE",
"579 914 OFFCURVE",
"509 748 CURVE",
"549 1034 LINE",
"173 1034 LINE",
"28 0 LINE"
);
}
);
width = 849;
},
{
anchors = (
{
name = bottom;
position = "{133, 0}";
},
{
name = top;
position = "{399, 1034}";
}
);
layerId = "91AB5BCA-6A50-42DA-B2F7-8181BF189245";
rightMetricsKey = "=x";
paths = (
{
closed = 1;
nodes = (
"180 0 LINE",
"281 720 LINE SMOOTH",
"310 926 OFFCURVE",
"483 972 OFFCURVE",
"574 972 CURVE",
"601 972 OFFCURVE",
"652 967 OFFCURVE",
"676 954 CURVE",
"687 1034 LINE",
"665 1048 OFFCURVE",
"624 1054 OFFCURVE",
"586 1054 CURVE",
"494 1054 OFFCURVE",
"367 1020 OFFCURVE",
"298 880 CURVE",
"319 1034 LINE",
"253 1034 LINE",
"107 0 LINE"
);
}
);
width = 705;
}
);
leftKerningGroup = n;
leftMetricsKey = n;
rightKerningGroup = r;
rightMetricsKey = x;
unicode = 0072;
},
{
color = 6;
glyphname = s;
layers = (
{
anchors = (
{
name = bottom;
position = "{478, 0}";
},
{
name = top;
position = "{635, 1034}";
}
);
layerId = "258ED206-D907-4350-8EBA-CBDDA1C16BF7";
paths = (
{
closed = 1;
nodes = (
"745 -20 OFFCURVE",
"967 98 OFFCURVE",
"998 320 CURVE SMOOTH",
"1010 406 OFFCURVE",
"989 580 OFFCURVE",
"732 644 CURVE",
"602 668 LINE",
"494 686 OFFCURVE",
"453 706 OFFCURVE",
"458 742 CURVE SMOOTH",
"463 782 OFFCURVE",
"523 804 OFFCURVE",
"595 804 CURVE SMOOTH",
"666 804 OFFCURVE",
"724 774 OFFCURVE",
"730 712 CURVE",
"1047 712 LINE",
"1077 922 OFFCURVE",
"917 1054 OFFCURVE",
"635 1054 CURVE SMOOTH",
"333 1054 OFFCURVE",
"142 902 OFFCURVE",
"117 710 CURVE SMOOTH",
"93 524 OFFCURVE",
"212 430 OFFCURVE",
"405 394 CURVE",
"554 370 LINE",
"645 356 OFFCURVE",
"674 336 OFFCURVE",
"668 298 CURVE SMOOTH",
"662 256 OFFCURVE",
"601 236 OFFCURVE",
"515 236 CURVE SMOOTH",
"481 236 OFFCURVE",
"378 248 OFFCURVE",
"366 348 CURVE",
"36 348 LINE",
"43 84 OFFCURVE",
"265 -20 OFFCURVE",
"481 -20 CURVE SMOOTH"
);
}
);
width = 1092;
},
{
anchors = (
{
name = bottom;
position = "{409, 0}";
},
{
name = top;
position = "{548, 1034}";
}
);
layerId = "91AB5BCA-6A50-42DA-B2F7-8181BF189245";
leftMetricsKey = "=x*1.25";
rightMetricsKey = "=x*1.15";
paths = (
{
closed = 1;
nodes = (
"631 -20 OFFCURVE",
"754 96 OFFCURVE",
"778 270 CURVE SMOOTH",
"794 380 OFFCURVE",
"757 481 OFFCURVE",
"623 523 CURVE SMOOTH",
"405 591 LINE SMOOTH",
"302 623 OFFCURVE",
"246 670 OFFCURVE",
"259 764 CURVE SMOOTH",
"279 910 OFFCURVE",
"390 978 OFFCURVE",
"541 978 CURVE SMOOTH",
"686 978 OFFCURVE",
"753 899 OFFCURVE",
"749 780 CURVE",
"826 780 LINE",
"843 966 OFFCURVE",
"731 1054 OFFCURVE",
"551 1054 CURVE SMOOTH",
"328 1054 OFFCURVE",
"207 938 OFFCURVE",
"183 764 CURVE SMOOTH",
"164 626 OFFCURVE",
"241 555 OFFCURVE",
"374 513 CURVE SMOOTH",
"593 445 LINE SMOOTH",
"677 418 OFFCURVE",
"715 362 OFFCURVE",
"702 266 CURVE SMOOTH",
"682 123 OFFCURVE",
"570 56 OFFCURVE",
"415 56 CURVE SMOOTH",
"245 56 OFFCURVE",
"162 144 OFFCURVE",
"156 276 CURVE",
"79 276 LINE",
"72 75 OFFCURVE",
"203 -20 OFFCURVE",
"404 -20 CURVE SMOOTH"
);
}
);
width = 917;
}
);
leftKerningGroup = s;
leftMetricsKey = o;
rightKerningGroup = s;
rightMetricsKey = "=o*1.1";
unicode = 0073;
},
{
color = 3;
glyphname = scedilla;
layers = (
{
anchors = (
{
name = _bottom;
position = "{478, 0}";
}
);
components = (
{
name = s;
}
);
layerId = "258ED206-D907-4350-8EBA-CBDDA1C16BF7";
paths = (
{
closed = 1;
nodes = (
"558 -438 OFFCURVE",
"690 -372 OFFCURVE",
"706 -268 CURVE SMOOTH",
"716 -194 OFFCURVE",
"670 -104 OFFCURVE",
"508 -104 CURVE",
"566 10 LINE",
"410 10 LINE",
"310 -162 LINE SMOOTH",
"296 -184 OFFCURVE",
"306 -186 OFFCURVE",
"326 -186 CURVE SMOOTH",
"460 -186 OFFCURVE",
"498 -214 OFFCURVE",
"492 -262 CURVE SMOOTH",
"486 -294 OFFCURVE",
"446 -314 OFFCURVE",
"392 -314 CURVE SMOOTH",
"334 -314 OFFCURVE",
"274 -288 OFFCURVE",
"232 -262 CURVE",
"166 -380 LINE",
"236 -426 OFFCURVE",
"328 -438 OFFCURVE",
"422 -438 CURVE SMOOTH"
);
}
);
width = 1092;
},
{
anchors = (
{
name = _bottom;
position = "{409, 0}";
}
);
components = (
{
name = s;
}
);
layerId = "91AB5BCA-6A50-42DA-B2F7-8181BF189245";
paths = (
{
closed = 1;
nodes = (
"403 -398 OFFCURVE",
"491 -350 OFFCURVE",
"505 -252 CURVE SMOOTH",
"513 -190 OFFCURVE",
"491 -124 OFFCURVE",
"381 -114 CURVE",
"445 10 LINE",
"383 10 LINE",
"295 -154 LINE SMOOTH",
"291 -158 OFFCURVE",
"291 -162 OFFCURVE",
"301 -162 CURVE SMOOTH",
"393 -166 OFFCURVE",
"435 -194 OFFCURVE",
"425 -256 CURVE SMOOTH",
"417 -310 OFFCURVE",
"383 -340 OFFCURVE",
"307 -340 CURVE SMOOTH",
"251 -340 OFFCURVE",
"225 -322 OFFCURVE",
"203 -296 CURVE",
"175 -352 LINE",
"209 -382 OFFCURVE",
"251 -398 OFFCURVE",
"307 -398 CURVE SMOOTH"
);
}
);
width = 917;
}
);
leftKerningGroup = s;
rightKerningGroup = s;
unicode = 015F;
},
{
color = 6;
glyphname = germandbls;
layers = (
{
layerId = "258ED206-D907-4350-8EBA-CBDDA1C16BF7";
paths = (
{
closed = 1;
nodes = (
"930 -20 OFFCURVE",
"1107 108 OFFCURVE",
"1142 350 CURVE SMOOTH",
"1177 610 OFFCURVE",
"1003 702 OFFCURVE",
"817 800 CURVE SMOOTH",
"808 804 OFFCURVE",
"806 810 OFFCURVE",
"806 816 CURVE SMOOTH",
"808 820 OFFCURVE",
"812 826 OFFCURVE",
"817 828 CURVE SMOOTH",
"1016 910 OFFCURVE",
"1098 996 OFFCURVE",
"1115 1132 CURVE SMOOTH",
"1146 1340 OFFCURVE",
"1001 1446 OFFCURVE",
"737 1446 CURVE SMOOTH",
"354 1446 OFFCURVE",
"205 1202 OFFCURVE",
"163 968 CURVE",
"29 0 LINE",
"381 0 LINE",
"527 1044 LINE SMOOTH",
"539 1132 OFFCURVE",
"598 1204 OFFCURVE",
"691 1204 CURVE SMOOTH",
"768 1204 OFFCURVE",
"799 1160 OFFCURVE",
"791 1108 CURVE SMOOTH",
"783 1044 OFFCURVE",
"724 998 OFFCURVE",
"663 940 CURVE SMOOTH",
"609 888 OFFCURVE",
"556 820 OFFCURVE",
"539 718 CURVE SMOOTH",
"520 576 OFFCURVE",
"591 486 OFFCURVE",
"699 430 CURVE SMOOTH",
"785 386 OFFCURVE",
"827 364 OFFCURVE",
"819 308 CURVE SMOOTH",
"812 246 OFFCURVE",
"757 220 OFFCURVE",
"701 220 CURVE SMOOTH",
"638 220 OFFCURVE",
"600 254 OFFCURVE",
"573 276 CURVE",
"443 44 LINE",
"493 8 OFFCURVE",
"565 -20 OFFCURVE",
"675 -20 CURVE SMOOTH"
);
}
);
width = 1231;
},
{
layerId = "91AB5BCA-6A50-42DA-B2F7-8181BF189245";
paths = (
{
closed = 1;
nodes = (
"705 -20 OFFCURVE",
"877 94 OFFCURVE",
"907 308 CURVE SMOOTH",
"942 558 OFFCURVE",
"741 618 OFFCURVE",
"633 658 CURVE SMOOTH",
"531 694 OFFCURVE",
"499 710 OFFCURVE",
"507 776 CURVE SMOOTH",
"516 844 OFFCURVE",
"558 866 OFFCURVE",
"677 930 CURVE SMOOTH",
"781 986 OFFCURVE",
"892 1030 OFFCURVE",
"915 1188 CURVE SMOOTH",
"931 1306 OFFCURVE",
"891 1446 OFFCURVE",
"679 1446 CURVE SMOOTH",
"461 1446 OFFCURVE",
"289 1292 OFFCURVE",
"253 1034 CURVE",
"108 0 LINE",
"181 0 LINE",
"329 1044 LINE SMOOTH",
"358 1268 OFFCURVE",
"493 1372 OFFCURVE",
"652 1372 CURVE SMOOTH",
"789 1372 OFFCURVE",
"854 1304 OFFCURVE",
"841 1194 CURVE SMOOTH",
"823 1074 OFFCURVE",
"730 1038 OFFCURVE",
"646 994 CURVE SMOOTH",
"509 924 OFFCURVE",
"444 872 OFFCURVE",
"431 774 CURVE SMOOTH",
"413 636 OFFCURVE",
"516 608 OFFCURVE",
"599 580 CURVE SMOOTH",
"726 534 OFFCURVE",
"856 482 OFFCURVE",
"831 302 CURVE SMOOTH",
"808 146 OFFCURVE",
"690 54 OFFCURVE",
"522 54 CURVE SMOOTH",
"433 54 OFFCURVE",
"385 80 OFFCURVE",
"329 118 CURVE",
"278 52 LINE",
"337 6 OFFCURVE",
"442 -20 OFFCURVE",
"524 -20 CURVE SMOOTH"
);
}
);
width = 1040;
}
);
leftKerningGroup = n;
leftMetricsKey = n;
rightKerningGroup = s;
rightMetricsKey = s;
unicode = 00DF;
},
{
color = 6;
glyphname = t;
layers = (
{
anchors = (
{
name = bottom;
position = "{425, 18}";
},
{
name = caron;
position = "{675, 1586}";
},
{
name = center;
position = "{429, 516}";
}
);
layerId = "258ED206-D907-4350-8EBA-CBDDA1C16BF7";
paths = (
{
closed = 1;
nodes = (
"643 -16 OFFCURVE",
"698 2 OFFCURVE",
"729 16 CURVE",
"763 246 LINE",
"603 246 LINE SMOOTH",
"568 246 OFFCURVE",
"542 256 OFFCURVE",
"549 302 CURVE SMOOTH",
"618 770 LINE",
"843 770 LINE",
"883 1036 LINE",
"658 1036 LINE",
"706 1356 LINE",
"393 1356 LINE",
"286 1034 LINE",
"106 1034 LINE",
"66 770 LINE",
"232 770 LINE",
"158 284 LINE SMOOTH",
"133 118 OFFCURVE",
"194 -16 OFFCURVE",
"519 -16 CURVE SMOOTH"
);
}
);
width = 880;
},
{
anchors = (
{
name = bottom;
position = "{350, 0}";
},
{
name = caron;
position = "{500, 1486}";
},
{
name = center;
position = "{382, 620}";
}
);
layerId = "91AB5BCA-6A50-42DA-B2F7-8181BF189245";
paths = (
{
closed = 1;
nodes = (
"442 0 OFFCURVE",
"489 2 OFFCURVE",
"512 10 CURVE",
"522 78 LINE",
"442 78 LINE SMOOTH",
"331 78 OFFCURVE",
"296 98 OFFCURVE",
"316 242 CURVE SMOOTH",
"418 966 LINE",
"638 966 LINE",
"648 1034 LINE",
"428 1034 LINE",
"468 1324 LINE",
"413 1324 LINE",
"352 1034 LINE",
"199 1034 LINE",
"188 966 LINE",
"344 966 LINE",
"241 232 LINE SMOOTH",
"218 66 OFFCURVE",
"252 0 OFFCURVE",
"396 0 CURVE SMOOTH"
);
}
);
width = 689;
}
);
leftKerningGroup = t;
rightKerningGroup = t;
unicode = 0074;
},
{
color = 3;
glyphname = tbar;
layers = (
{
components = (
{
name = t;
transform = "{1, 0, 0, 1, 10, 0}";
}
);
layerId = "258ED206-D907-4350-8EBA-CBDDA1C16BF7";
paths = (
{
closed = 1;
nodes = (
"773 450 LINE",
"804 660 LINE",
"81 660 LINE",
"50 450 LINE"
);
}
);
width = 927;
},
{
components = (
{
name = t;
transform = "{1, 0, 0, 1, 11, 0}";
}
);
layerId = "91AB5BCA-6A50-42DA-B2F7-8181BF189245";
paths = (
{
closed = 1;
nodes = (
"585 546 LINE",
"595 614 LINE",
"149 614 LINE",
"139 546 LINE"
);
}
);
width = 644;
}
);
leftKerningGroup = t;
leftMetricsKey = "=t+10";
rightKerningGroup = t;
unicode = 0167;
},
{
color = 3;
glyphname = tcedilla;
layers = (
{
anchors = (
{
name = _bottom;
position = "{425, 18}";
}
);
components = (
{
name = t;
}
);
layerId = "258ED206-D907-4350-8EBA-CBDDA1C16BF7";
paths = (
{
closed = 1;
nodes = (
"505 -420 OFFCURVE",
"637 -354 OFFCURVE",
"653 -250 CURVE SMOOTH",
"663 -176 OFFCURVE",
"617 -86 OFFCURVE",
"455 -86 CURVE",
"513 28 LINE",
"357 28 LINE",
"257 -144 LINE SMOOTH",
"243 -166 OFFCURVE",
"253 -168 OFFCURVE",
"273 -168 CURVE SMOOTH",
"407 -168 OFFCURVE",
"445 -196 OFFCURVE",
"439 -244 CURVE SMOOTH",
"433 -276 OFFCURVE",
"393 -296 OFFCURVE",
"339 -296 CURVE SMOOTH",
"281 -296 OFFCURVE",
"221 -270 OFFCURVE",
"179 -244 CURVE",
"113 -362 LINE",
"183 -408 OFFCURVE",
"275 -420 OFFCURVE",
"369 -420 CURVE SMOOTH"
);
}
);
width = 880;
},
{
anchors = (
{
name = _bottom;
position = "{350, 0}";
}
);
components = (
{
name = t;
}
);
layerId = "91AB5BCA-6A50-42DA-B2F7-8181BF189245";
paths = (
{
closed = 1;
nodes = (
"344 -398 OFFCURVE",
"432 -350 OFFCURVE",
"446 -252 CURVE SMOOTH",
"454 -190 OFFCURVE",
"432 -124 OFFCURVE",
"322 -114 CURVE",
"386 10 LINE",
"324 10 LINE",
"236 -154 LINE SMOOTH",
"232 -158 OFFCURVE",
"232 -162 OFFCURVE",
"242 -162 CURVE SMOOTH",
"334 -166 OFFCURVE",
"376 -194 OFFCURVE",
"366 -256 CURVE SMOOTH",
"358 -310 OFFCURVE",
"324 -340 OFFCURVE",
"248 -340 CURVE SMOOTH",
"192 -340 OFFCURVE",
"166 -322 OFFCURVE",
"144 -296 CURVE",
"116 -352 LINE",
"150 -382 OFFCURVE",
"192 -398 OFFCURVE",
"248 -398 CURVE SMOOTH"
);
}
);
width = 689;
}
);
leftKerningGroup = t;
rightKerningGroup = t;
unicode = 0163;
},
{
color = 6;
glyphname = u;
layers = (
{
anchors = (
{
name = bottom;
position = "{522, 0}";
},
{
name = horn;
position = "{1074, 714}";
},
{
name = ogonek;
position = "{993, 20}";
},
{
name = top;
position = "{677, 1034}";
}
);
layerId = "258ED206-D907-4350-8EBA-CBDDA1C16BF7";
paths = (
{
closed = 1;
nodes = (
"506 -20 OFFCURVE",
"674 6 OFFCURVE",
"741 212 CURVE",
"757 0 LINE",
"1045 0 LINE",
"1190 1034 LINE",
"804 1034 LINE",
"709 360 LINE",
"701 300 OFFCURVE",
"646 254 OFFCURVE",
"568 254 CURVE SMOOTH",
"489 254 OFFCURVE",
"450 300 OFFCURVE",
"458 360 CURVE SMOOTH",
"553 1034 LINE",
"163 1034 LINE",
"61 306 LINE SMOOTH",
"32 98 OFFCURVE",
"239 -20 OFFCURVE",
"406 -20 CURVE SMOOTH"
);
}
);
width = 1218;
},
{
anchors = (
{
name = bottom;
position = "{456, 0}";
},
{
name = horn;
position = "{874, 856}";
},
{
name = ogonek;
position = "{815, 22}";
},
{
name = top;
position = "{601, 1034}";
}
);
layerId = "91AB5BCA-6A50-42DA-B2F7-8181BF189245";
paths = (
{
closed = 1;
nodes = (
"614 -22 OFFCURVE",
"724 62 OFFCURVE",
"776 190 CURVE",
"755 0 LINE",
"821 0 LINE",
"967 1034 LINE",
"895 1034 LINE",
"800 362 LINE",
"771 154 OFFCURVE",
"639 56 OFFCURVE",
"462 56 CURVE SMOOTH",
"262 56 OFFCURVE",
"184 172 OFFCURVE",
"209 346 CURVE SMOOTH",
"306 1034 LINE",
"233 1034 LINE",
"137 346 LINE SMOOTH",
"103 100 OFFCURVE",
"234 -17 OFFCURVE",
"456 -20 CURVE SMOOTH"
);
}
);
width = 1074;
}
);
leftKerningGroup = u;
leftMetricsKey = "=|n";
rightKerningGroup = u;
rightMetricsKey = "=|n";
unicode = 0075;
},
{
color = 6;
glyphname = uhorn;
layers = (
{
anchors = (
{
name = bottom;
position = "{457, 0}";
},
{
name = horn;
position = "{875, 856}";
},
{
name = ogonek;
position = "{769, 22}";
},
{
name = top;
position = "{602, 1034}";
},
{
name = topright;
position = "{1050, 936}";
}
);
layerId = "91AB5BCA-6A50-42DA-B2F7-8181BF189245";
paths = (
{
closed = 1;
nodes = (
"615 -22 OFFCURVE",
"725 62 OFFCURVE",
"777 190 CURVE",
"756 0 LINE",
"822 0 LINE",
"943 854 LINE",
"1086 846 OFFCURVE",
"1169 933 OFFCURVE",
"1194 1114 CURVE",
"1107 1114 LINE",
"1085 978 OFFCURVE",
"1041 933 OFFCURVE",
"953 929 CURVE",
"968 1034 LINE",
"896 1034 LINE",
"801 362 LINE SMOOTH",
"772 154 OFFCURVE",
"640 56 OFFCURVE",
"463 56 CURVE SMOOTH",
"263 56 OFFCURVE",
"185 172 OFFCURVE",
"210 346 CURVE SMOOTH",
"307 1034 LINE",
"234 1034 LINE",
"138 346 LINE SMOOTH",
"103 100 OFFCURVE",
"235 -17 OFFCURVE",
"457 -20 CURVE SMOOTH"
);
}
);
width = 1110;
},
{
anchors = (
{
name = bottom;
position = "{522, 0}";
},
{
name = horn;
position = "{1074, 714}";
},
{
name = ogonek;
position = "{973, 20}";
},
{
name = top;
position = "{677, 1034}";
},
{
name = topright;
position = "{1312, 894}";
}
);
layerId = "258ED206-D907-4350-8EBA-CBDDA1C16BF7";
paths = (
{
closed = 1;
nodes = (
"506 -20 OFFCURVE",
"674 6 OFFCURVE",
"741 212 CURVE",
"757 0 LINE",
"1045 0 LINE",
"1144 708 LINE",
"1438 691 OFFCURVE",
"1532 809 OFFCURVE",
"1582 1112 CURVE",
"1348 1112 LINE",
"1302 918 OFFCURVE",
"1261 893 OFFCURVE",
"1170 891 CURVE",
"1190 1034 LINE",
"804 1034 LINE",
"709 360 LINE SMOOTH",
"701 300 OFFCURVE",
"646 254 OFFCURVE",
"568 254 CURVE SMOOTH",
"489 254 OFFCURVE",
"450 300 OFFCURVE",
"458 360 CURVE SMOOTH",
"553 1034 LINE",
"163 1034 LINE",
"61 306 LINE SMOOTH",
"32 98 OFFCURVE",
"239 -20 OFFCURVE",
"406 -20 CURVE SMOOTH"
);
}
);
width = 1520;
}
);
leftKerningGroup = u;
rightKerningGroup = uhorn;
unicode = 01B0;
},
{
color = 6;
glyphname = v;
layers = (
{
layerId = "258ED206-D907-4350-8EBA-CBDDA1C16BF7";
paths = (
{
closed = 1;
nodes = (
"571 0 LINE",
"1129 1034 LINE",
"779 1034 LINE",
"525 506 LINE",
"525 506 LINE",
"425 1034 LINE",
"81 1034 LINE",
"323 0 LINE"
);
}
);
width = 1063;
},
{
layerId = "91AB5BCA-6A50-42DA-B2F7-8181BF189245";
paths = (
{
closed = 1;
nodes = (
"441 0 LINE",
"916 1034 LINE",
"843 1034 LINE",
"405 88 LINE",
"381 88 LINE",
"219 1034 LINE",
"141 1034 LINE",
"326 0 LINE"
);
}
);
width = 911;
}
);
leftKerningGroup = v;
leftMetricsKey = "=x*.75";
rightKerningGroup = v;
rightMetricsKey = "=x*.75";
unicode = 0076;
},
{
color = 6;
glyphname = w;
layers = (
{
anchors = (
{
name = top;
position = "{872, 1034}";
}
);
layerId = "258ED206-D907-4350-8EBA-CBDDA1C16BF7";
paths = (
{
closed = 1;
nodes = (
"536 0 LINE",
"776 502 LINE",
"853 0 LINE",
"1128 0 LINE",
"1648 1034 LINE",
"1305 1034 LINE",
"1068 530 LINE",
"1068 530 LINE",
"998 1034 LINE",
"730 1034 LINE",
"502 532 LINE",
"502 532 LINE",
"418 1034 LINE",
"82 1034 LINE",
"272 0 LINE"
);
}
);
width = 1583;
},
{
anchors = (
{
name = top;
position = "{796, 1034}";
}
);
layerId = "91AB5BCA-6A50-42DA-B2F7-8181BF189245";
paths = (
{
closed = 1;
nodes = (
"408 0 LINE",
"770 900 LINE",
"900 0 LINE",
"1020 0 LINE",
"1428 1034 LINE",
"1354 1034 LINE",
"980 90 LINE",
"958 90 LINE",
"822 1034 LINE",
"756 1034 LINE",
"368 86 LINE",
"346 86 LINE",
"226 1034 LINE",
"148 1034 LINE",
"282 0 LINE"
);
}
);
width = 1430;
}
);
leftKerningGroup = v;
leftMetricsKey = "=v*1.1";
rightKerningGroup = v;
rightMetricsKey = "=v*1.1";
unicode = 0077;
},
{
color = 6;
glyphname = x;
layers = (
{
layerId = "258ED206-D907-4350-8EBA-CBDDA1C16BF7";
paths = (
{
closed = 1;
nodes = (
"336 0 LINE",
"576 274 LINE",
"732 0 LINE",
"1128 0 LINE",
"818 540 LINE",
"1254 1034 LINE",
"856 1034 LINE",
"660 810 LINE",
"528 1034 LINE",
"132 1034 LINE",
"414 540 LINE",
"-63 0 LINE"
);
}
);
width = 1211;
},
{
layerId = "91AB5BCA-6A50-42DA-B2F7-8181BF189245";
paths = (
{
closed = 1;
nodes = (
"106 0 LINE",
"496 474 LINE",
"756 0 LINE",
"847 0 LINE",
"553 536 LINE",
"962 1034 LINE",
"872 1034 LINE",
"515 598 LINE",
"278 1034 LINE",
"189 1034 LINE",
"458 536 LINE",
"17 0 LINE"
);
}
);
width = 1010;
}
);
leftKerningGroup = x;
rightKerningGroup = x;
unicode = 0078;
},
{
color = 6;
glyphname = y;
layers = (
{
anchors = (
{
name = top;
position = "{645, 1034}";
}
);
layerId = "258ED206-D907-4350-8EBA-CBDDA1C16BF7";
paths = (
{
closed = 1;
nodes = (
"357 -330 OFFCURVE",
"503 -266 OFFCURVE",
"688 60 CURVE SMOOTH",
"1235 1034 LINE",
"857 1034 LINE",
"569 472 LINE",
"461 1034 LINE",
"81 1034 LINE",
"333 60 LINE",
"325 40 LINE",
"319 28 OFFCURVE",
"297 -62 OFFCURVE",
"97 -46 CURVE SMOOTH",
"-1 -40 LINE",
"-37 -286 LINE SMOOTH",
"-37 -286 OFFCURVE",
"22 -330 OFFCURVE",
"179 -330 CURVE SMOOTH"
);
}
);
width = 1169;
},
{
anchors = (
{
name = top;
position = "{551, 1034}";
}
);
layerId = "91AB5BCA-6A50-42DA-B2F7-8181BF189245";
paths = (
{
closed = 1;
nodes = (
"207 -330 OFFCURVE",
"301 -280 OFFCURVE",
"367 -150 CURVE SMOOTH",
"949 1034 LINE",
"879 1034 LINE",
"423 112 LINE",
"219 1034 LINE",
"141 1034 LINE",
"369 6 LINE",
"301 -132 LINE",
"265 -204 OFFCURVE",
"209 -260 OFFCURVE",
"91 -260 CURVE SMOOTH",
"-11 -260 LINE",
"-19 -314 LINE SMOOTH",
"-19 -314 OFFCURVE",
"1 -330 OFFCURVE",
"93 -330 CURVE SMOOTH"
);
}
);
width = 944;
}
);
leftKerningGroup = v;
leftMetricsKey = v;
rightKerningGroup = v;
rightMetricsKey = v;
unicode = 0079;
},
{
color = 6;
glyphname = z;
layers = (
{
anchors = (
{
name = bottom;
position = "{414, 0}";
},
{
name = top;
position = "{598, 1034}";
}
);
layerId = "258ED206-D907-4350-8EBA-CBDDA1C16BF7";
paths = (
{
closed = 1;
nodes = (
"900 0 LINE",
"938 266 LINE",
"495 266 LINE",
"1019 828 LINE",
"1044 1034 LINE",
"152 1034 LINE",
"115 768 LINE",
"529 768 LINE",
"6 206 LINE",
"-20 0 LINE"
);
}
);
width = 1025;
},
{
anchors = (
{
name = bottom;
position = "{357, 0}";
},
{
name = top;
position = "{539, 1034}";
}
);
layerId = "91AB5BCA-6A50-42DA-B2F7-8181BF189245";
paths = (
{
closed = 1;
nodes = (
"713 0 LINE",
"723 68 LINE",
"110 68 LINE",
"843 966 LINE",
"852 1034 LINE",
"207 1034 LINE",
"197 966 LINE",
"762 966 LINE",
"27 68 LINE",
"19 0 LINE"
);
}
);
width = 876;
}
);
leftKerningGroup = z;
leftMetricsKey = "=n/2";
rightKerningGroup = z;
rightMetricsKey = "=u/2";
unicode = 007A;
},
{
color = 6;
glyphname = g.ss01;
layers = (
{
anchors = (
{
name = top;
position = "{754, 1032}";
}
);
layerId = "258ED206-D907-4350-8EBA-CBDDA1C16BF7";
paths = (
{
closed = 1;
nodes = (
"717 -336 OFFCURVE",
"967 -108 OFFCURVE",
"1015 238 CURVE SMOOTH",
"1128 1032 LINE",
"773 1032 LINE",
"757 912 LINE",
"727 984 OFFCURVE",
"631 1052 OFFCURVE",
"523 1052 CURVE SMOOTH",
"269 1052 OFFCURVE",
"103 780 OFFCURVE",
"71 556 CURVE SMOOTH",
"31 266 OFFCURVE",
"202 62 OFFCURVE",
"383 62 CURVE SMOOTH",
"504 62 OFFCURVE",
"609 84 OFFCURVE",
"675 180 CURVE",
"670 146 LINE SMOOTH",
"657 40 OFFCURVE",
"576 -58 OFFCURVE",
"447 -58 CURVE SMOOTH",
"376 -58 OFFCURVE",
"339 -12 OFFCURVE",
"343 8 CURVE",
"17 8 LINE",
"2 -92 OFFCURVE",
"103 -336 OFFCURVE",
"412 -336 CURVE SMOOTH"
);
},
{
closed = 1;
nodes = (
"456 332 OFFCURVE",
"416 440 OFFCURVE",
"433 556 CURVE SMOOTH",
"449 672 OFFCURVE",
"509 788 OFFCURVE",
"603 788 CURVE SMOOTH",
"685 788 OFFCURVE",
"723 672 OFFCURVE",
"706 556 CURVE",
"706 556 LINE SMOOTH",
"689 430 OFFCURVE",
"631 332 OFFCURVE",
"538 332 CURVE SMOOTH"
);
}
);
width = 1146;
},
{
anchors = (
{
name = top;
position = "{639, 1032}";
}
);
layerId = "91AB5BCA-6A50-42DA-B2F7-8181BF189245";
paths = (
{
closed = 1;
nodes = (
"653 -338 OFFCURVE",
"835 -216 OFFCURVE",
"867 28 CURVE SMOOTH",
"999 1032 LINE",
"937 1032 LINE",
"911 860 LINE",
"891 924 OFFCURVE",
"799 1052 OFFCURVE",
"623 1052 CURVE SMOOTH",
"346 1052 OFFCURVE",
"151 802 OFFCURVE",
"119 502 CURVE SMOOTH",
"89 222 OFFCURVE",
"220 12 OFFCURVE",
"487 12 CURVE SMOOTH",
"631 12 OFFCURVE",
"755 66 OFFCURVE",
"829 192 CURVE",
"805 24 LINE SMOOTH",
"781 -122 OFFCURVE",
"673 -272 OFFCURVE",
"433 -268 CURVE SMOOTH",
"309 -266 OFFCURVE",
"193 -204 OFFCURVE",
"175 -58 CURVE",
"97 -58 LINE",
"109 -240 OFFCURVE",
"251 -338 OFFCURVE",
"423 -338 CURVE SMOOTH"
);
},
{
closed = 1;
nodes = (
"281 86 OFFCURVE",
"159 256 OFFCURVE",
"195 502 CURVE SMOOTH",
"233 784 OFFCURVE",
"389 978 OFFCURVE",
"613 978 CURVE SMOOTH",
"785 978 OFFCURVE",
"907 830 OFFCURVE",
"891 708 CURVE",
"849 364 LINE SMOOTH",
"831 232 OFFCURVE",
"755 86 OFFCURVE",
"501 86 CURVE SMOOTH"
);
}
);
width = 1096;
}
);
leftKerningGroup = o;
leftMetricsKey = e;
rightKerningGroup = q;
rightMetricsKey = n;
},
{
color = 6;
glyphname = l.ss01;
layers = (
{
anchors = (
{
name = bottom;
position = "{362, 0}";
},
{
name = top;
position = "{380, 1492}";
},
{
name = topright;
position = "{862, 1530}";
}
);
layerId = "258ED206-D907-4350-8EBA-CBDDA1C16BF7";
paths = (
{
closed = 1;
nodes = (
"458 0 LINE",
"666 1486 LINE",
"276 1486 LINE",
"68 0 LINE"
);
}
);
width = 671;
},
{
anchors = (
{
name = bottom;
position = "{282, 0}";
},
{
name = top;
position = "{286, 1486}";
},
{
name = topright;
position = "{536, 1492}";
}
);
layerId = "91AB5BCA-6A50-42DA-B2F7-8181BF189245";
paths = (
{
closed = 1;
nodes = (
"224 0 LINE",
"418 1486 LINE",
"346 1486 LINE",
"152 0 LINE"
);
}
);
width = 507;
}
);
leftKerningGroup = n;
rightKerningGroup = u;
},
{
color = 6;
glyphname = ordfeminine;
layers = (
{
layerId = "258ED206-D907-4350-8EBA-CBDDA1C16BF7";
paths = (
{
closed = 1;
nodes = (
"368 796 OFFCURVE",
"413 820 OFFCURVE",
"483 864 CURVE",
"489 808 LINE",
"707 808 LINE",
"700 856 LINE",
"699 886 OFFCURVE",
"713 988 OFFCURVE",
"715 1002 CURVE SMOOTH",
"727 1098 OFFCURVE",
"735 1152 OFFCURVE",
"751 1266 CURVE SMOOTH",
"769 1390 OFFCURVE",
"719 1464 OFFCURVE",
"507 1466 CURVE SMOOTH",
"326 1466 OFFCURVE",
"253 1404 OFFCURVE",
"187 1286 CURVE",
"375 1246 LINE",
"403 1306 OFFCURVE",
"445 1320 OFFCURVE",
"481 1320 CURVE SMOOTH",
"503 1320 OFFCURVE",
"547 1312 OFFCURVE",
"537 1250 CURVE",
"533 1210 LINE",
"487 1210 LINE SMOOTH",
"289 1210 OFFCURVE",
"149 1114 OFFCURVE",
"131 982 CURVE SMOOTH",
"115 872 OFFCURVE",
"173 796 OFFCURVE",
"299 796 CURVE SMOOTH"
);
},
{
closed = 1;
nodes = (
"365 940 OFFCURVE",
"345 964 OFFCURVE",
"349 998 CURVE SMOOTH",
"357 1054 OFFCURVE",
"413 1090 OFFCURVE",
"479 1090 CURVE SMOOTH",
"515 1090 LINE",
"503 1002 LINE SMOOTH",
"501 982 OFFCURVE",
"491 974 OFFCURVE",
"479 964 CURVE SMOOTH",
"463 950 OFFCURVE",
"435 940 OFFCURVE",
"408 940 CURVE SMOOTH"
);
}
);
width = 756;
},
{
layerId = "91AB5BCA-6A50-42DA-B2F7-8181BF189245";
paths = (
{
closed = 1;
nodes = (
"444 790 OFFCURVE",
"513 824 OFFCURVE",
"588 902 CURVE",
"590 802 LINE",
"658 802 LINE",
"660 886 LINE",
"662 936 OFFCURVE",
"664 976 OFFCURVE",
"670 1016 CURVE SMOOTH",
"676 1054 OFFCURVE",
"686 1132 OFFCURVE",
"702 1236 CURVE SMOOTH",
"720 1374 OFFCURVE",
"652 1460 OFFCURVE",
"510 1460 CURVE SMOOTH",
"398 1460 OFFCURVE",
"302 1406 OFFCURVE",
"246 1314 CURVE",
"300 1288 LINE",
"362 1370 OFFCURVE",
"416 1394 OFFCURVE",
"494 1394 CURVE SMOOTH",
"600 1394 OFFCURVE",
"652 1346 OFFCURVE",
"638 1244 CURVE SMOOTH",
"632 1194 LINE",
"498 1180 LINE SMOOTH",
"308 1160 OFFCURVE",
"202 1092 OFFCURVE",
"184 968 CURVE SMOOTH",
"168 856 OFFCURVE",
"234 790 OFFCURVE",
"360 790 CURVE SMOOTH"
);
},
{
closed = 1;
nodes = (
"296 852 OFFCURVE",
"244 898 OFFCURVE",
"254 970 CURVE SMOOTH",
"266 1054 OFFCURVE",
"346 1108 OFFCURVE",
"513 1122 CURVE SMOOTH",
"622 1132 LINE",
"606 1016 LINE SMOOTH",
"602 980 OFFCURVE",
"576 948 OFFCURVE",
"536 914 CURVE SMOOTH",
"488 872 OFFCURVE",
"440 852 OFFCURVE",
"382 852 CURVE SMOOTH"
);
}
);
width = 778;
}
);
leftMetricsKey = a;
rightMetricsKey = a;
unicode = 00AA;
},
{
color = 6;
glyphname = ordmasculine;
layers = (
{
layerId = "258ED206-D907-4350-8EBA-CBDDA1C16BF7";
paths = (
{
closed = 1;
nodes = (
"596 796 OFFCURVE",
"747 934 OFFCURVE",
"774 1128 CURVE SMOOTH",
"802 1324 OFFCURVE",
"694 1466 OFFCURVE",
"508 1466 CURVE SMOOTH",
"329 1466 OFFCURVE",
"176 1330 OFFCURVE",
"146 1128 CURVE SMOOTH",
"119 934 OFFCURVE",
"228 796 OFFCURVE",
"411 796 CURVE SMOOTH"
);
},
{
closed = 1;
nodes = (
"376 952 OFFCURVE",
"356 1006 OFFCURVE",
"373 1132 CURVE SMOOTH",
"392 1260 OFFCURVE",
"426 1314 OFFCURVE",
"486 1314 CURVE SMOOTH",
"546 1314 OFFCURVE",
"566 1260 OFFCURVE",
"548 1132 CURVE SMOOTH",
"530 1006 OFFCURVE",
"495 952 OFFCURVE",
"434 952 CURVE SMOOTH"
);
}
);
width = 748;
},
{
layerId = "91AB5BCA-6A50-42DA-B2F7-8181BF189245";
paths = (
{
closed = 1;
nodes = (
"602 794 OFFCURVE",
"719 932 OFFCURVE",
"746 1126 CURVE SMOOTH",
"774 1328 OFFCURVE",
"688 1464 OFFCURVE",
"518 1464 CURVE SMOOTH",
"348 1464 OFFCURVE",
"224 1328 OFFCURVE",
"196 1126 CURVE SMOOTH",
"169 932 OFFCURVE",
"244 794 OFFCURVE",
"423 794 CURVE SMOOTH"
);
},
{
closed = 1;
nodes = (
"301 858 OFFCURVE",
"246 966 OFFCURVE",
"270 1132 CURVE SMOOTH",
"293 1288 OFFCURVE",
"377 1396 OFFCURVE",
"509 1396 CURVE SMOOTH",
"640 1396 OFFCURVE",
"694 1288 OFFCURVE",
"673 1132 CURVE SMOOTH",
"650 966 OFFCURVE",
"564 858 OFFCURVE",
"432 858 CURVE SMOOTH"
);
}
);
width = 770;
}
);
leftMetricsKey = o;
rightMetricsKey = o;
unicode = 00BA;
},
{
color = 6;
glyphname = pi;
layers = (
{
layerId = "258ED206-D907-4350-8EBA-CBDDA1C16BF7";
paths = (
{
closed = 1;
nodes = (
"385 0 LINE",
"475 192 OFFCURVE",
"583 572 OFFCURVE",
"611 770 CURVE",
"827 770 LINE",
"719 0 LINE",
"1091 0 LINE",
"1199 770 LINE",
"1355 770 LINE",
"1391 1034 LINE",
"113 1034 LINE",
"77 770 LINE",
"219 770 LINE SMOOTH",
"231 770 OFFCURVE",
"235 762 OFFCURVE",
"233 750 CURVE SMOOTH",
"207 566 OFFCURVE",
"107 224 OFFCURVE",
"19 0 CURVE"
);
}
);
width = 1379;
},
{
layerId = "91AB5BCA-6A50-42DA-B2F7-8181BF189245";
paths = (
{
closed = 1;
nodes = (
"305 0 LINE",
"369 190 OFFCURVE",
"423 568 OFFCURVE",
"423 966 CURVE",
"957 966 LINE",
"959 0 LINE",
"1037 0 LINE",
"1037 966 LINE",
"1299 966 LINE",
"1299 1034 LINE",
"133 1034 LINE",
"133 966 LINE",
"335 966 LINE SMOOTH",
"345 966 OFFCURVE",
"351 958 OFFCURVE",
"351 946 CURVE SMOOTH",
"351 566 OFFCURVE",
"297 220 OFFCURVE",
"239 0 CURVE"
);
}
);
width = 1296;
}
);
unicode = 03C0;
},
{
color = 6;
glyphname = zero;
layers = (
{
layerId = "258ED206-D907-4350-8EBA-CBDDA1C16BF7";
paths = (
{
closed = 1;
nodes = (
"979 -22 OFFCURVE",
"1232 252 OFFCURVE",
"1298 720 CURVE SMOOTH",
"1364 1190 OFFCURVE",
"1183 1466 OFFCURVE",
"811 1466 CURVE SMOOTH",
"437 1466 OFFCURVE",
"175 1190 OFFCURVE",
"109 720 CURVE SMOOTH",
"43 252 OFFCURVE",
"221 -22 OFFCURVE",
"601 -22 CURVE SMOOTH"
);
},
{
closed = 1;
nodes = (
"500 288 OFFCURVE",
"466 404 OFFCURVE",
"510 718 CURVE SMOOTH",
"556 1042 OFFCURVE",
"626 1168 OFFCURVE",
"767 1168 CURVE SMOOTH",
"907 1168 OFFCURVE",
"940 1044 OFFCURVE",
"894 718 CURVE SMOOTH",
"850 402 OFFCURVE",
"786 288 OFFCURVE",
"643 288 CURVE SMOOTH"
);
}
);
width = 1349;
},
{
layerId = "91AB5BCA-6A50-42DA-B2F7-8181BF189245";
paths = (
{
closed = 1;
nodes = (
"730 -22 OFFCURVE",
"941 218 OFFCURVE",
"1012 720 CURVE SMOOTH",
"1082 1224 OFFCURVE",
"939 1466 OFFCURVE",
"678 1466 CURVE SMOOTH",
"416 1466 OFFCURVE",
"204 1222 OFFCURVE",
"133 716 CURVE SMOOTH",
"63 216 OFFCURVE",
"204 -22 OFFCURVE",
"467 -22 CURVE SMOOTH"
);
},
{
closed = 1;
nodes = (
"260 60 OFFCURVE",
"153 260 OFFCURVE",
"217 720 CURVE SMOOTH",
"282 1184 OFFCURVE",
"446 1384 OFFCURVE",
"666 1384 CURVE SMOOTH",
"886 1384 OFFCURVE",
"990 1186 OFFCURVE",
"925 720 CURVE SMOOTH",
"860 258 OFFCURVE",
"704 60 OFFCURVE",
"482 60 CURVE SMOOTH"
);
}
);
width = 1088;
}
);
leftKerningGroup = zero;
rightKerningGroup = zero;
unicode = 0030;
},
{
color = 6;
glyphname = one;
layers = (
{
layerId = "258ED206-D907-4350-8EBA-CBDDA1C16BF7";
paths = (
{
closed = 1;
nodes = (
"622 0 LINE",
"842 1446 LINE",
"594 1446 LINE",
"554 1316 OFFCURVE",
"420 1226 OFFCURVE",
"182 1226 CURVE",
"151 1022 LINE",
"390 1022 LINE",
"233 0 LINE"
);
}
);
width = 896;
},
{
layerId = "91AB5BCA-6A50-42DA-B2F7-8181BF189245";
paths = (
{
closed = 1;
nodes = (
"381 0 LINE",
"585 1446 LINE",
"522 1446 LINE",
"505 1336 OFFCURVE",
"457 1296 OFFCURVE",
"209 1296 CURVE",
"199 1218 LINE",
"475 1218 LINE",
"303 0 LINE"
);
}
);
width = 739;
}
);
leftKerningGroup = one;
rightKerningGroup = one;
unicode = 0031;
},
{
color = 6;
glyphname = two;
layers = (
{
layerId = "258ED206-D907-4350-8EBA-CBDDA1C16BF7";
paths = (
{
closed = 1;
nodes = (
"1177 0 LINE",
"1222 320 LINE",
"508 320 LINE",
"508 320 LINE SMOOTH",
"541 552 OFFCURVE",
"1257 500 OFFCURVE",
"1328 1006 CURVE SMOOTH",
"1367 1280 OFFCURVE",
"1179 1466 OFFCURVE",
"823 1466 CURVE SMOOTH",
"409 1466 OFFCURVE",
"181 1236 OFFCURVE",
"139 936 CURVE",
"505 936 LINE",
"557 1096 OFFCURVE",
"665 1152 OFFCURVE",
"771 1152 CURVE SMOOTH",
"877 1152 OFFCURVE",
"932 1088 OFFCURVE",
"920 1002 CURVE SMOOTH",
"885 756 OFFCURVE",
"137 768 OFFCURVE",
"66 260 CURVE SMOOTH",
"53 172 LINE",
"29 0 LINE"
);
}
);
width = 1339;
},
{
layerId = "91AB5BCA-6A50-42DA-B2F7-8181BF189245";
paths = (
{
closed = 1;
nodes = (
"870 0 LINE",
"882 82 LINE",
"152 82 LINE",
"158 126 LINE SMOOTH",
"224 596 OFFCURVE",
"932 554 OFFCURVE",
"1006 1080 CURVE SMOOTH",
"1039 1312 OFFCURVE",
"903 1466 OFFCURVE",
"666 1466 CURVE SMOOTH",
"393 1466 OFFCURVE",
"213 1272 OFFCURVE",
"175 1048 CURVE",
"256 1048 LINE",
"289 1236 OFFCURVE",
"432 1382 OFFCURVE",
"648 1382 CURVE SMOOTH",
"844 1382 OFFCURVE",
"954 1262 OFFCURVE",
"929 1082 CURVE SMOOTH",
"863 616 OFFCURVE",
"152 650 OFFCURVE",
"79 126 CURVE SMOOTH",
"73 82 LINE",
"61 0 LINE"
);
}
);
width = 1048;
}
);
leftKerningGroup = two;
leftMetricsKey = one;
rightKerningGroup = two;
rightMetricsKey = zero;
unicode = 0032;
},
{
color = 6;
glyphname = three;
layers = (
{
layerId = "258ED206-D907-4350-8EBA-CBDDA1C16BF7";
paths = (
{
closed = 1;
nodes = (
"935 -22 OFFCURVE",
"1257 118 OFFCURVE",
"1300 420 CURVE SMOOTH",
"1328 622 OFFCURVE",
"1193 720 OFFCURVE",
"1064 756 CURVE",
"1258 818 OFFCURVE",
"1341 922 OFFCURVE",
"1361 1064 CURVE SMOOTH",
"1402 1352 OFFCURVE",
"1155 1466 OFFCURVE",
"811 1466 CURVE SMOOTH",
"472 1466 OFFCURVE",
"193 1318 OFFCURVE",
"145 980 CURVE",
"511 980 LINE",
"549 1134 OFFCURVE",
"637 1174 OFFCURVE",
"759 1174 CURVE SMOOTH",
"864 1174 OFFCURVE",
"959 1136 OFFCURVE",
"947 1046 CURVE SMOOTH",
"934 956 OFFCURVE",
"860 908 OFFCURVE",
"735 898 CURVE SMOOTH",
"607 888 LINE",
"565 588 LINE",
"709 580 LINE SMOOTH",
"832 574 OFFCURVE",
"900 514 OFFCURVE",
"889 436 CURVE SMOOTH",
"876 348 OFFCURVE",
"785 284 OFFCURVE",
"637 284 CURVE SMOOTH",
"535 284 OFFCURVE",
"450 324 OFFCURVE",
"442 476 CURVE",
"74 476 LINE",
"30 162 OFFCURVE",
"202 -22 OFFCURVE",
"594 -22 CURVE SMOOTH"
);
}
);
width = 1394;
},
{
layerId = "91AB5BCA-6A50-42DA-B2F7-8181BF189245";
paths = (
{
closed = 1;
nodes = (
"750 -26 OFFCURVE",
"960 144 OFFCURVE",
"995 388 CURVE SMOOTH",
"1020 568 OFFCURVE",
"936 708 OFFCURVE",
"741 768 CURVE",
"923 834 OFFCURVE",
"1035 964 OFFCURVE",
"1055 1108 CURVE SMOOTH",
"1085 1322 OFFCURVE",
"936 1466 OFFCURVE",
"680 1466 CURVE SMOOTH",
"457 1466 OFFCURVE",
"241 1298 OFFCURVE",
"206 1048 CURVE",
"287 1048 LINE",
"319 1272 OFFCURVE",
"512 1384 OFFCURVE",
"672 1384 CURVE SMOOTH",
"901 1384 OFFCURVE",
"993 1244 OFFCURVE",
"974 1108 CURVE SMOOTH",
"951 950 OFFCURVE",
"763 802 OFFCURVE",
"555 802 CURVE SMOOTH",
"442 802 LINE",
"430 720 LINE",
"543 720 LINE SMOOTH",
"771 720 OFFCURVE",
"944 608 OFFCURVE",
"912 382 CURVE SMOOTH",
"885 190 OFFCURVE",
"713 60 OFFCURVE",
"484 60 CURVE SMOOTH",
"282 60 OFFCURVE",
"165 190 OFFCURVE",
"168 384 CURVE",
"86 384 LINE",
"64 142 OFFCURVE",
"232 -18 OFFCURVE",
"463 -22 CURVE SMOOTH"
);
}
);
width = 1118;
}
);
leftKerningGroup = zero;
leftMetricsKey = zero;
rightKerningGroup = zero;
rightMetricsKey = zero;
unicode = 0033;
},
{
color = 6;
glyphname = four;
layers = (
{
layerId = "258ED206-D907-4350-8EBA-CBDDA1C16BF7";
paths = (
{
closed = 1;
nodes = (
"1018 0 LINE",
"1060 276 LINE",
"1268 276 LINE",
"1316 594 LINE",
"1110 594 LINE",
"1238 1446 LINE",
"864 1446 LINE",
"92 580 LINE",
"46 276 LINE",
"694 276 LINE",
"650 0 LINE"
);
},
{
closed = 1;
nodes = (
"806 996 LINE",
"746 594 LINE",
"446 594 LINE"
);
}
);
width = 1358;
},
{
layerId = "91AB5BCA-6A50-42DA-B2F7-8181BF189245";
paths = (
{
closed = 1;
nodes = (
"744 0 LINE",
"802 418 LINE",
"1038 418 LINE",
"1050 500 LINE",
"815 500 LINE",
"946 1446 LINE",
"864 1446 LINE",
"100 516 LINE",
"86 418 LINE",
"726 418 LINE",
"668 0 LINE"
);
},
{
closed = 1;
nodes = (
"846 1312 LINE",
"731 500 LINE",
"176 500 LINE"
);
}
);
width = 1119;
}
);
leftKerningGroup = four;
leftMetricsKey = one;
rightKerningGroup = four;
rightMetricsKey = "=|one/1.5";
unicode = 0034;
},
{
color = 6;
glyphname = five;
layers = (
{
layerId = "258ED206-D907-4350-8EBA-CBDDA1C16BF7";
paths = (
{
closed = 1;
nodes = (
"1027 -22 OFFCURVE",
"1282 162 OFFCURVE",
"1325 472 CURVE SMOOTH",
"1367 770 OFFCURVE",
"1178 944 OFFCURVE",
"865 944 CURVE SMOOTH",
"764 944 OFFCURVE",
"694 926 OFFCURVE",
"574 894 CURVE",
"628 1134 LINE",
"1302 1134 LINE",
"1362 1446 LINE",
"374 1446 LINE",
"206 728 LINE",
"449 586 LINE SMOOTH",
"476 572 OFFCURVE",
"478 572 OFFCURVE",
"507 584 CURVE SMOOTH",
"600 622 OFFCURVE",
"648 636 OFFCURVE",
"710 636 CURVE SMOOTH",
"861 636 OFFCURVE",
"931 548 OFFCURVE",
"918 458 CURVE SMOOTH",
"905 362 OFFCURVE",
"799 284 OFFCURVE",
"656 284 CURVE SMOOTH",
"499 284 OFFCURVE",
"436 376 OFFCURVE",
"365 486 CURVE",
"48 290 LINE",
"130 112 OFFCURVE",
"357 -22 OFFCURVE",
"658 -22 CURVE SMOOTH"
);
}
);
width = 1411;
},
{
layerId = "91AB5BCA-6A50-42DA-B2F7-8181BF189245";
paths = (
{
closed = 1;
nodes = (
"776 -22 OFFCURVE",
"986 178 OFFCURVE",
"1027 474 CURVE SMOOTH",
"1071 786 OFFCURVE",
"878 942 OFFCURVE",
"663 942 CURVE SMOOTH",
"523 942 OFFCURVE",
"389 898 OFFCURVE",
"294 780 CURVE",
"418 1366 LINE",
"1079 1366 LINE",
"1090 1446 LINE",
"351 1446 LINE",
"184 676 LINE",
"275 676 LINE SMOOTH",
"275 676 OFFCURVE",
"275 676 OFFCURVE",
"275 676 CURVE SMOOTH",
"409 840 OFFCURVE",
"516 864 OFFCURVE",
"652 864 CURVE SMOOTH",
"832 864 OFFCURVE",
"980 718 OFFCURVE",
"946 472 CURVE SMOOTH",
"909 208 OFFCURVE",
"741 56 OFFCURVE",
"521 56 CURVE SMOOTH",
"328 56 OFFCURVE",
"201 186 OFFCURVE",
"172 380 CURVE",
"86 380 LINE",
"106 140 OFFCURVE",
"274 -22 OFFCURVE",
"506 -22 CURVE SMOOTH"
);
}
);
width = 1138;
}
);
leftKerningGroup = five;
leftMetricsKey = zero;
rightKerningGroup = five;
rightMetricsKey = zero;
unicode = 0035;
},
{
color = 6;
glyphname = six;
layers = (
{
layerId = "258ED206-D907-4350-8EBA-CBDDA1C16BF7";
paths = (
{
closed = 1;
nodes = (
"982 -22 OFFCURVE",
"1263 194 OFFCURVE",
"1302 472 CURVE SMOOTH",
"1338 726 OFFCURVE",
"1159 902 OFFCURVE",
"858 902 CURVE SMOOTH",
"753 902 OFFCURVE",
"644 884 OFFCURVE",
"559 836 CURVE",
"552 1004 OFFCURVE",
"660 1166 OFFCURVE",
"824 1166 CURVE SMOOTH",
"927 1166 OFFCURVE",
"984 1120 OFFCURVE",
"1002 1012 CURVE",
"1353 1012 LINE",
"1393 1298 OFFCURVE",
"1157 1466 OFFCURVE",
"858 1466 CURVE SMOOTH",
"465 1466 OFFCURVE",
"172 1176 OFFCURVE",
"104 690 CURVE SMOOTH",
"44 270 OFFCURVE",
"239 -22 OFFCURVE",
"640 -22 CURVE SMOOTH"
);
},
{
closed = 1;
nodes = (
"553 266 OFFCURVE",
"486 348 OFFCURVE",
"510 516 CURVE",
"515 552 OFFCURVE",
"626 622 OFFCURVE",
"716 622 CURVE SMOOTH",
"809 622 OFFCURVE",
"908 578 OFFCURVE",
"890 454 CURVE SMOOTH",
"875 346 OFFCURVE",
"767 266 OFFCURVE",
"664 266 CURVE SMOOTH"
);
}
);
width = 1388;
},
{
layerId = "91AB5BCA-6A50-42DA-B2F7-8181BF189245";
paths = (
{
closed = 1;
nodes = (
"765 -22 OFFCURVE",
"947 176 OFFCURVE",
"988 472 CURVE SMOOTH",
"1030 772 OFFCURVE",
"882 944 OFFCURVE",
"626 944 CURVE SMOOTH",
"436 944 OFFCURVE",
"261 804 OFFCURVE",
"194 606 CURVE",
"250 1136 OFFCURVE",
"432 1388 OFFCURVE",
"713 1388 CURVE SMOOTH",
"878 1388 OFFCURVE",
"981 1282 OFFCURVE",
"998 1130 CURVE",
"1073 1130 LINE",
"1059 1342 OFFCURVE",
"917 1466 OFFCURVE",
"724 1466 CURVE SMOOTH",
"398 1466 OFFCURVE",
"196 1160 OFFCURVE",
"132 706 CURVE SMOOTH",
"67 240 OFFCURVE",
"217 -22 OFFCURVE",
"497 -22 CURVE SMOOTH"
);
},
{
closed = 1;
nodes = (
"297 60 OFFCURVE",
"182 256 OFFCURVE",
"221 506 CURVE",
"250 710 OFFCURVE",
"441 862 OFFCURVE",
"623 862 CURVE SMOOTH",
"856 862 OFFCURVE",
"939 704 OFFCURVE",
"905 468 CURVE SMOOTH",
"871 224 OFFCURVE",
"714 60 OFFCURVE",
"514 60 CURVE SMOOTH"
);
}
);
width = 1099;
}
);
leftKerningGroup = zero;
leftMetricsKey = zero;
rightKerningGroup = zero;
rightMetricsKey = zero;
unicode = 0036;
},
{
color = 6;
glyphname = seven;
layers = (
{
layerId = "258ED206-D907-4350-8EBA-CBDDA1C16BF7";
paths = (
{
closed = 1;
nodes = (
"673 0 LINE",
"720 356 OFFCURVE",
"1064 910 OFFCURVE",
"1297 1134 CURVE",
"1346 1446 LINE",
"213 1446 LINE",
"167 1134 LINE",
"903 1134 LINE",
"478 696 OFFCURVE",
"289 208 OFFCURVE",
"257 0 CURVE"
);
}
);
width = 1295;
},
{
layerId = "91AB5BCA-6A50-42DA-B2F7-8181BF189245";
paths = (
{
closed = 1;
nodes = (
"345 0 LINE",
"435 274 OFFCURVE",
"772 946 OFFCURVE",
"1093 1366 CURVE",
"1106 1446 LINE",
"231 1446 LINE",
"219 1366 LINE",
"999 1366 LINE",
"639 872 OFFCURVE",
"367 294 OFFCURVE",
"265 0 CURVE"
);
}
);
width = 1075;
}
);
leftKerningGroup = seven;
leftMetricsKey = one;
rightKerningGroup = seven;
rightMetricsKey = "=|one";
unicode = 0037;
},
{
color = 6;
glyphname = eight;
layers = (
{
layerId = "258ED206-D907-4350-8EBA-CBDDA1C16BF7";
paths = (
{
closed = 1;
nodes = (
"983 -21 OFFCURVE",
"1252 144 OFFCURVE",
"1289 410 CURVE SMOOTH",
"1312 574 OFFCURVE",
"1195 720 OFFCURVE",
"1077 748 CURVE",
"1190 804 OFFCURVE",
"1297 906 OFFCURVE",
"1317 1048 CURVE SMOOTH",
"1355 1320 OFFCURVE",
"1139 1466 OFFCURVE",
"825 1466 CURVE SMOOTH",
"511 1466 OFFCURVE",
"255 1320 OFFCURVE",
"217 1048 CURVE SMOOTH",
"197 906 OFFCURVE",
"274 804 OFFCURVE",
"373 748 CURVE",
"247 720 OFFCURVE",
"88 574 OFFCURVE",
"65 410 CURVE SMOOTH",
"28 144 OFFCURVE",
"251 -21 OFFCURVE",
"617 -21 CURVE SMOOTH"
);
},
{
closed = 1;
nodes = (
"530 264 OFFCURVE",
"466 328 OFFCURVE",
"479 424 CURVE SMOOTH",
"493 522 OFFCURVE",
"575 588 OFFCURVE",
"702 588 CURVE SMOOTH",
"830 588 OFFCURVE",
"893 522 OFFCURVE",
"879 424 CURVE SMOOTH",
"866 328 OFFCURVE",
"785 264 OFFCURVE",
"657 264 CURVE SMOOTH"
);
},
{
closed = 1;
nodes = (
"653 892 OFFCURVE",
"588 954 OFFCURVE",
"602 1054 CURVE SMOOTH",
"616 1154 OFFCURVE",
"698 1216 OFFCURVE",
"790 1216 CURVE SMOOTH",
"882 1216 OFFCURVE",
"948 1154 OFFCURVE",
"934 1054 CURVE SMOOTH",
"920 954 OFFCURVE",
"837 892 OFFCURVE",
"745 892 CURVE SMOOTH"
);
}
);
width = 1384;
},
{
layerId = "91AB5BCA-6A50-42DA-B2F7-8181BF189245";
paths = (
{
closed = 1;
nodes = (
"803 -22 OFFCURVE",
"1014 140 OFFCURVE",
"1048 382 CURVE SMOOTH",
"1072 552 OFFCURVE",
"956 726 OFFCURVE",
"814 754 CURVE",
"959 810 OFFCURVE",
"1061 918 OFFCURVE",
"1084 1084 CURVE SMOOTH",
"1118 1326 OFFCURVE",
"957 1466 OFFCURVE",
"718 1466 CURVE SMOOTH",
"481 1466 OFFCURVE",
"278 1326 OFFCURVE",
"244 1084 CURVE SMOOTH",
"220 918 OFFCURVE",
"295 810 OFFCURVE",
"423 754 CURVE",
"273 726 OFFCURVE",
"110 552 OFFCURVE",
"86 382 CURVE SMOOTH",
"52 140 OFFCURVE",
"217 -22 OFFCURVE",
"509 -22 CURVE SMOOTH"
);
},
{
closed = 1;
nodes = (
"281 56 OFFCURVE",
"139 182 OFFCURVE",
"166 376 CURVE SMOOTH",
"193 568 OFFCURVE",
"372 708 OFFCURVE",
"611 708 CURVE SMOOTH",
"853 708 OFFCURVE",
"992 568 OFFCURVE",
"965 376 CURVE SMOOTH",
"938 182 OFFCURVE",
"761 56 OFFCURVE",
"520 56 CURVE SMOOTH"
);
},
{
closed = 1;
nodes = (
"422 798 OFFCURVE",
"301 904 OFFCURVE",
"327 1088 CURVE SMOOTH",
"352 1270 OFFCURVE",
"505 1386 OFFCURVE",
"706 1386 CURVE SMOOTH",
"909 1386 OFFCURVE",
"1029 1272 OFFCURVE",
"1003 1088 CURVE SMOOTH",
"978 904 OFFCURVE",
"828 798 OFFCURVE",
"624 798 CURVE SMOOTH"
);
}
);
width = 1172;
}
);
leftKerningGroup = zero;
leftMetricsKey = zero;
rightKerningGroup = zero;
rightMetricsKey = zero;
unicode = 0038;
},
{
color = 6;
glyphname = nine;
layers = (
{
layerId = "258ED206-D907-4350-8EBA-CBDDA1C16BF7";
paths = (
{
closed = 1;
nodes = (
"970 -22 OFFCURVE",
"1258 214 OFFCURVE",
"1334 760 CURVE SMOOTH",
"1394 1182 OFFCURVE",
"1198 1466 OFFCURVE",
"798 1466 CURVE SMOOTH",
"455 1466 OFFCURVE",
"184 1258 OFFCURVE",
"145 978 CURVE SMOOTH",
"107 706 OFFCURVE",
"302 528 OFFCURVE",
"604 528 CURVE SMOOTH",
"746 528 OFFCURVE",
"851 564 OFFCURVE",
"924 630 CURVE",
"913 366 OFFCURVE",
"767 278 OFFCURVE",
"603 278 CURVE SMOOTH",
"501 278 OFFCURVE",
"446 344 OFFCURVE",
"443 438 CURVE",
"77 438 LINE",
"41 164 OFFCURVE",
"278 -22 OFFCURVE",
"577 -22 CURVE SMOOTH"
);
},
{
closed = 1;
nodes = (
"630 828 OFFCURVE",
"548 884 OFFCURVE",
"564 996 CURVE SMOOTH",
"579 1106 OFFCURVE",
"672 1182 OFFCURVE",
"774 1182 CURVE SMOOTH",
"886 1182 OFFCURVE",
"953 1104 OFFCURVE",
"929 934 CURVE",
"924 898 OFFCURVE",
"812 828 OFFCURVE",
"722 828 CURVE SMOOTH"
);
}
);
width = 1380;
},
{
layerId = "91AB5BCA-6A50-42DA-B2F7-8181BF189245";
paths = (
{
closed = 1;
nodes = (
"761 -22 OFFCURVE",
"970 282 OFFCURVE",
"1034 736 CURVE SMOOTH",
"1100 1202 OFFCURVE",
"951 1466 OFFCURVE",
"672 1466 CURVE SMOOTH",
"403 1466 OFFCURVE",
"223 1266 OFFCURVE",
"182 970 CURVE SMOOTH",
"140 670 OFFCURVE",
"286 498 OFFCURVE",
"543 498 CURVE SMOOTH",
"732 498 OFFCURVE",
"907 638 OFFCURVE",
"974 836 CURVE",
"918 306 OFFCURVE",
"727 56 OFFCURVE",
"446 56 CURVE SMOOTH",
"281 56 OFFCURVE",
"169 158 OFFCURVE",
"152 310 CURVE",
"76 310 LINE",
"91 98 OFFCURVE",
"242 -22 OFFCURVE",
"435 -22 CURVE SMOOTH"
);
},
{
closed = 1;
nodes = (
"312 580 OFFCURVE",
"231 738 OFFCURVE",
"264 974 CURVE SMOOTH",
"298 1218 OFFCURVE",
"456 1384 OFFCURVE",
"655 1384 CURVE SMOOTH",
"871 1384 OFFCURVE",
"986 1186 OFFCURVE",
"947 936 CURVE",
"919 732 OFFCURVE",
"728 580 OFFCURVE",
"545 580 CURVE SMOOTH"
);
}
);
width = 1108;
}
);
leftKerningGroup = zero;
leftMetricsKey = zero;
rightKerningGroup = zero;
rightMetricsKey = zero;
unicode = 0039;
},
{
color = 6;
glyphname = one.tf;
layers = (
{
layerId = "258ED206-D907-4350-8EBA-CBDDA1C16BF7";
paths = (
{
closed = 1;
nodes = (
"871 0 LINE",
"1075 1446 LINE",
"939 1446 LINE",
"323 1282 LINE",
"277 954 LINE",
"643 1032 LINE",
"497 0 LINE"
);
},
{
closed = 1;
nodes = (
"1183 0 LINE",
"1229 320 LINE",
"169 320 LINE",
"123 0 LINE"
);
}
);
width = 1400;
},
{
layerId = "91AB5BCA-6A50-42DA-B2F7-8181BF189245";
paths = (
{
closed = 1;
nodes = (
"691 2 LINE",
"879 1448 LINE",
"801 1448 LINE",
"359 1252 LINE",
"347 1162 LINE",
"787 1358 LINE",
"611 2 LINE"
);
},
{
closed = 1;
nodes = (
"1135 0 LINE",
"1145 82 LINE",
"185 82 LINE",
"175 0 LINE"
);
}
);
width = 1400;
}
);
leftKerningGroup = "0.tf";
rightKerningGroup = "0.tf";
},
{
color = 6;
glyphname = seven.tf;
layers = (
{
layerId = "258ED206-D907-4350-8EBA-CBDDA1C16BF7";
paths = (
{
closed = 1;
nodes = (
"708 0 LINE",
"750 356 OFFCURVE",
"1150 910 OFFCURVE",
"1384 1134 CURVE",
"1428 1446 LINE",
"230 1446 LINE",
"186 1134 LINE",
"988 1134 LINE",
"564 696 OFFCURVE",
"320 208 OFFCURVE",
"290 0 CURVE"
);
}
);
width = 1400;
},
{
layerId = "91AB5BCA-6A50-42DA-B2F7-8181BF189245";
paths = (
{
closed = 1;
nodes = (
"448 0 LINE",
"535 274 OFFCURVE",
"962 946 OFFCURVE",
"1281 1366 CURVE",
"1292 1446 LINE",
"301 1446 LINE",
"290 1366 LINE",
"1181 1366 LINE",
"824 872 OFFCURVE",
"456 294 OFFCURVE",
"357 0 CURVE"
);
}
);
width = 1400;
}
);
leftKerningGroup = "0.tf";
rightKerningGroup = "0.tf";
},
{
color = 6;
glyphname = zero.dnom;
layers = (
{
layerId = "258ED206-D907-4350-8EBA-CBDDA1C16BF7";
paths = (
{
closed = 1;
nodes = (
"587 -24 OFFCURVE",
"746 149 OFFCURVE",
"787 443 CURVE SMOOTH",
"829 739 OFFCURVE",
"715 912 OFFCURVE",
"481 912 CURVE SMOOTH",
"246 912 OFFCURVE",
"81 739 OFFCURVE",
"40 443 CURVE SMOOTH",
"-2 149 OFFCURVE",
"110 -24 OFFCURVE",
"349 -24 CURVE SMOOTH"
);
},
{
closed = 1;
nodes = (
"286 171 OFFCURVE",
"264 244 OFFCURVE",
"292 442 CURVE SMOOTH",
"321 645 OFFCURVE",
"365 725 OFFCURVE",
"453 725 CURVE SMOOTH",
"542 725 OFFCURVE",
"562 647 OFFCURVE",
"533 442 CURVE SMOOTH",
"506 243 OFFCURVE",
"465 171 OFFCURVE",
"375 171 CURVE SMOOTH"
);
}
);
width = 842;
},
{
layerId = "91AB5BCA-6A50-42DA-B2F7-8181BF189245";
paths = (
{
closed = 1;
nodes = (
"422 -24 OFFCURVE",
"555 127 OFFCURVE",
"600 443 CURVE SMOOTH",
"644 760 OFFCURVE",
"554 912 OFFCURVE",
"389 912 CURVE SMOOTH",
"225 912 OFFCURVE",
"91 759 OFFCURVE",
"47 440 CURVE SMOOTH",
"3 126 OFFCURVE",
"91 -24 OFFCURVE",
"257 -24 CURVE SMOOTH"
);
},
{
closed = 1;
nodes = (
"127 28 OFFCURVE",
"59 154 OFFCURVE",
"99 443 CURVE SMOOTH",
"140 735 OFFCURVE",
"244 861 OFFCURVE",
"382 861 CURVE SMOOTH",
"520 861 OFFCURVE",
"586 736 OFFCURVE",
"545 443 CURVE SMOOTH",
"504 152 OFFCURVE",
"406 28 OFFCURVE",
"266 28 CURVE SMOOTH"
);
}
);
width = 664;
}
);
leftKerningGroup = zero.dnom;
leftMetricsKey = zero.numr;
rightKerningGroup = zero.dnom;
rightMetricsKey = zero.numr;
},
{
color = 6;
glyphname = one.dnom;
layers = (
{
layerId = "258ED206-D907-4350-8EBA-CBDDA1C16BF7";
paths = (
{
closed = 1;
nodes = (
"353.238 0 LINE",
"491.618 909.534 LINE",
"335.626 909.534 LINE",
"310.466 827.764 OFFCURVE",
"226.18 771.154 OFFCURVE",
"76.478 771.154 CURVE",
"56.979 642.838 LINE",
"207.31 642.838 LINE",
"108.557 0 LINE"
);
}
);
width = 544;
},
{
layerId = "91AB5BCA-6A50-42DA-B2F7-8181BF189245";
paths = (
{
closed = 1;
nodes = (
"200 0 LINE",
"328 910 LINE",
"288 910 LINE",
"278 840 OFFCURVE",
"247 815 OFFCURVE",
"91 815 CURVE",
"85 766 LINE",
"259 766 LINE",
"151 0 LINE"
);
}
);
width = 419;
}
);
leftMetricsKey = one.numr;
rightMetricsKey = one.numr;
},
{
color = 6;
glyphname = two.dnom;
layers = (
{
layerId = "258ED206-D907-4350-8EBA-CBDDA1C16BF7";
paths = (
{
closed = 1;
nodes = (
"702 0 LINE",
"731 201 LINE",
"282 201 LINE",
"282 201 LINE SMOOTH",
"302 347 OFFCURVE",
"753 315 OFFCURVE",
"797 633 CURVE SMOOTH",
"822 805 OFFCURVE",
"704 922 OFFCURVE",
"480 922 CURVE SMOOTH",
"219 922 OFFCURVE",
"76 777 OFFCURVE",
"49 589 CURVE",
"280 589 LINE",
"312 689 OFFCURVE",
"380 725 OFFCURVE",
"447 725 CURVE SMOOTH",
"514 725 OFFCURVE",
"548 684 OFFCURVE",
"541 630 CURVE SMOOTH",
"519 476 OFFCURVE",
"48 483 OFFCURVE",
"4 164 CURVE SMOOTH",
"-5 108 LINE",
"-20 0 LINE"
);
}
);
width = 826;
},
{
layerId = "91AB5BCA-6A50-42DA-B2F7-8181BF189245";
paths = (
{
closed = 1;
nodes = (
"506 0 LINE",
"514 52 LINE",
"55 52 LINE",
"58 79 LINE SMOOTH",
"100 375 OFFCURVE",
"545 348 OFFCURVE",
"592 679 CURVE SMOOTH",
"613 825 OFFCURVE",
"527 922 OFFCURVE",
"378 922 CURVE SMOOTH",
"206 922 OFFCURVE",
"93 800 OFFCURVE",
"69 659 CURVE",
"120 659 LINE",
"141 777 OFFCURVE",
"231 869 OFFCURVE",
"367 869 CURVE SMOOTH",
"490 869 OFFCURVE",
"559 794 OFFCURVE",
"543 681 CURVE SMOOTH",
"502 387 OFFCURVE",
"55 409 OFFCURVE",
"9 79 CURVE SMOOTH",
"5 52 LINE",
"-3 0 LINE"
);
}
);
width = 633;
}
);
leftKerningGroup = zero.dnom;
leftMetricsKey = two.numr;
rightKerningGroup = zero.dnom;
rightMetricsKey = two.numr;
},
{
color = 6;
glyphname = three.dnom;
layers = (
{
layerId = "258ED206-D907-4350-8EBA-CBDDA1C16BF7";
paths = (
{
closed = 1;
nodes = (
"570 -20 OFFCURVE",
"773 68 OFFCURVE",
"800 258 CURVE SMOOTH",
"817 385 OFFCURVE",
"732 447 OFFCURVE",
"651 470 CURVE",
"773 509 OFFCURVE",
"825 574 OFFCURVE",
"838 663 CURVE SMOOTH",
"864 844 OFFCURVE",
"708 916 OFFCURVE",
"492 916 CURVE SMOOTH",
"279 916 OFFCURVE",
"103 823 OFFCURVE",
"73 610 CURVE",
"303 610 LINE",
"327 707 OFFCURVE",
"383 732 OFFCURVE",
"459 732 CURVE SMOOTH",
"525 732 OFFCURVE",
"585 709 OFFCURVE",
"578 652 CURVE SMOOTH",
"569 595 OFFCURVE",
"523 565 OFFCURVE",
"444 559 CURVE SMOOTH",
"364 553 LINE",
"337 364 LINE",
"428 359 LINE SMOOTH",
"505 355 OFFCURVE",
"548 317 OFFCURVE",
"541 268 CURVE SMOOTH",
"533 213 OFFCURVE",
"476 173 OFFCURVE",
"383 173 CURVE SMOOTH",
"319 173 OFFCURVE",
"265 198 OFFCURVE",
"260 293 CURVE",
"29 293 LINE",
"1 96 OFFCURVE",
"109 -20 OFFCURVE",
"356 -20 CURVE SMOOTH"
);
}
);
width = 891;
},
{
layerId = "91AB5BCA-6A50-42DA-B2F7-8181BF189245";
paths = (
{
closed = 1;
nodes = (
"447 -22 OFFCURVE",
"579 85 OFFCURVE",
"601 238 CURVE SMOOTH",
"617 351 OFFCURVE",
"564 439 OFFCURVE",
"441 477 CURVE",
"556 519 OFFCURVE",
"626 600 OFFCURVE",
"639 691 CURVE SMOOTH",
"657 826 OFFCURVE",
"564 916 OFFCURVE",
"403 916 CURVE SMOOTH",
"262 916 OFFCURVE",
"127 810 OFFCURVE",
"105 653 CURVE",
"156 653 LINE",
"176 794 OFFCURVE",
"297 865 OFFCURVE",
"398 865 CURVE SMOOTH",
"542 865 OFFCURVE",
"600 776 OFFCURVE",
"588 691 CURVE SMOOTH",
"573 592 OFFCURVE",
"455 498 OFFCURVE",
"324 498 CURVE SMOOTH",
"253 498 LINE",
"245 447 LINE",
"317 447 LINE SMOOTH",
"460 447 OFFCURVE",
"569 376 OFFCURVE",
"549 234 CURVE SMOOTH",
"532 114 OFFCURVE",
"423 32 OFFCURVE",
"279 32 CURVE SMOOTH",
"152 32 OFFCURVE",
"79 114 OFFCURVE",
"81 236 CURVE",
"29 236 LINE",
"15 83 OFFCURVE",
"121 -17 OFFCURVE",
"266 -20 CURVE SMOOTH"
);
}
);
width = 704;
}
);
leftKerningGroup = zero.dnom;
leftMetricsKey = three.numr;
rightKerningGroup = zero.dnom;
rightMetricsKey = three.numr;
},
{
color = 6;
glyphname = four.dnom;
layers = (
{
layerId = "258ED206-D907-4350-8EBA-CBDDA1C16BF7";
paths = (
{
closed = 1;
nodes = (
"602.322 0 LINE",
"628.74 173.604 LINE",
"759.572 173.604 LINE",
"789.764 373.626 LINE",
"660.19 373.626 LINE",
"740.702 909.534 LINE",
"505.456 909.534 LINE",
"19.868 364.82 LINE",
"-9.066 173.604 LINE",
"398.526 173.604 LINE",
"370.85 0 LINE"
);
},
{
closed = 1;
nodes = (
"468.974 626.484 LINE",
"431.234 373.626 LINE",
"242.534 373.626 LINE"
);
}
);
width = 849;
},
{
layerId = "91AB5BCA-6A50-42DA-B2F7-8181BF189245";
paths = (
{
closed = 1;
nodes = (
"427 0 LINE",
"463 263 LINE",
"612 263 LINE",
"619 315 LINE",
"472 315 LINE",
"554 910 LINE",
"502 910 LINE",
"22 325 LINE",
"13 263 LINE",
"416 263 LINE",
"379 0 LINE"
);
},
{
closed = 1;
nodes = (
"491 825 LINE",
"419 315 LINE",
"70 315 LINE"
);
}
);
width = 697;
}
);
leftMetricsKey = four.numr;
rightMetricsKey = four.numr;
},
{
color = 6;
glyphname = five.dnom;
layers = (
{
layerId = "258ED206-D907-4350-8EBA-CBDDA1C16BF7";
paths = (
{
closed = 1;
nodes = (
"618 -20 OFFCURVE",
"778 96 OFFCURVE",
"805 291 CURVE SMOOTH",
"832 478 OFFCURVE",
"713 588 OFFCURVE",
"516 588 CURVE SMOOTH",
"453 588 OFFCURVE",
"409 576 OFFCURVE",
"333 556 CURVE",
"367 707 LINE",
"791 707 LINE",
"829 904 LINE",
"207 904 LINE",
"102 452 LINE",
"254 363 LINE SMOOTH",
"271 354 OFFCURVE",
"273 354 OFFCURVE",
"291 361 CURVE SMOOTH",
"349 385 OFFCURVE",
"380 394 OFFCURVE",
"419 394 CURVE SMOOTH",
"514 394 OFFCURVE",
"558 339 OFFCURVE",
"549 282 CURVE SMOOTH",
"541 222 OFFCURVE",
"475 173 OFFCURVE",
"385 173 CURVE SMOOTH",
"286 173 OFFCURVE",
"246 231 OFFCURVE",
"202 300 CURVE",
"2 176 LINE",
"54 64 OFFCURVE",
"197 -20 OFFCURVE",
"386 -20 CURVE SMOOTH"
);
}
);
width = 882;
},
{
layerId = "91AB5BCA-6A50-42DA-B2F7-8181BF189245";
paths = (
{
closed = 1;
nodes = (
"452 -20 OFFCURVE",
"584 106 OFFCURVE",
"610 292 CURVE SMOOTH",
"638 488 OFFCURVE",
"516 587 OFFCURVE",
"381 587 CURVE SMOOTH",
"293 587 OFFCURVE",
"209 559 OFFCURVE",
"149 485 CURVE",
"227 853 LINE",
"643 853 LINE",
"650 904 LINE",
"185 904 LINE",
"80 419 LINE",
"137 419 LINE SMOOTH",
"137 419 OFFCURVE",
"137 419 OFFCURVE",
"137 419 CURVE SMOOTH",
"221 522 OFFCURVE",
"289 537 OFFCURVE",
"374 537 CURVE SMOOTH",
"487 537 OFFCURVE",
"580 446 OFFCURVE",
"559 291 CURVE SMOOTH",
"536 125 OFFCURVE",
"430 29 OFFCURVE",
"292 29 CURVE SMOOTH",
"170 29 OFFCURVE",
"90 111 OFFCURVE",
"72 233 CURVE",
"18 233 LINE",
"31 82 OFFCURVE",
"136 -20 OFFCURVE",
"282 -20 CURVE SMOOTH"
);
}
);
width = 696;
}
);
leftMetricsKey = five.numr;
rightMetricsKey = five.numr;
},
{
color = 6;
glyphname = six.dnom;
layers = (
{
layerId = "258ED206-D907-4350-8EBA-CBDDA1C16BF7";
paths = (
{
closed = 1;
nodes = (
"590 -24 OFFCURVE",
"766 112 OFFCURVE",
"791 287 CURVE SMOOTH",
"814 447 OFFCURVE",
"701 557 OFFCURVE",
"512 557 CURVE SMOOTH",
"446 557 OFFCURVE",
"377 546 OFFCURVE",
"324 516 CURVE",
"319 622 OFFCURVE",
"387 723 OFFCURVE",
"490 723 CURVE SMOOTH",
"555 723 OFFCURVE",
"591 694 OFFCURVE",
"602 627 CURVE",
"823 627 LINE",
"848 806 OFFCURVE",
"700 912 OFFCURVE",
"512 912 CURVE SMOOTH",
"264 912 OFFCURVE",
"80 730 OFFCURVE",
"37 424 CURVE SMOOTH",
"0 160 OFFCURVE",
"122 -24 OFFCURVE",
"375 -24 CURVE SMOOTH"
);
},
{
closed = 1;
nodes = (
"320 157 OFFCURVE",
"278 209 OFFCURVE",
"293 315 CURVE",
"296 337 OFFCURVE",
"366 381 OFFCURVE",
"422 381 CURVE SMOOTH",
"481 381 OFFCURVE",
"543 354 OFFCURVE",
"532 276 CURVE SMOOTH",
"522 208 OFFCURVE",
"454 157 OFFCURVE",
"390 157 CURVE SMOOTH"
);
}
);
width = 868;
},
{
layerId = "91AB5BCA-6A50-42DA-B2F7-8181BF189245";
paths = (
{
closed = 1;
nodes = (
"444 -24 OFFCURVE",
"559 101 OFFCURVE",
"584 287 CURVE SMOOTH",
"611 476 OFFCURVE",
"518 584 OFFCURVE",
"357 584 CURVE SMOOTH",
"237 584 OFFCURVE",
"127 496 OFFCURVE",
"85 371 CURVE",
"120 705 OFFCURVE",
"235 863 OFFCURVE",
"411 863 CURVE SMOOTH",
"515 863 OFFCURVE",
"580 796 OFFCURVE",
"591 701 CURVE",
"638 701 LINE",
"629 834 OFFCURVE",
"540 912 OFFCURVE",
"418 912 CURVE SMOOTH",
"213 912 OFFCURVE",
"86 720 OFFCURVE",
"46 434 CURVE SMOOTH",
"5 141 OFFCURVE",
"99 -24 OFFCURVE",
"276 -24 CURVE SMOOTH"
);
},
{
closed = 1;
nodes = (
"150 28 OFFCURVE",
"77 151 OFFCURVE",
"102 308 CURVE",
"120 437 OFFCURVE",
"240 532 OFFCURVE",
"355 532 CURVE SMOOTH",
"501 532 OFFCURVE",
"554 433 OFFCURVE",
"532 284 CURVE SMOOTH",
"511 131 OFFCURVE",
"412 28 OFFCURVE",
"286 28 CURVE SMOOTH"
);
}
);
width = 670;
}
);
leftKerningGroup = zero.dnom;
leftMetricsKey = six.numr;
rightKerningGroup = zero.dnom;
rightMetricsKey = six.numr;
},
{
color = 6;
glyphname = seven.dnom;
layers = (
{
layerId = "258ED206-D907-4350-8EBA-CBDDA1C16BF7";
paths = (
{
closed = 1;
nodes = (
"385.317 0 LINE",
"414.88 223.924 OFFCURVE",
"631.256 572.39 OFFCURVE",
"777.813 713.286 CURVE",
"808.634 909.534 LINE",
"95.977 909.534 LINE",
"67.043 713.286 LINE",
"529.987 713.286 LINE",
"262.662 437.784 OFFCURVE",
"143.781 130.832 OFFCURVE",
"123.653 0 CURVE"
);
}
);
width = 773;
},
{
layerId = "91AB5BCA-6A50-42DA-B2F7-8181BF189245";
paths = (
{
closed = 1;
nodes = (
"176.005 0 LINE",
"233 172 OFFCURVE",
"445 595 OFFCURVE",
"646 859 CURVE",
"655 910 LINE",
"104 910 LINE",
"97 859 LINE",
"587 859 LINE",
"361 548 OFFCURVE",
"190 185 OFFCURVE",
"126 0 CURVE"
);
}
);
width = 629;
}
);
leftMetricsKey = seven.numr;
rightMetricsKey = seven.numr;
},
{
color = 6;
glyphname = eight.dnom;
layers = (
{
layerId = "258ED206-D907-4350-8EBA-CBDDA1C16BF7";
paths = (
{
closed = 1;
nodes = (
"599 -21 OFFCURVE",
"769 83 OFFCURVE",
"792 250 CURVE SMOOTH",
"806 353 OFFCURVE",
"733 445 OFFCURVE",
"658 462 CURVE",
"730 498 OFFCURVE",
"797 562 OFFCURVE",
"809 651 CURVE SMOOTH",
"833 822 OFFCURVE",
"697 914 OFFCURVE",
"500 914 CURVE SMOOTH",
"302 914 OFFCURVE",
"141 822 OFFCURVE",
"117 651 CURVE SMOOTH",
"105 562 OFFCURVE",
"153 498 OFFCURVE",
"216 462 CURVE",
"136 445 OFFCURVE",
"36 353 OFFCURVE",
"22 250 CURVE SMOOTH",
"-1 83 OFFCURVE",
"139 -21 OFFCURVE",
"369 -21 CURVE SMOOTH"
);
},
{
closed = 1;
nodes = (
"314 158 OFFCURVE",
"274 198 OFFCURVE",
"282 259 CURVE SMOOTH",
"291 320 OFFCURVE",
"343 362 OFFCURVE",
"423 362 CURVE SMOOTH",
"503 362 OFFCURVE",
"543 320 OFFCURVE",
"534 259 CURVE SMOOTH",
"526 198 OFFCURVE",
"475 158 OFFCURVE",
"394 158 CURVE SMOOTH"
);
},
{
closed = 1;
nodes = (
"392 553 OFFCURVE",
"351 592 OFFCURVE",
"360 655 CURVE SMOOTH",
"368 718 OFFCURVE",
"420 757 OFFCURVE",
"478 757 CURVE SMOOTH",
"536 757 OFFCURVE",
"577 718 OFFCURVE",
"568 655 CURVE SMOOTH",
"560 592 OFFCURVE",
"507 553 OFFCURVE",
"450 553 CURVE SMOOTH"
);
}
);
width = 885;
},
{
layerId = "91AB5BCA-6A50-42DA-B2F7-8181BF189245";
paths = (
{
closed = 1;
nodes = (
"479 -22 OFFCURVE",
"612 80 OFFCURVE",
"633 232 CURVE SMOOTH",
"648 339 OFFCURVE",
"575 449 OFFCURVE",
"486 466 CURVE",
"577 501 OFFCURVE",
"641 569 OFFCURVE",
"656 674 CURVE SMOOTH",
"677 826 OFFCURVE",
"576 914 OFFCURVE",
"426 914 CURVE SMOOTH",
"277 914 OFFCURVE",
"149 826 OFFCURVE",
"127 674 CURVE SMOOTH",
"112 569 OFFCURVE",
"160 501 OFFCURVE",
"240 466 CURVE",
"146 449 OFFCURVE",
"43 339 OFFCURVE",
"28 232 CURVE SMOOTH",
"7 80 OFFCURVE",
"110 -22 OFFCURVE",
"294 -22 CURVE SMOOTH"
);
},
{
closed = 1;
nodes = (
"151 27 OFFCURVE",
"61 106 OFFCURVE",
"78 229 CURVE SMOOTH",
"95 349 OFFCURVE",
"208 437 OFFCURVE",
"358 437 CURVE SMOOTH",
"511 437 OFFCURVE",
"598 349 OFFCURVE",
"581 229 CURVE SMOOTH",
"564 106 OFFCURVE",
"453 27 OFFCURVE",
"301 27 CURVE SMOOTH"
);
},
{
closed = 1;
nodes = (
"239 494 OFFCURVE",
"163 561 OFFCURVE",
"180 676 CURVE SMOOTH",
"195 791 OFFCURVE",
"292 864 OFFCURVE",
"418 864 CURVE SMOOTH",
"546 864 OFFCURVE",
"621 792 OFFCURVE",
"605 676 CURVE SMOOTH",
"589 561 OFFCURVE",
"495 494 OFFCURVE",
"366 494 CURVE SMOOTH"
);
}
);
width = 737;
}
);
leftKerningGroup = zero.dnom;
leftMetricsKey = eight.numr;
rightKerningGroup = zero.dnom;
rightMetricsKey = eight.numr;
},
{
color = 6;
glyphname = nine.dnom;
layers = (
{
layerId = "258ED206-D907-4350-8EBA-CBDDA1C16BF7";
paths = (
{
closed = 1;
nodes = (
"581 -24 OFFCURVE",
"762 125 OFFCURVE",
"810 468 CURVE SMOOTH",
"848 733 OFFCURVE",
"725 912 OFFCURVE",
"473 912 CURVE SMOOTH",
"257 912 OFFCURVE",
"87 781 OFFCURVE",
"62 605 CURVE SMOOTH",
"38 434 OFFCURVE",
"161 322 OFFCURVE",
"351 322 CURVE SMOOTH",
"440 322 OFFCURVE",
"506 345 OFFCURVE",
"552 386 CURVE",
"545 220 OFFCURVE",
"453 165 OFFCURVE",
"350 165 CURVE SMOOTH",
"286 165 OFFCURVE",
"252 206 OFFCURVE",
"250 266 CURVE",
"19 266 LINE",
"-3 93 OFFCURVE",
"146 -24 OFFCURVE",
"334 -24 CURVE SMOOTH"
);
},
{
closed = 1;
nodes = (
"367 511 OFFCURVE",
"316 546 OFFCURVE",
"326 616 CURVE SMOOTH",
"335 686 OFFCURVE",
"394 733 OFFCURVE",
"458 733 CURVE SMOOTH",
"528 733 OFFCURVE",
"570 684 OFFCURVE",
"555 577 CURVE",
"552 555 OFFCURVE",
"482 511 OFFCURVE",
"425 511 CURVE SMOOTH"
);
}
);
width = 862;
},
{
layerId = "91AB5BCA-6A50-42DA-B2F7-8181BF189245";
paths = (
{
closed = 1;
nodes = (
"442 -24 OFFCURVE",
"573 167 OFFCURVE",
"613 453 CURVE SMOOTH",
"655 746 OFFCURVE",
"561 912 OFFCURVE",
"386 912 CURVE SMOOTH",
"216 912 OFFCURVE",
"103 786 OFFCURVE",
"77 600 CURVE SMOOTH",
"51 411 OFFCURVE",
"143 303 OFFCURVE",
"305 303 CURVE SMOOTH",
"423 303 OFFCURVE",
"534 391 OFFCURVE",
"576 516 CURVE",
"540 182 OFFCURVE",
"420 25 OFFCURVE",
"244 25 CURVE SMOOTH",
"140 25 OFFCURVE",
"69 89 OFFCURVE",
"59 185 CURVE",
"11 185 LINE",
"20 52 OFFCURVE",
"115 -24 OFFCURVE",
"237 -24 CURVE SMOOTH"
);
},
{
closed = 1;
nodes = (
"159 355 OFFCURVE",
"108 454 OFFCURVE",
"129 603 CURVE SMOOTH",
"150 756 OFFCURVE",
"250 861 OFFCURVE",
"375 861 CURVE SMOOTH",
"511 861 OFFCURVE",
"583 736 OFFCURVE",
"559 579 CURVE",
"541 450 OFFCURVE",
"421 355 OFFCURVE",
"306 355 CURVE SMOOTH"
);
}
);
width = 676;
}
);
leftMetricsKey = nine.numr;
rightMetricsKey = nine.numr;
},
{
color = 6;
glyphname = zero.numr;
layers = (
{
layerId = "258ED206-D907-4350-8EBA-CBDDA1C16BF7";
paths = (
{
closed = 1;
nodes = (
"665.791 544.162 OFFCURVE",
"824.928 716.508 OFFCURVE",
"866.442 1010.88 CURVE SMOOTH",
"907.956 1306.51 OFFCURVE",
"794.107 1480.114 OFFCURVE",
"560.119 1480.114 CURVE SMOOTH",
"324.873 1480.114 OFFCURVE",
"160.075 1306.51 OFFCURVE",
"118.561 1010.88 CURVE SMOOTH",
"77.047 716.508 OFFCURVE",
"189.009 544.162 OFFCURVE",
"428.029 544.162 CURVE SMOOTH"
);
},
{
closed = 1;
nodes = (
"364.5 739.152 OFFCURVE",
"343.114 812.116 OFFCURVE",
"370.79 1009.622 CURVE SMOOTH",
"399.724 1213.418 OFFCURVE",
"443.754 1292.672 OFFCURVE",
"532.443 1292.672 CURVE SMOOTH",
"620.503 1292.672 OFFCURVE",
"641.26 1214.676 OFFCURVE",
"612.326 1009.622 CURVE SMOOTH",
"584.65 810.858 OFFCURVE",
"544.394 739.152 OFFCURVE",
"454.447 739.152 CURVE SMOOTH"
);
}
);
width = 842;
},
{
layerId = "91AB5BCA-6A50-42DA-B2F7-8181BF189245";
paths = (
{
closed = 1;
nodes = (
"502 544 OFFCURVE",
"635 695 OFFCURVE",
"680 1011 CURVE SMOOTH",
"724 1328 OFFCURVE",
"634 1480 OFFCURVE",
"469 1480 CURVE SMOOTH",
"305 1480 OFFCURVE",
"171 1327 OFFCURVE",
"127 1008 CURVE SMOOTH",
"83 694 OFFCURVE",
"171 544 OFFCURVE",
"337 544 CURVE SMOOTH"
);
},
{
closed = 1;
nodes = (
"207 596 OFFCURVE",
"139 722 OFFCURVE",
"179 1011 CURVE SMOOTH",
"220 1303 OFFCURVE",
"324 1429 OFFCURVE",
"462 1429 CURVE SMOOTH",
"600 1429 OFFCURVE",
"666 1304 OFFCURVE",
"625 1011 CURVE SMOOTH",
"584 720 OFFCURVE",
"486 596 OFFCURVE",
"346 596 CURVE SMOOTH"
);
}
);
width = 665;
}
);
leftKerningGroup = zero.numr;
rightKerningGroup = zero.numr;
},
{
color = 6;
glyphname = one.numr;
layers = (
{
layerId = "258ED206-D907-4350-8EBA-CBDDA1C16BF7";
paths = (
{
closed = 1;
nodes = (
"430.238 552 LINE",
"568.618 1461.534 LINE",
"412.626 1461.534 LINE",
"387.466 1379.764 OFFCURVE",
"303.18 1323.154 OFFCURVE",
"153.478 1323.154 CURVE",
"133.979 1194.838 LINE",
"284.31 1194.838 LINE",
"185.557 552 LINE"
);
}
);
width = 543;
},
{
layerId = "91AB5BCA-6A50-42DA-B2F7-8181BF189245";
paths = (
{
closed = 1;
nodes = (
"277 552 LINE",
"405 1462 LINE",
"365 1462 LINE",
"355 1392 OFFCURVE",
"324 1367 OFFCURVE",
"168 1367 CURVE",
"162 1318 LINE",
"336 1318 LINE",
"228 552 LINE"
);
}
);
width = 418;
}
);
leftKerningGroup = onehalf;
rightKerningGroup = onehalf;
},
{
color = 6;
glyphname = two.numr;
layers = (
{
layerId = "258ED206-D907-4350-8EBA-CBDDA1C16BF7";
paths = (
{
closed = 1;
nodes = (
"781 558 LINE",
"810 759 LINE",
"361 759 LINE",
"361 759 LINE SMOOTH",
"381 905 OFFCURVE",
"832 873 OFFCURVE",
"876 1191 CURVE SMOOTH",
"901 1363 OFFCURVE",
"783 1480 OFFCURVE",
"559 1480 CURVE SMOOTH",
"298 1480 OFFCURVE",
"155 1335 OFFCURVE",
"128 1147 CURVE",
"359 1147 LINE",
"391 1247 OFFCURVE",
"459 1283 OFFCURVE",
"526 1283 CURVE SMOOTH",
"593 1283 OFFCURVE",
"627 1242 OFFCURVE",
"620 1188 CURVE SMOOTH",
"598 1034 OFFCURVE",
"127 1041 OFFCURVE",
"83 722 CURVE SMOOTH",
"74 666 LINE",
"59 558 LINE"
);
}
);
width = 826;
},
{
layerId = "91AB5BCA-6A50-42DA-B2F7-8181BF189245";
paths = (
{
closed = 1;
nodes = (
"584 558 LINE",
"592 610 LINE",
"133 610 LINE",
"136 637 LINE SMOOTH",
"178 933 OFFCURVE",
"623 906 OFFCURVE",
"670 1237 CURVE SMOOTH",
"691 1383 OFFCURVE",
"605 1480 OFFCURVE",
"456 1480 CURVE SMOOTH",
"284 1480 OFFCURVE",
"171 1358 OFFCURVE",
"147 1217 CURVE",
"198 1217 LINE",
"219 1335 OFFCURVE",
"309 1427 OFFCURVE",
"445 1427 CURVE SMOOTH",
"568 1427 OFFCURVE",
"637 1352 OFFCURVE",
"621 1239 CURVE SMOOTH",
"580 945 OFFCURVE",
"133 967 OFFCURVE",
"87 637 CURVE SMOOTH",
"83 610 LINE",
"75 558 LINE"
);
}
);
width = 633;
}
);
leftKerningGroup = zero.numr;
leftMetricsKey = one.numr;
rightMetricsKey = zero.numr;
},
{
color = 6;
glyphname = three.numr;
layers = (
{
layerId = "258ED206-D907-4350-8EBA-CBDDA1C16BF7";
paths = (
{
closed = 1;
nodes = (
"649 544 OFFCURVE",
"852 632 OFFCURVE",
"879 822 CURVE SMOOTH",
"896 949 OFFCURVE",
"811 1011 OFFCURVE",
"730 1034 CURVE",
"852 1073 OFFCURVE",
"904 1138 OFFCURVE",
"917 1227 CURVE SMOOTH",
"943 1408 OFFCURVE",
"787 1480 OFFCURVE",
"571 1480 CURVE SMOOTH",
"358 1480 OFFCURVE",
"182 1387 OFFCURVE",
"152 1174 CURVE",
"382 1174 LINE",
"406 1271 OFFCURVE",
"462 1296 OFFCURVE",
"538 1296 CURVE SMOOTH",
"604 1296 OFFCURVE",
"664 1273 OFFCURVE",
"657 1216 CURVE SMOOTH",
"648 1159 OFFCURVE",
"602 1129 OFFCURVE",
"523 1123 CURVE SMOOTH",
"443 1117 LINE",
"416 928 LINE",
"507 923 LINE SMOOTH",
"584 919 OFFCURVE",
"627 881 OFFCURVE",
"620 832 CURVE SMOOTH",
"612 777 OFFCURVE",
"555 737 OFFCURVE",
"462 737 CURVE SMOOTH",
"398 737 OFFCURVE",
"344 762 OFFCURVE",
"339 857 CURVE",
"108 857 LINE",
"80 660 OFFCURVE",
"188 544 OFFCURVE",
"435 544 CURVE SMOOTH"
);
}
);
width = 891;
},
{
layerId = "91AB5BCA-6A50-42DA-B2F7-8181BF189245";
paths = (
{
closed = 1;
nodes = (
"526 542 OFFCURVE",
"658 649 OFFCURVE",
"680 802 CURVE SMOOTH",
"696 915 OFFCURVE",
"643 1003 OFFCURVE",
"520 1041 CURVE",
"635 1083 OFFCURVE",
"705 1164 OFFCURVE",
"718 1255 CURVE SMOOTH",
"736 1390 OFFCURVE",
"643 1480 OFFCURVE",
"482 1480 CURVE SMOOTH",
"341 1480 OFFCURVE",
"206 1374 OFFCURVE",
"184 1217 CURVE",
"235 1217 LINE",
"255 1358 OFFCURVE",
"376 1429 OFFCURVE",
"477 1429 CURVE SMOOTH",
"621 1429 OFFCURVE",
"679 1340 OFFCURVE",
"667 1255 CURVE SMOOTH",
"652 1156 OFFCURVE",
"534 1062 OFFCURVE",
"403 1062 CURVE SMOOTH",
"332 1062 LINE",
"324 1011 LINE",
"396 1011 LINE SMOOTH",
"539 1011 OFFCURVE",
"648 940 OFFCURVE",
"628 798 CURVE SMOOTH",
"611 678 OFFCURVE",
"502 596 OFFCURVE",
"358 596 CURVE SMOOTH",
"231 596 OFFCURVE",
"158 678 OFFCURVE",
"160 800 CURVE",
"108 800 LINE",
"94 647 OFFCURVE",
"200 547 OFFCURVE",
"345 544 CURVE SMOOTH"
);
}
);
width = 704;
}
);
leftKerningGroup = zero.numr;
leftMetricsKey = eight.numr;
rightKerningGroup = zero.numr;
rightMetricsKey = eight.numr;
},
{
color = 6;
glyphname = four.numr;
layers = (
{
layerId = "258ED206-D907-4350-8EBA-CBDDA1C16BF7";
paths = (
{
closed = 1;
nodes = (
"679.322 552 LINE",
"705.74 725.604 LINE",
"836.572 725.604 LINE",
"866.764 925.626 LINE",
"737.19 925.626 LINE",
"817.702 1461.534 LINE",
"582.456 1461.534 LINE",
"96.868 916.82 LINE",
"67.934 725.604 LINE",
"475.526 725.604 LINE",
"447.85 552 LINE"
);
},
{
closed = 1;
nodes = (
"545.974 1178.484 LINE",
"508.234 925.626 LINE",
"319.534 925.626 LINE"
);
}
);
width = 849;
},
{
layerId = "91AB5BCA-6A50-42DA-B2F7-8181BF189245";
paths = (
{
closed = 1;
nodes = (
"505 552 LINE",
"541 815 LINE",
"690 815 LINE",
"697 867 LINE",
"550 867 LINE",
"632 1462 LINE",
"580 1462 LINE",
"100 877 LINE",
"91 815 LINE",
"494 815 LINE",
"457 552 LINE"
);
},
{
closed = 1;
nodes = (
"569 1377 LINE",
"497 867 LINE",
"148 867 LINE"
);
}
);
width = 697;
}
);
leftKerningGroup = one.numr;
leftMetricsKey = one.numr;
rightKerningGroup = one.numr;
rightMetricsKey = "=|one.numr";
},
{
color = 6;
glyphname = five.numr;
layers = (
{
layerId = "258ED206-D907-4350-8EBA-CBDDA1C16BF7";
paths = (
{
closed = 1;
nodes = (
"696 538 OFFCURVE",
"856 654 OFFCURVE",
"883 849 CURVE SMOOTH",
"910 1036 OFFCURVE",
"791 1146 OFFCURVE",
"594 1146 CURVE SMOOTH",
"531 1146 OFFCURVE",
"487 1134 OFFCURVE",
"411 1114 CURVE",
"445 1265 LINE",
"869 1265 LINE",
"907 1462 LINE",
"285 1462 LINE",
"180 1010 LINE",
"332 921 LINE SMOOTH",
"349 912 OFFCURVE",
"351 912 OFFCURVE",
"369 919 CURVE SMOOTH",
"427 943 OFFCURVE",
"458 952 OFFCURVE",
"497 952 CURVE SMOOTH",
"592 952 OFFCURVE",
"636 897 OFFCURVE",
"627 840 CURVE SMOOTH",
"619 780 OFFCURVE",
"553 731 OFFCURVE",
"463 731 CURVE SMOOTH",
"364 731 OFFCURVE",
"324 789 OFFCURVE",
"280 858 CURVE",
"80 734 LINE",
"132 622 OFFCURVE",
"275 538 OFFCURVE",
"464 538 CURVE SMOOTH"
);
}
);
width = 881;
},
{
layerId = "91AB5BCA-6A50-42DA-B2F7-8181BF189245";
paths = (
{
closed = 1;
nodes = (
"531 538 OFFCURVE",
"663 664 OFFCURVE",
"689 850 CURVE SMOOTH",
"717 1046 OFFCURVE",
"595 1145 OFFCURVE",
"460 1145 CURVE SMOOTH",
"372 1145 OFFCURVE",
"288 1117 OFFCURVE",
"228 1043 CURVE",
"306 1411 LINE",
"722 1411 LINE",
"729 1462 LINE",
"264 1462 LINE",
"159 977 LINE",
"216 977 LINE SMOOTH",
"216 977 OFFCURVE",
"216 977 OFFCURVE",
"216 977 CURVE SMOOTH",
"300 1080 OFFCURVE",
"368 1095 OFFCURVE",
"453 1095 CURVE SMOOTH",
"566 1095 OFFCURVE",
"659 1004 OFFCURVE",
"638 849 CURVE SMOOTH",
"615 683 OFFCURVE",
"509 587 OFFCURVE",
"371 587 CURVE SMOOTH",
"249 587 OFFCURVE",
"169 669 OFFCURVE",
"151 791 CURVE",
"97 791 LINE",
"110 640 OFFCURVE",
"215 538 OFFCURVE",
"361 538 CURVE SMOOTH"
);
}
);
width = 696;
}
);
leftKerningGroup = zero.numr;
leftMetricsKey = zero.numr;
rightKerningGroup = zero.numr;
rightMetricsKey = zero.numr;
},
{
color = 6;
glyphname = six.numr;
layers = (
{
layerId = "258ED206-D907-4350-8EBA-CBDDA1C16BF7";
paths = (
{
closed = 1;
nodes = (
"670 546 OFFCURVE",
"846 682 OFFCURVE",
"871 857 CURVE SMOOTH",
"894 1017 OFFCURVE",
"781 1127 OFFCURVE",
"592 1127 CURVE SMOOTH",
"526 1127 OFFCURVE",
"457 1116 OFFCURVE",
"404 1086 CURVE",
"399 1192 OFFCURVE",
"467 1293 OFFCURVE",
"570 1293 CURVE SMOOTH",
"635 1293 OFFCURVE",
"671 1264 OFFCURVE",
"682 1197 CURVE",
"903 1197 LINE",
"928 1376 OFFCURVE",
"780 1482 OFFCURVE",
"592 1482 CURVE SMOOTH",
"344 1482 OFFCURVE",
"160 1300 OFFCURVE",
"117 994 CURVE SMOOTH",
"80 730 OFFCURVE",
"202 546 OFFCURVE",
"455 546 CURVE SMOOTH"
);
},
{
closed = 1;
nodes = (
"400 727 OFFCURVE",
"358 779 OFFCURVE",
"373 885 CURVE",
"376 907 OFFCURVE",
"446 951 OFFCURVE",
"502 951 CURVE SMOOTH",
"561 951 OFFCURVE",
"623 924 OFFCURVE",
"612 846 CURVE SMOOTH",
"602 778 OFFCURVE",
"534 727 OFFCURVE",
"470 727 CURVE SMOOTH"
);
}
);
width = 868;
},
{
layerId = "91AB5BCA-6A50-42DA-B2F7-8181BF189245";
paths = (
{
closed = 1;
nodes = (
"524 546 OFFCURVE",
"639 671 OFFCURVE",
"664 857 CURVE SMOOTH",
"691 1046 OFFCURVE",
"598 1154 OFFCURVE",
"437 1154 CURVE SMOOTH",
"317 1154 OFFCURVE",
"207 1066 OFFCURVE",
"165 941 CURVE",
"200 1275 OFFCURVE",
"315 1433 OFFCURVE",
"491 1433 CURVE SMOOTH",
"595 1433 OFFCURVE",
"660 1366 OFFCURVE",
"671 1271 CURVE",
"718 1271 LINE",
"709 1404 OFFCURVE",
"620 1482 OFFCURVE",
"498 1482 CURVE SMOOTH",
"293 1482 OFFCURVE",
"166 1290 OFFCURVE",
"126 1004 CURVE SMOOTH",
"85 711 OFFCURVE",
"179 546 OFFCURVE",
"356 546 CURVE SMOOTH"
);
},
{
closed = 1;
nodes = (
"230 598 OFFCURVE",
"157 721 OFFCURVE",
"182 878 CURVE",
"200 1007 OFFCURVE",
"320 1102 OFFCURVE",
"435 1102 CURVE SMOOTH",
"581 1102 OFFCURVE",
"634 1003 OFFCURVE",
"612 854 CURVE SMOOTH",
"591 701 OFFCURVE",
"492 598 OFFCURVE",
"366 598 CURVE SMOOTH"
);
}
);
width = 670;
}
);
leftKerningGroup = zero.numr;
leftMetricsKey = zero.numr;
rightKerningGroup = zero.numr;
rightMetricsKey = zero.numr;
},
{
color = 6;
glyphname = seven.numr;
layers = (
{
layerId = "258ED206-D907-4350-8EBA-CBDDA1C16BF7";
paths = (
{
closed = 1;
nodes = (
"462.317 550 LINE",
"491.88 773.924 OFFCURVE",
"708.256 1122.39 OFFCURVE",
"854.813 1263.286 CURVE",
"885.634 1459.534 LINE",
"172.977 1459.534 LINE",
"144.043 1263.286 LINE",
"606.987 1263.286 LINE",
"339.662 987.784 OFFCURVE",
"220.781 680.832 OFFCURVE",
"200.653 550 CURVE"
);
}
);
width = 772;
},
{
layerId = "91AB5BCA-6A50-42DA-B2F7-8181BF189245";
paths = (
{
closed = 1;
nodes = (
"254.005 550 LINE",
"311 722 OFFCURVE",
"523 1145 OFFCURVE",
"724 1409 CURVE",
"733 1460 LINE",
"182 1460 LINE",
"175 1409 LINE",
"665 1409 LINE",
"439 1098 OFFCURVE",
"268 735 OFFCURVE",
"204 550 CURVE"
);
}
);
width = 629;
}
);
leftMetricsKey = one.numr;
rightMetricsKey = "=|one.numr-20";
},
{
color = 6;
glyphname = eight.numr;
layers = (
{
layerId = "258ED206-D907-4350-8EBA-CBDDA1C16BF7";
paths = (
{
closed = 1;
nodes = (
"679 545 OFFCURVE",
"849 649 OFFCURVE",
"872 816 CURVE SMOOTH",
"886 919 OFFCURVE",
"813 1011 OFFCURVE",
"738 1028 CURVE",
"810 1064 OFFCURVE",
"877 1128 OFFCURVE",
"889 1217 CURVE SMOOTH",
"913 1388 OFFCURVE",
"777 1480 OFFCURVE",
"580 1480 CURVE SMOOTH",
"382 1480 OFFCURVE",
"221 1388 OFFCURVE",
"197 1217 CURVE SMOOTH",
"185 1128 OFFCURVE",
"233 1064 OFFCURVE",
"296 1028 CURVE",
"216 1011 OFFCURVE",
"116 919 OFFCURVE",
"102 816 CURVE SMOOTH",
"79 649 OFFCURVE",
"219 545 OFFCURVE",
"449 545 CURVE SMOOTH"
);
},
{
closed = 1;
nodes = (
"394 724 OFFCURVE",
"354 764 OFFCURVE",
"362 825 CURVE SMOOTH",
"371 886 OFFCURVE",
"423 928 OFFCURVE",
"503 928 CURVE SMOOTH",
"583 928 OFFCURVE",
"623 886 OFFCURVE",
"614 825 CURVE SMOOTH",
"606 764 OFFCURVE",
"555 724 OFFCURVE",
"474 724 CURVE SMOOTH"
);
},
{
closed = 1;
nodes = (
"472 1119 OFFCURVE",
"431 1158 OFFCURVE",
"440 1221 CURVE SMOOTH",
"448 1284 OFFCURVE",
"500 1323 OFFCURVE",
"558 1323 CURVE SMOOTH",
"616 1323 OFFCURVE",
"657 1284 OFFCURVE",
"648 1221 CURVE SMOOTH",
"640 1158 OFFCURVE",
"587 1119 OFFCURVE",
"530 1119 CURVE SMOOTH"
);
}
);
width = 885;
},
{
layerId = "91AB5BCA-6A50-42DA-B2F7-8181BF189245";
paths = (
{
closed = 1;
nodes = (
"558 544 OFFCURVE",
"691 646 OFFCURVE",
"712 798 CURVE SMOOTH",
"727 905 OFFCURVE",
"654 1015 OFFCURVE",
"565 1032 CURVE",
"656 1067 OFFCURVE",
"720 1135 OFFCURVE",
"735 1240 CURVE SMOOTH",
"756 1392 OFFCURVE",
"655 1480 OFFCURVE",
"505 1480 CURVE SMOOTH",
"356 1480 OFFCURVE",
"228 1392 OFFCURVE",
"206 1240 CURVE SMOOTH",
"191 1135 OFFCURVE",
"239 1067 OFFCURVE",
"319 1032 CURVE",
"225 1015 OFFCURVE",
"122 905 OFFCURVE",
"107 798 CURVE SMOOTH",
"86 646 OFFCURVE",
"189 544 OFFCURVE",
"373 544 CURVE SMOOTH"
);
},
{
closed = 1;
nodes = (
"230 593 OFFCURVE",
"140 672 OFFCURVE",
"157 795 CURVE SMOOTH",
"174 915 OFFCURVE",
"287 1003 OFFCURVE",
"437 1003 CURVE SMOOTH",
"590 1003 OFFCURVE",
"677 915 OFFCURVE",
"660 795 CURVE SMOOTH",
"643 672 OFFCURVE",
"532 593 OFFCURVE",
"380 593 CURVE SMOOTH"
);
},
{
closed = 1;
nodes = (
"318 1060 OFFCURVE",
"242 1127 OFFCURVE",
"259 1242 CURVE SMOOTH",
"274 1357 OFFCURVE",
"371 1430 OFFCURVE",
"497 1430 CURVE SMOOTH",
"625 1430 OFFCURVE",
"700 1358 OFFCURVE",
"684 1242 CURVE SMOOTH",
"668 1127 OFFCURVE",
"574 1060 OFFCURVE",
"445 1060 CURVE SMOOTH"
);
}
);
width = 737;
}
);
leftKerningGroup = zero.numr;
leftMetricsKey = "=zero.numr+10";
rightKerningGroup = zero.numr;
rightMetricsKey = "=zero.numr+10";
},
{
color = 6;
glyphname = nine.numr;
layers = (
{
layerId = "258ED206-D907-4350-8EBA-CBDDA1C16BF7";
paths = (
{
closed = 1;
nodes = (
"661 546 OFFCURVE",
"842 695 OFFCURVE",
"890 1038 CURVE SMOOTH",
"928 1303 OFFCURVE",
"805 1482 OFFCURVE",
"553 1482 CURVE SMOOTH",
"337 1482 OFFCURVE",
"167 1351 OFFCURVE",
"142 1175 CURVE SMOOTH",
"118 1004 OFFCURVE",
"241 892 OFFCURVE",
"431 892 CURVE SMOOTH",
"520 892 OFFCURVE",
"586 915 OFFCURVE",
"632 956 CURVE",
"625 790 OFFCURVE",
"533 735 OFFCURVE",
"430 735 CURVE SMOOTH",
"366 735 OFFCURVE",
"332 776 OFFCURVE",
"330 836 CURVE",
"99 836 LINE",
"77 663 OFFCURVE",
"226 546 OFFCURVE",
"414 546 CURVE SMOOTH"
);
},
{
closed = 1;
nodes = (
"447 1081 OFFCURVE",
"396 1116 OFFCURVE",
"406 1186 CURVE SMOOTH",
"415 1256 OFFCURVE",
"474 1303 OFFCURVE",
"538 1303 CURVE SMOOTH",
"608 1303 OFFCURVE",
"650 1254 OFFCURVE",
"635 1147 CURVE",
"632 1125 OFFCURVE",
"562 1081 OFFCURVE",
"505 1081 CURVE SMOOTH"
);
}
);
width = 862;
},
{
layerId = "91AB5BCA-6A50-42DA-B2F7-8181BF189245";
paths = (
{
closed = 1;
nodes = (
"522 546 OFFCURVE",
"653 737 OFFCURVE",
"693 1023 CURVE SMOOTH",
"735 1316 OFFCURVE",
"641 1482 OFFCURVE",
"466 1482 CURVE SMOOTH",
"296 1482 OFFCURVE",
"183 1356 OFFCURVE",
"157 1170 CURVE SMOOTH",
"131 981 OFFCURVE",
"223 873 OFFCURVE",
"385 873 CURVE SMOOTH",
"503 873 OFFCURVE",
"614 961 OFFCURVE",
"656 1086 CURVE",
"620 752 OFFCURVE",
"500 595 OFFCURVE",
"324 595 CURVE SMOOTH",
"220 595 OFFCURVE",
"149 659 OFFCURVE",
"139 755 CURVE",
"91 755 LINE",
"100 622 OFFCURVE",
"195 546 OFFCURVE",
"317 546 CURVE SMOOTH"
);
},
{
closed = 1;
nodes = (
"239 925 OFFCURVE",
"188 1024 OFFCURVE",
"209 1173 CURVE SMOOTH",
"230 1326 OFFCURVE",
"330 1431 OFFCURVE",
"455 1431 CURVE SMOOTH",
"591 1431 OFFCURVE",
"663 1306 OFFCURVE",
"639 1149 CURVE",
"621 1020 OFFCURVE",
"501 925 OFFCURVE",
"386 925 CURVE SMOOTH"
);
}
);
width = 676;
}
);
leftKerningGroup = zero.numr;
leftMetricsKey = zero.numr;
rightKerningGroup = zero.numr;
rightMetricsKey = zero.numr;
},
{
color = 6;
glyphname = fraction;
layers = (
{
layerId = "258ED206-D907-4350-8EBA-CBDDA1C16BF7";
paths = (
{
closed = 1;
nodes = (
"976 1462 LINE",
"768 1462 LINE",
"-425 -4 LINE",
"-215 -8 LINE"
);
}
);
width = 491;
},
{
layerId = "91AB5BCA-6A50-42DA-B2F7-8181BF189245";
paths = (
{
closed = 1;
nodes = (
"807 1462 LINE",
"738 1462 LINE",
"-367 -8 LINE",
"-296 -8 LINE"
);
}
);
width = 371;
}
);
unicode = 2044;
},
{
color = 6;
glyphname = period;
layers = (
{
layerId = "258ED206-D907-4350-8EBA-CBDDA1C16BF7";
paths = (
{
closed = 1;
nodes = (
"423 0 LINE",
"483 392 LINE",
"77 392 LINE",
"17 0 LINE"
);
}
);
width = 621;
},
{
layerId = "91AB5BCA-6A50-42DA-B2F7-8181BF189245";
paths = (
{
closed = 1;
nodes = (
"159 0 LINE",
"181 154 LINE",
"69 154 LINE",
"47 0 LINE"
);
}
);
width = 352;
}
);
leftKerningGroup = period;
rightKerningGroup = period;
unicode = 002E;
},
{
color = 6;
glyphname = comma;
layers = (
{
layerId = "258ED206-D907-4350-8EBA-CBDDA1C16BF7";
paths = (
{
closed = 1;
nodes = (
"112 -306 LINE",
"392 40 LINE",
"438 340 LINE",
"86 340 LINE",
"34 2 LINE",
"148 -12 LINE",
"-16 -306 LINE"
);
}
);
width = 623;
},
{
layerId = "91AB5BCA-6A50-42DA-B2F7-8181BF189245";
paths = (
{
closed = 1;
nodes = (
"34 -222 LINE",
"196 24 LINE",
"214 160 LINE",
"62 160 LINE",
"40 0 LINE",
"106 0 LINE",
"-24 -222 LINE"
);
}
);
width = 395;
}
);
leftKerningGroup = period;
rightKerningGroup = period;
unicode = 002C;
},
{
color = 6;
glyphname = colon;
layers = (
{
layerId = "258ED206-D907-4350-8EBA-CBDDA1C16BF7";
paths = (
{
closed = 1;
nodes = (
"522 640 LINE",
"580 1024 LINE",
"172 1024 LINE",
"114 640 LINE"
);
},
{
closed = 1;
nodes = (
"426 6 LINE",
"484 390 LINE",
"76 390 LINE",
"18 6 LINE"
);
}
);
width = 629;
},
{
layerId = "91AB5BCA-6A50-42DA-B2F7-8181BF189245";
paths = (
{
closed = 1;
nodes = (
"276 820 LINE",
"298 976 LINE",
"186 976 LINE",
"164 820 LINE"
);
},
{
closed = 1;
nodes = (
"160 6 LINE",
"182 160 LINE",
"70 160 LINE",
"48 6 LINE"
);
}
);
width = 353;
}
);
leftKerningGroup = colon;
leftMetricsKey = period;
rightKerningGroup = period;
rightMetricsKey = period;
unicode = 003A;
},
{
color = 6;
glyphname = semicolon;
layers = (
{
layerId = "258ED206-D907-4350-8EBA-CBDDA1C16BF7";
paths = (
{
closed = 1;
nodes = (
"123 -330 LINE",
"441 44 LINE",
"493 386 LINE",
"85 386 LINE",
"27 0 LINE",
"165 0 LINE",
"-29 -330 LINE"
);
},
{
closed = 1;
nodes = (
"529 626 LINE",
"587 1018 LINE",
"181 1018 LINE",
"121 626 LINE"
);
}
);
width = 637;
},
{
layerId = "91AB5BCA-6A50-42DA-B2F7-8181BF189245";
paths = (
{
closed = 1;
nodes = (
"49 -262 LINE",
"201 18 LINE",
"219 154 LINE",
"107 154 LINE",
"87 0 LINE",
"137 0 LINE",
"11 -262 LINE"
);
},
{
closed = 1;
nodes = (
"305 820 LINE",
"327 976 LINE",
"213 976 LINE",
"193 820 LINE"
);
}
);
width = 391;
}
);
leftKerningGroup = colon;
leftMetricsKey = colon;
rightKerningGroup = colon;
rightMetricsKey = colon;
unicode = 003B;
},
{
color = 6;
glyphname = exclam;
layers = (
{
layerId = "258ED206-D907-4350-8EBA-CBDDA1C16BF7";
paths = (
{
closed = 1;
nodes = (
"407 518 LINE",
"649 1446 LINE",
"201 1446 LINE",
"169 518 LINE"
);
},
{
closed = 1;
nodes = (
"409 0 LINE",
"467 384 LINE",
"61 384 LINE",
"1 0 LINE"
);
}
);
width = 618;
},
{
layerId = "91AB5BCA-6A50-42DA-B2F7-8181BF189245";
paths = (
{
closed = 1;
nodes = (
"213 288 LINE",
"395 1446 LINE",
"301 1446 LINE",
"155 288 LINE"
);
},
{
closed = 1;
nodes = (
"199 0 LINE",
"221 154 LINE",
"109 154 LINE",
"89 0 LINE"
);
}
);
width = 432;
}
);
unicode = 0021;
},
{
color = 6;
glyphname = exclamdown;
layers = (
{
layerId = "258ED206-D907-4350-8EBA-CBDDA1C16BF7";
paths = (
{
closed = 1;
nodes = (
"404 -322 LINE",
"416 514 LINE",
"180 514 LINE",
"-48 -322 LINE"
);
},
{
closed = 1;
nodes = (
"520 650 LINE",
"574 1034 LINE",
"164 1034 LINE",
"110 650 LINE"
);
}
);
width = 622;
},
{
layerId = "91AB5BCA-6A50-42DA-B2F7-8181BF189245";
paths = (
{
closed = 1;
nodes = (
"159 -322 LINE",
"279 744 LINE",
"221 744 LINE",
"65 -322 LINE"
);
},
{
closed = 1;
nodes = (
"323 880 LINE",
"343 1034 LINE",
"233 1034 LINE",
"213 880 LINE"
);
}
);
width = 437;
}
);
leftMetricsKey = exclam;
rightMetricsKey = exclam;
unicode = 00A1;
},
{
color = 6;
glyphname = question;
layers = (
{
layerId = "258ED206-D907-4350-8EBA-CBDDA1C16BF7";
paths = (
{
closed = 1;
nodes = (
"660 524 LINE",
"704 804 OFFCURVE",
"1078 818 OFFCURVE",
"1124 1132 CURVE SMOOTH",
"1152 1308 OFFCURVE",
"974 1466 OFFCURVE",
"674 1466 CURVE SMOOTH",
"406 1466 OFFCURVE",
"204 1340 OFFCURVE",
"82 1102 CURVE",
"394 1032 LINE",
"456 1148 OFFCURVE",
"544 1212 OFFCURVE",
"632 1212 CURVE SMOOTH",
"700 1212 OFFCURVE",
"754 1172 OFFCURVE",
"744 1110 CURVE SMOOTH",
"720 956 OFFCURVE",
"414 884 OFFCURVE",
"358 524 CURVE"
);
},
{
closed = 1;
nodes = (
"634 0 LINE",
"692 384 LINE",
"284 384 LINE",
"226 0 LINE"
);
}
);
width = 1088;
},
{
layerId = "91AB5BCA-6A50-42DA-B2F7-8181BF189245";
paths = (
{
closed = 1;
nodes = (
"444 292 LINE",
"496 656 OFFCURVE",
"890 760 OFFCURVE",
"940 1112 CURVE SMOOTH",
"970 1328 OFFCURVE",
"842 1466 OFFCURVE",
"610 1466 CURVE SMOOTH",
"438 1466 OFFCURVE",
"266 1368 OFFCURVE",
"168 1216 CURVE",
"238 1178 LINE",
"294 1288 OFFCURVE",
"458 1384 OFFCURVE",
"598 1384 CURVE SMOOTH",
"778 1384 OFFCURVE",
"880 1280 OFFCURVE",
"856 1112 CURVE SMOOTH",
"810 788 OFFCURVE",
"424 682 OFFCURVE",
"370 292 CURVE"
);
},
{
closed = 1;
nodes = (
"422 0 LINE",
"444 154 LINE",
"334 154 LINE",
"312 0 LINE"
);
}
);
width = 946;
}
);
leftKerningGroup = parenright;
rightMetricsKey = z;
unicode = 003F;
},
{
color = 6;
glyphname = questiondown;
layers = (
{
layerId = "258ED206-D907-4350-8EBA-CBDDA1C16BF7";
paths = (
{
closed = 1;
nodes = (
"724 -342 OFFCURVE",
"926 -214 OFFCURVE",
"1044 24 CURVE",
"730 92 LINE",
"674 -14 OFFCURVE",
"582 -78 OFFCURVE",
"494 -78 CURVE SMOOTH",
"426 -78 OFFCURVE",
"372 -38 OFFCURVE",
"380 16 CURVE SMOOTH",
"402 172 OFFCURVE",
"708 230 OFFCURVE",
"750 528 CURVE",
"444 528 LINE",
"412 310 OFFCURVE",
"42 312 OFFCURVE",
"-4 -6 CURVE SMOOTH",
"-28 -184 OFFCURVE",
"112 -342 OFFCURVE",
"454 -342 CURVE SMOOTH"
);
},
{
closed = 1;
nodes = (
"820 650 LINE",
"874 1034 LINE",
"464 1034 LINE",
"410 650 LINE"
);
}
);
width = 1133;
},
{
layerId = "91AB5BCA-6A50-42DA-B2F7-8181BF189245";
paths = (
{
closed = 1;
nodes = (
"499 -342 OFFCURVE",
"669 -244 OFFCURVE",
"767 -92 CURVE",
"695 -52 LINE",
"641 -164 OFFCURVE",
"475 -260 OFFCURVE",
"335 -260 CURVE SMOOTH",
"153 -260 OFFCURVE",
"51 -154 OFFCURVE",
"73 14 CURVE SMOOTH",
"113 318 OFFCURVE",
"487 330 OFFCURVE",
"541 742 CURVE",
"465 742 LINE",
"415 358 OFFCURVE",
"33 348 OFFCURVE",
"-11 14 CURVE SMOOTH",
"-39 -202 OFFCURVE",
"91 -342 OFFCURVE",
"325 -342 CURVE SMOOTH"
);
},
{
closed = 1;
nodes = (
"577 880 LINE",
"597 1034 LINE",
"485 1034 LINE",
"465 880 LINE"
);
}
);
width = 923;
}
);
unicode = 00BF;
},
{
color = 6;
glyphname = periodcentered;
layers = (
{
layerId = "258ED206-D907-4350-8EBA-CBDDA1C16BF7";
paths = (
{
closed = 1;
nodes = (
"455 554 LINE",
"509 902 LINE",
"149 902 LINE",
"95 554 LINE"
);
}
);
width = 575;
},
{
layerId = "91AB5BCA-6A50-42DA-B2F7-8181BF189245";
paths = (
{
closed = 1;
nodes = (
"285 652 LINE",
"307 806 LINE",
"161 806 LINE",
"139 652 LINE"
);
}
);
width = 386;
}
);
leftKerningGroup = period;
leftMetricsKey = period;
rightKerningGroup = period;
rightMetricsKey = period;
unicode = 00B7;
},
{
color = 6;
glyphname = bullet;
layers = (
{
layerId = "258ED206-D907-4350-8EBA-CBDDA1C16BF7";
paths = (
{
closed = 1;
nodes = (
"571 434 OFFCURVE",
"707 570 OFFCURVE",
"707 736 CURVE SMOOTH",
"707 900 OFFCURVE",
"571 1036 OFFCURVE",
"405 1036 CURVE SMOOTH",
"239 1036 OFFCURVE",
"104 900 OFFCURVE",
"104 736 CURVE SMOOTH",
"104 570 OFFCURVE",
"239 434 OFFCURVE",
"405 434 CURVE SMOOTH"
);
}
);
width = 779;
},
{
layerId = "91AB5BCA-6A50-42DA-B2F7-8181BF189245";
paths = (
{
closed = 1;
nodes = (
"390 594 OFFCURVE",
"452 658 OFFCURVE",
"452 736 CURVE SMOOTH",
"452 814 OFFCURVE",
"390 876 OFFCURVE",
"312 876 CURVE SMOOTH",
"234 876 OFFCURVE",
"172 814 OFFCURVE",
"172 736 CURVE SMOOTH",
"172 658 OFFCURVE",
"234 594 OFFCURVE",
"312 594 CURVE SMOOTH"
);
}
);
width = 563;
}
);
unicode = 2022;
},
{
color = 6;
glyphname = asterisk;
layers = (
{
layerId = "258ED206-D907-4350-8EBA-CBDDA1C16BF7";
paths = (
{
closed = 1;
nodes = (
"604 840 LINE",
"778 548 LINE",
"978 686 LINE",
"760 942 LINE",
"1072 1026 LINE",
"1002 1246 LINE",
"694 1108 LINE",
"728 1446 LINE",
"488 1446 LINE",
"514 1110 LINE",
"212 1248 LINE",
"132 1030 LINE",
"454 942 LINE",
"232 684 LINE",
"430 544 LINE"
);
}
);
width = 1090;
},
{
layerId = "91AB5BCA-6A50-42DA-B2F7-8181BF189245";
paths = (
{
closed = 1;
nodes = (
"426 1120 LINE",
"572 888 LINE",
"636 936 LINE",
"470 1146 LINE",
"698 1226 LINE",
"678 1288 LINE",
"452 1194 LINE",
"462 1446 LINE",
"380 1446 LINE",
"394 1194 LINE",
"170 1276 LINE",
"148 1212 LINE",
"380 1144 LINE",
"208 922 LINE",
"272 880 LINE"
);
}
);
width = 628;
}
);
unicode = 002A;
},
